<svg xmlns="http://www.w3.org/2000/svg" width="65" height="77" fill="none"><g fill="#000" clip-path="url(#a)"><path d="M51.157 72.188a4.224 4.224 0 0 0 4.213-4.211v-1.204a4.224 4.224 0 0 0-4.213-4.21h-13.24a4.224 4.224 0 0 0-4.213 4.21v1.204a4.224 4.224 0 0 0 4.213 4.21h13.24Zm-15.046-4.211v-1.204a1.81 1.81 0 0 1 1.806-1.804h13.24a1.81 1.81 0 0 1 1.806 1.804v1.204a1.81 1.81 0 0 1-1.806 1.804h-13.24a1.81 1.81 0 0 1-1.806-1.804ZM26.482 72.79V62.561h-2.408V72.79A4.224 4.224 0 0 0 28.287 77h6.62v-2.406h-6.62a1.81 1.81 0 0 1-1.805-1.805Z"/><path d="M62.593 42.11h-2.679l-.977-3.896a1.207 1.207 0 0 0-1.174-.917H50.54v2.406h6.289l.602 2.406h-8.095v2.407h4.484l-.602 2.406H50.54v2.406h3.61c.557 0 1.039-.376 1.174-.917l.978-3.895h6.29v6.406l-4.033 3.219h-4.604a3.618 3.618 0 0 0-3.4-2.407 3.62 3.62 0 0 0-3.611 3.61 3.62 3.62 0 0 0 3.61 3.61 3.618 3.618 0 0 0 3.401-2.407h5.026c.27 0 .541-.09.752-.27l2.859-2.287v18.8a1.81 1.81 0 0 1-1.806 1.804H37.315V77h23.472A4.224 4.224 0 0 0 65 72.79v-37.9h-2.407v7.22ZM50.556 56.546a1.207 1.207 0 0 1-1.204-1.203c0-.662.542-1.203 1.204-1.203.662 0 1.203.541 1.203 1.203 0 .661-.541 1.203-1.203 1.203ZM60.787 0h-32.5a4.224 4.224 0 0 0-4.213 4.21v5.415h2.408V4.211a1.81 1.81 0 0 1 1.805-1.805h6.62v.602a4.224 4.224 0 0 0 4.214 4.21h4.212V4.814h-4.212a1.81 1.81 0 0 1-1.806-1.805v-.602h14.444v.602a1.81 1.81 0 0 1-1.805 1.804H45.74V7.22h4.213a4.224 4.224 0 0 0 4.213-4.211v-.602h6.62a1.81 1.81 0 0 1 1.806 1.805v4.843l-5.236 4.18h-4.605a3.618 3.618 0 0 0-3.4-2.406 3.62 3.62 0 0 0-3.611 3.61 3.62 3.62 0 0 0 3.611 3.609 3.618 3.618 0 0 0 3.4-2.406h5.026c.27 0 .542-.09.752-.271l4.063-3.248v13.144h-2.679l-.977-3.895a1.207 1.207 0 0 0-1.174-.918h-3.611v2.406h2.678l.602 2.407H46.929v2.406h6.892l-.602 2.406H50.54v2.406h3.61c.557 0 1.039-.376 1.174-.917l.978-3.895h6.29v4.812H65V4.211A4.224 4.224 0 0 0 60.787 0ZM49.352 15.64a1.207 1.207 0 0 1-1.204-1.203c0-.661.542-1.203 1.204-1.203.662 0 1.204.542 1.204 1.204 0 .661-.542 1.203-1.204 1.203Z"/><path d="M30.093 57.45V54.44a20.807 20.807 0 0 0 4.318-1.895l2 2a2.726 2.726 0 0 0 3.838 0l4.68-4.676a2.722 2.722 0 0 0 0-3.835l-2.363-2.362a28.13 28.13 0 0 0 .707-1.564h2.167a2.716 2.716 0 0 0 2.708-2.707v-6.617a2.716 2.716 0 0 0-2.708-2.707h-2.167a28.13 28.13 0 0 0-.707-1.564l2.362-2.361a2.722 2.722 0 0 0 0-3.835l-4.68-4.677a2.726 2.726 0 0 0-3.836 0l-2.001 2a20.807 20.807 0 0 0-4.319-1.895v-3.008a2.716 2.716 0 0 0-2.708-2.707h-6.62a2.716 2.716 0 0 0-2.709 2.707v3.008a19.883 19.883 0 0 0-4.333 1.91l-2.016-2.015a2.725 2.725 0 0 0-3.837 0l-4.68 4.677a2.722 2.722 0 0 0 0 3.835l2.378 2.376a27.78 27.78 0 0 0-.707 1.55H2.693a2.716 2.716 0 0 0-2.708 2.706v6.617a2.716 2.716 0 0 0 2.708 2.707H4.86c.21.512.436 1.038.707 1.55L3.19 46.034a2.722 2.722 0 0 0 0 3.835l4.68 4.677a2.725 2.725 0 0 0 3.836 0l2.016-2.016a20.634 20.634 0 0 0 4.333 1.91v3.008a2.716 2.716 0 0 0 2.709 2.707h6.62a2.716 2.716 0 0 0 2.709-2.707Zm-9.63 0v-3.91c0-.557-.376-1.024-.903-1.159a18.142 18.142 0 0 1-5.356-2.361 1.174 1.174 0 0 0-.662-.196c-.316 0-.617.12-.858.346L9.99 52.862c-.12.12-.301.12-.422 0L4.89 48.185a.29.29 0 0 1 0-.42l2.994-2.994c.376-.376.467-.947.21-1.413-.51-.978-.947-1.925-1.278-2.843a1.199 1.199 0 0 0-1.129-.797H2.693a.302.302 0 0 1-.3-.3V32.8c0-.165.135-.3.3-.3h2.994c.512 0 .963-.316 1.129-.798.33-.917.767-1.865 1.279-2.842a1.21 1.21 0 0 0-.21-1.414L4.89 24.453a.29.29 0 0 1 0-.42l4.68-4.678c.12-.12.3-.12.42 0l2.694 2.692a1.188 1.188 0 0 0 1.505.15 17.597 17.597 0 0 1 5.356-2.36c.527-.136.903-.617.903-1.159v-3.91c0-.165.135-.3.3-.3h6.621c.166 0 .301.135.301.3v3.91c0 .557.376 1.023.903 1.159a17.515 17.515 0 0 1 5.341 2.36c.482.317 1.114.241 1.505-.15l2.678-2.677c.12-.12.301-.12.421 0l4.68 4.677c.12.12.12.301 0 .422l-2.98 2.977a1.186 1.186 0 0 0-.21 1.414c.512.977.948 1.94 1.279 2.842.166.482.632.797 1.128.797h2.995c.165 0 .3.136.3.301v6.617c0 .166-.135.301-.3.301h-2.995c-.511 0-.962.316-1.128.797-.331.918-.767 1.88-1.279 2.843a1.21 1.21 0 0 0 .21 1.413l2.98 2.978c.12.12.12.3 0 .421l-4.68 4.677c-.12.12-.3.12-.42 0l-2.68-2.677a1.188 1.188 0 0 0-1.504-.15 18.275 18.275 0 0 1-5.341 2.361 1.205 1.205 0 0 0-.903 1.158v3.91c0 .166-.135.301-.3.301h-6.621a.302.302 0 0 1-.301-.3h.015Z"/><path d="M24.074 24.063c2.784 0 5.507.977 7.659 2.752l1.534-1.85a14.48 14.48 0 0 0-9.193-3.309c-3.34 0-6.605 1.173-9.193 3.309l1.535 1.85a12.072 12.072 0 0 1 7.658-2.753ZM12.94 26.905a14.463 14.463 0 0 0-3.31 9.189c0 3.338 1.173 6.602 3.31 9.188l1.85-1.533a12.06 12.06 0 0 1-2.753-7.655c0-2.783.978-5.505 2.753-7.655l-1.85-1.534ZM31.733 45.373a12.072 12.072 0 0 1-7.659 2.752c-2.783 0-5.507-.978-7.658-2.752l-1.535 1.85a14.478 14.478 0 0 0 9.193 3.308c3.34 0 6.605-1.173 9.193-3.308l-1.534-1.85ZM35.208 45.282a14.463 14.463 0 0 0 3.31-9.188c0-3.339-1.173-6.603-3.31-9.19l-1.85 1.535a12.06 12.06 0 0 1 2.753 7.655 12.06 12.06 0 0 1-2.754 7.654l1.851 1.535ZM24.691 27.837a1.21 1.21 0 0 0-1.234 0l-6.018 3.61c-.361.21-.587.601-.587 1.037v7.22c0 .42.226.811.587 1.037l6.018 3.61c.196.12.407.165.617.165.21 0 .422-.06.617-.166l6.019-3.61c.36-.21.587-.6.587-1.037v-7.219a1.23 1.23 0 0 0-.587-1.037l-6.019-3.61Zm4.198 11.174L24.074 41.9 19.26 39.01v-5.85l4.815-2.887 4.815 2.887v5.85ZM51.76 20.453h-2.408v2.406h2.408v-2.406ZM60.185 32.484h-2.407v2.407h2.407v-2.407Z"/></g><defs><clipPath id="a"><path fill="#fff" d="M0 0h65v77H0z"/></clipPath></defs></svg>