<svg xmlns="http://www.w3.org/2000/svg" width="77" height="77" fill="none"><g fill="#000" clip-path="url(#a)"><path d="M24.679 26.905a17.886 17.886 0 0 0-4.181 10.317l2.406.165a15.538 15.538 0 0 1 3.625-8.933l-1.85-1.55ZM20.498 39.793a17.887 17.887 0 0 0 4.18 10.317l1.85-1.549a15.538 15.538 0 0 1-3.624-8.933l-2.406.165ZM26.905 52.321a17.886 17.886 0 0 0 10.317 4.18l.165-2.405a15.538 15.538 0 0 1-8.933-3.625l-1.55 1.85ZM50.095 52.321l-1.549-1.85a15.538 15.538 0 0 1-8.933 3.625l.165 2.406a17.886 17.886 0 0 0 10.317-4.181ZM52.321 50.095a17.886 17.886 0 0 0 4.18-10.317l-2.405-.165a15.538 15.538 0 0 1-3.625 8.933l1.85 1.549ZM54.096 37.387l2.406-.165a17.886 17.886 0 0 0-4.18-10.317l-.918.767-.918.767a15.537 15.537 0 0 1 3.625 8.933l-.015.015ZM39.793 20.498l-.165 2.406a15.538 15.538 0 0 1 8.933 3.625l1.55-1.85a17.885 17.885 0 0 0-10.318-4.18ZM26.905 24.68l1.549 1.849a15.538 15.538 0 0 1 8.933-3.625l-.165-2.406a17.885 17.885 0 0 0-10.317 4.181ZM37.808 50.306c.21.15.451.225.692.225.24 0 .496-.075.692-.225l8.422-6.016c.315-.225.51-.587.51-.977v-9.626c0-.39-.18-.752-.51-.977l-8.422-6.016c-.421-.3-.978-.3-1.399 0l-8.422 6.016a1.205 1.205 0 0 0-.511.977v9.626c0 .39.18.752.511.977l8.422 6.016h.015Zm-6.527-16.002 7.219-5.158 7.219 5.158v8.392l-7.22 5.158-7.218-5.158v-8.392ZM39.703 16.844h-2.406v2.406h2.406v-2.406ZM39.703 57.75h-2.406v2.406h2.406V57.75ZM19.25 37.297h-2.406v2.406h2.406v-2.406ZM60.156 37.297H57.75v2.406h2.406v-2.406Z"/><path d="M39.703 67.525v-3.79c5.083-.24 9.88-1.955 13.956-5.023l-1.443-1.925A22.655 22.655 0 0 1 38.5 61.36c-12.603 0-22.86-10.256-22.86-22.86 0-5.579 2.03-10.948 5.715-15.113l-1.804-1.595a25.228 25.228 0 0 0-6.286 15.506h-3.79a4.824 4.824 0 0 0-4.662-3.61A4.827 4.827 0 0 0 0 38.5a4.827 4.827 0 0 0 4.813 4.812c2.24 0 4.12-1.534 4.662-3.609h3.79c.616 12.979 11.053 23.416 24.032 24.032v3.79a4.824 4.824 0 0 0-3.61 4.662A4.827 4.827 0 0 0 38.5 77a4.827 4.827 0 0 0 4.813-4.813c0-2.24-1.535-4.12-3.61-4.662ZM4.813 40.906A2.413 2.413 0 0 1 2.405 38.5a2.413 2.413 0 0 1 2.406-2.406A2.413 2.413 0 0 1 7.22 38.5a2.413 2.413 0 0 1-2.407 2.406ZM38.5 74.594a2.413 2.413 0 0 1-2.406-2.407 2.413 2.413 0 0 1 2.406-2.406 2.413 2.413 0 0 1 2.406 2.406 2.413 2.413 0 0 1-2.406 2.407ZM68.578 63.766c-.887 0-1.73.24-2.436.661l-6.332-6.331-1.7 1.7 6.332 6.33a4.807 4.807 0 0 0-.661 2.437 4.827 4.827 0 0 0 4.812 4.813 4.827 4.827 0 0 0 4.813-4.813 4.827 4.827 0 0 0-4.813-4.812l-.015.015Zm0 7.218a2.413 2.413 0 0 1-2.406-2.406 2.413 2.413 0 0 1 2.406-2.406 2.413 2.413 0 0 1 2.406 2.406 2.413 2.413 0 0 1-2.406 2.406ZM72.187 33.688a4.824 4.824 0 0 0-4.662 3.609h-3.79C63.12 24.318 52.683 13.88 39.704 13.265v-3.79a4.824 4.824 0 0 0 3.61-4.662A4.827 4.827 0 0 0 38.5 0a4.827 4.827 0 0 0-4.813 4.813c0 2.24 1.534 4.12 3.61 4.662v3.79a25.228 25.228 0 0 0-15.505 6.286l1.594 1.805A22.851 22.851 0 0 1 38.5 15.64c12.603 0 22.86 10.256 22.86 22.859 0 6.196-2.437 11.986-6.858 16.317l1.684 1.715c4.602-4.512 7.249-10.452 7.55-16.844h3.79a4.824 4.824 0 0 0 4.661 3.61A4.827 4.827 0 0 0 77 38.484a4.827 4.827 0 0 0-4.813-4.813v.016ZM36.094 4.811A2.413 2.413 0 0 1 38.5 2.406a2.413 2.413 0 0 1 2.406 2.406A2.413 2.413 0 0 1 38.5 7.22a2.413 2.413 0 0 1-2.406-2.407Zm36.093 36.094a2.413 2.413 0 0 1-2.406-2.406 2.413 2.413 0 0 1 2.406-2.406 2.413 2.413 0 0 1 2.407 2.406 2.413 2.413 0 0 1-2.407 2.406Z"/><path d="m18.904 59.81-1.7-1.7-6.33 6.332a4.807 4.807 0 0 0-2.437-.661 4.827 4.827 0 0 0-4.812 4.812 4.827 4.827 0 0 0 4.812 4.813 4.827 4.827 0 0 0 4.813-4.813c0-.887-.241-1.73-.662-2.436l6.331-6.332-.015-.015ZM8.422 70.984a2.413 2.413 0 0 1-2.406-2.406 2.413 2.413 0 0 1 2.406-2.406 2.413 2.413 0 0 1 2.406 2.406 2.413 2.413 0 0 1-2.406 2.406ZM58.096 17.19l1.7 1.699 6.331-6.332a4.807 4.807 0 0 0 2.436.662 4.827 4.827 0 0 0 4.813-4.812 4.827 4.827 0 0 0-4.813-4.813 4.827 4.827 0 0 0-4.812 4.813c0 .887.24 1.73.661 2.436l-6.33 6.331.014.016ZM68.578 6.016a2.413 2.413 0 0 1 2.407 2.406 2.413 2.413 0 0 1-2.407 2.406 2.413 2.413 0 0 1-2.406-2.406 2.413 2.413 0 0 1 2.406-2.406ZM8.422 13.235c.887 0 1.73-.241 2.436-.662l6.332 6.331 1.699-1.7-6.332-6.33a4.807 4.807 0 0 0 .662-2.437 4.827 4.827 0 0 0-4.812-4.812 4.827 4.827 0 0 0-4.813 4.812 4.827 4.827 0 0 0 4.813 4.813l.015-.015Zm0-7.22a2.413 2.413 0 0 1 2.406 2.407 2.413 2.413 0 0 1-2.406 2.406 2.413 2.413 0 0 1-2.406-2.406 2.413 2.413 0 0 1 2.406-2.406ZM4.813 25.266h7.218c.662 0 1.203-.542 1.203-1.203V19.25h-2.406v3.61H3.61c-.661 0-1.203.54-1.203 1.203v4.812h2.406v-3.61ZM6.016 16.844H3.609v2.406h2.407v-2.406ZM12.031 28.875H9.625v2.406h2.406v-2.406ZM73.39 51.734h-7.218v-3.609h-2.406v4.813c0 .661.541 1.203 1.203 1.203h7.219v3.609h2.406v-4.813c0-.661-.542-1.203-1.203-1.203ZM73.39 45.719h-2.406v2.406h2.407v-2.406ZM67.375 57.75h-2.406v2.406h2.406V57.75ZM10.828 54.14v3.61h2.406v-4.813c0-.661-.541-1.203-1.203-1.203H4.812v-3.609H2.406v4.813c0 .661.542 1.203 1.203 1.203h7.22ZM6.016 57.75H3.609v2.406h2.407V57.75ZM12.031 45.719H9.625v2.406h2.406v-2.406ZM74.594 24.063V19.25h-2.406v3.61h-7.22c-.661 0-1.202.54-1.202 1.203v4.812h2.406v-3.61h7.219c.661 0 1.203-.54 1.203-1.203ZM73.39 28.875h-2.406v2.406h2.407v-2.406ZM67.375 16.844h-2.406v2.406h2.406v-2.406ZM19.25 72.188h-2.406v2.406h2.406v-2.406ZM19.25 64.969h-2.406v4.812h2.406V64.97ZM25.266 62.563h-2.407v9.624h2.407v-9.624ZM31.281 72.188h-2.406v2.406h2.406v-2.406ZM31.281 64.969h-2.406v4.812h2.406V64.97ZM60.156 72.188H57.75v2.406h2.406v-2.406ZM60.156 64.969H57.75v4.812h2.406V64.97ZM54.14 62.563h-2.406v9.624h2.407v-9.624ZM48.125 72.188h-2.406v2.406h2.406v-2.406ZM48.125 64.969h-2.406v4.812h2.406V64.97ZM19.25 2.406h-2.406v2.406h2.406V2.406ZM19.25 7.219h-2.406v4.812h2.406V7.22ZM25.266 4.813h-2.407v9.625h2.407V4.812ZM31.281 2.406h-2.406v2.406h2.406V2.406ZM31.281 7.219h-2.406v4.812h2.406V7.22ZM60.156 2.406H57.75v2.406h2.406V2.406ZM60.156 7.219H57.75v4.812h2.406V7.22ZM54.14 4.813h-2.406v9.625h2.407V4.812ZM48.125 2.406h-2.406v2.406h2.406V2.406ZM48.125 7.219h-2.406v4.812h2.406V7.22Z"/></g><defs><clipPath id="a"><path fill="#fff" d="M0 0h77v77H0z"/></clipPath></defs></svg>