<svg xmlns="http://www.w3.org/2000/svg" width="78" height="78" fill="none"><g fill="#000" clip-path="url(#a)"><path d="M39 24.375a14.656 14.656 0 0 0-9.308 3.352l1.554 1.873A12.22 12.22 0 0 1 39 26.812c2.819 0 5.576.99 7.754 2.788l1.554-1.873A14.656 14.656 0 0 0 39 24.375ZM27.727 29.692A14.656 14.656 0 0 0 24.375 39c0 3.382 1.188 6.688 3.352 9.308l1.873-1.554A12.22 12.22 0 0 1 26.812 39c0-2.818.99-5.576 2.788-7.754l-1.873-1.554ZM29.692 50.273A14.655 14.655 0 0 0 39 53.625c3.382 0 6.688-1.188 9.308-3.352L46.754 48.4A12.22 12.22 0 0 1 39 51.188a12.22 12.22 0 0 1-7.754-2.788l-1.554 1.873ZM50.273 48.308A14.656 14.656 0 0 0 53.625 39c0-3.382-1.188-6.688-3.352-9.308L48.4 31.246A12.22 12.22 0 0 1 51.187 39c0 2.819-.99 5.576-2.788 7.754l1.874 1.554ZM38.375 47.364c.198.122.412.167.625.167.213 0 .427-.06.625-.167l6.093-3.657c.366-.213.594-.61.594-1.05v-7.313c0-.427-.228-.823-.594-1.052l-6.093-3.656a1.224 1.224 0 0 0-1.25 0l-6.093 3.656c-.366.214-.594.61-.594 1.052v7.312c0 .427.228.823.594 1.051l6.093 3.657Zm-4.25-11.32L39 33.12l4.875 2.925v5.927L39 44.896l-4.875-2.925v-5.927Z"/><path d="M70.688 37.781v-5.347l6.642-3.321c.411-.213.67-.625.67-1.097v-7.313c0-.456-.259-.883-.67-1.096l-7.313-3.657a1.26 1.26 0 0 0-1.097 0l-6.748 3.367-5.53-2.986-1.158 2.148 5.454 2.94v5.896l-4.601 2.758c-3.047-5.896-9.019-10.085-16.042-10.558l-.168 2.438c8.928.594 15.92 8.074 15.92 17.032s-6.992 16.438-15.92 17.032l.168 2.437c7.023-.457 12.995-4.661 16.042-10.557l4.6 2.757v5.896l-6.672 3.595 1.158 2.148 6.749-3.64 6.748 3.366c.168.092.366.122.549.122.183 0 .38-.046.548-.122l7.313-3.656c.411-.213.67-.625.67-1.097v-7.313c0-.457-.259-.883-.67-1.096l-6.642-3.322v-5.347H68.25v5.347l-6.033 3.017-4.875-2.925a19.369 19.369 0 0 0 1.173-6.658c0-2.33-.411-4.57-1.173-6.657l4.875-2.925 6.033 3.017v5.347h2.438v.03Zm0-8.059v-4.585l4.875-2.438v4.586l-4.875 2.437Zm-1.22-11.288 4.586 2.3-4.585 2.3-4.586-2.3 4.586-2.3Zm-6.093 33.515 4.875 2.438v4.585l-4.875-2.437v-4.586Zm7.313 7.023v-4.585l4.875-2.438v4.586l-4.875 2.437Zm-1.22-11.288 4.586 2.3-4.585 2.3-4.586-2.3 4.586-2.3Zm-6.093-20.4V22.7l4.875 2.438v4.585l-4.875-2.437ZM17.063 50.654l4.6-2.757c3.047 5.896 9.019 10.085 16.042 10.557l.168-2.437c-8.928-.594-15.92-8.074-15.92-17.032s6.992-16.438 15.92-17.032l-.168-2.438c-7.312.488-13.482 5.012-16.407 11.289l-4.235-3.382v-6.003l5.453-2.94-1.157-2.148-5.53 2.986-6.75-3.367a1.26 1.26 0 0 0-1.096 0L.67 19.622c-.411.213-.67.625-.67 1.097v7.312c0 .457.259.884.67 1.097l6.643 3.321v5.348H9.75v-5.348l5.941-2.97 4.693 3.747A19.629 19.629 0 0 0 19.5 39c0 2.33.411 4.57 1.173 6.657l-4.875 2.925-6.033-3.016v-5.347H7.328v5.347L.686 48.887c-.412.213-.67.625-.67 1.097v7.313c0 .457.258.883.67 1.096l7.312 3.657c.168.091.366.122.548.122.183 0 .381-.046.549-.122l6.749-3.367 6.749 3.64 1.157-2.147-6.672-3.596v-5.895l-.015-.03ZM8.53 18.418l4.586 2.3L8.53 23.02l-4.585-2.3 4.585-2.3ZM2.437 27.27v-4.586l4.876 2.438v4.585l-4.875-2.438Zm7.313 2.437v-4.585l4.875-2.438v4.585L9.75 29.707ZM8.531 47.668l4.586 2.3L8.53 52.27l-4.585-2.3 4.585-2.3Zm-6.094 4.266 4.876 2.438v4.585l-4.875-2.438v-4.585Zm7.313 7.023v-4.586l4.875-2.437v4.586L9.75 58.956Z"/><path d="m24.954 17.2 6.748-3.641 6.75 3.366c.167.092.365.122.548.122.183 0 .38-.046.548-.122l6.75-3.367 6.748 3.642 1.158-2.148-6.673-3.596V4.875c0-.457-.259-.884-.67-1.097L39.548.122a1.26 1.26 0 0 0-1.097 0L31.14 3.778c-.412.213-.67.625-.67 1.097v6.581l-6.673 3.596 1.158 2.148Zm7.952-10.345 4.875 2.438v4.585l-4.875-2.437V6.855Zm7.313 7.023V9.293l4.875-2.438v4.586l-4.875 2.437ZM38.999 2.59l4.586 2.3L39 7.19l-4.586-2.3L39 2.59ZM51.827 61.456l-5.53 2.986-6.749-3.367a1.26 1.26 0 0 0-1.097 0l-6.748 3.367-5.53-2.986-1.158 2.148 5.454 2.94v6.581c0 .457.258.884.67 1.097l7.312 3.656c.168.092.366.122.549.122.183 0 .38-.046.548-.122l7.313-3.656c.411-.213.67-.625.67-1.097v-6.581l5.454-2.94-1.158-2.148ZM39 63.511l4.585 2.3-4.585 2.3-4.586-2.3 4.586-2.3Zm-6.094 4.266 4.875 2.437v4.586l-4.875-2.438v-4.585ZM40.22 74.8v-4.586l4.875-2.437v4.585l-4.875 2.438Z"/></g><defs><clipPath id="a"><path fill="#fff" d="M0 0h78v78H0z"/></clipPath></defs></svg>