<?xml version="1.0" encoding="UTF-8" standalone="no"?>
<!DOCTYPE svg PUBLIC "-//W3C//DTD SVG 1.1//EN" "http://www.w3.org/Graphics/SVG/1.1/DTD/svg11.dtd">
<svg width="100%" height="100%" viewBox="0 0 800 800" version="1.1" xmlns="http://www.w3.org/2000/svg" xmlns:xlink="http://www.w3.org/1999/xlink" xml:space="preserve" xmlns:serif="http://www.serif.com/" style="fill-rule:evenodd;clip-rule:evenodd;stroke-linejoin:round;stroke-miterlimit:2;">
    <g transform="matrix(1.61239,0,0,1.61239,4.58269e-14,4.58269e-14)">
        <path d="M248.082,0.003C111.07,0.003 0,111.061 0,248.085C0,385.085 111.07,496.155 248.082,496.155C385.088,496.155 496.158,385.085 496.158,248.085C496.158,111.061 385.088,0.003 248.082,0.003Z" style="fill-rule:nonzero;stroke:rgb(86,180,140);stroke-width:0.62px;"/>
    </g>
    <g transform="matrix(1.61239,0,0,1.61239,4.58269e-14,4.58269e-14)">
        <path d="M278.767,145.419C275.641,141.416 271.491,139.413 266.316,139.413C261.725,139.413 258.6,140.292 256.941,142.05C255.279,143.808 251.715,148.495 246.248,156.113C240.778,163.73 234.504,170.615 227.425,176.767C220.343,182.919 210.895,188.779 199.08,194.345C191.17,198.057 185.651,201.083 182.527,203.427C179.401,205.771 177.839,209.433 177.839,214.413C177.839,218.711 179.425,222.495 182.6,225.766C185.772,229.039 189.412,230.673 193.513,230.673C202.105,230.673 218.805,221.152 243.611,202.109L243.611,335.41C243.611,343.224 245.417,349.132 249.031,353.135C252.643,357.138 257.428,359.141 263.386,359.141C276.764,359.141 283.454,349.327 283.454,329.698L283.454,161.972C283.455,154.941 281.892,149.425 278.767,145.419Z" style="fill:white;fill-rule:nonzero;"/>
    </g>
</svg>
