<?xml version="1.0" encoding="UTF-8" standalone="no"?>
<!DOCTYPE svg PUBLIC "-//W3C//DTD SVG 1.1//EN" "http://www.w3.org/Graphics/SVG/1.1/DTD/svg11.dtd">
<svg width="100%" height="100%" viewBox="0 0 800 800" version="1.1" xmlns="http://www.w3.org/2000/svg" xmlns:xlink="http://www.w3.org/1999/xlink" xml:space="preserve" xmlns:serif="http://www.serif.com/" style="fill-rule:evenodd;clip-rule:evenodd;stroke-linejoin:round;stroke-miterlimit:2;">
    <g transform="matrix(1.61239,0,0,1.61239,4.58269e-14,4.58269e-14)">
        <path d="M248.082,0.003C111.07,0.003 0,111.061 0,248.085C0,385.085 111.07,496.155 248.082,496.155C385.088,496.155 496.158,385.085 496.158,248.085C496.158,111.061 385.088,0.003 248.082,0.003Z" style="fill-rule:nonzero;stroke:rgb(86,180,140);stroke-width:0.62px;"/>
    </g>
    <g transform="matrix(1.61239,0,0,1.61239,4.58269e-14,4.58269e-14)">
        <path d="M319.637,269.711C317,263.316 313.068,257.48 307.845,252.206C302.619,246.933 296.199,242.245 288.582,238.143C296.492,231.503 302.571,224.692 306.819,217.708C311.067,210.727 313.191,202.353 313.191,192.586C313.191,185.166 311.726,178.231 308.796,171.785C305.866,165.339 301.52,159.677 295.759,154.793C289.996,149.911 283.209,146.176 275.398,143.587C267.584,141.001 258.941,139.705 249.47,139.705C238.63,139.705 228.816,141.243 220.027,144.319C211.238,147.395 203.888,151.474 197.981,156.55C192.071,161.629 187.581,166.976 184.504,172.59C181.428,178.207 179.89,183.553 179.89,188.63C179.89,193.903 181.524,198.129 184.797,201.301C188.068,204.476 191.656,206.062 195.564,206.062C198.883,206.062 201.813,205.476 204.353,204.304C206.891,203.132 208.649,201.521 209.626,199.47C211.285,195.661 213.116,191.61 215.119,187.312C217.119,183.016 219.244,179.5 221.491,176.765C223.736,174.032 226.787,171.835 230.646,170.173C234.502,168.514 239.41,167.683 245.368,167.683C254.157,167.683 261.138,170.393 266.315,175.813C271.49,181.233 274.079,187.704 274.079,195.222C274.079,205.087 270.831,212.654 264.338,217.927C257.842,223.2 250.104,225.837 241.12,225.837L235.114,225.837C228.179,225.837 222.956,227.279 219.44,230.158C215.924,233.04 214.167,236.823 214.167,241.511C214.167,246.297 215.632,250.032 218.562,252.717C221.492,255.404 225.641,256.745 231.013,256.745C232.185,256.745 234.822,256.551 238.923,256.159C243.025,255.77 246.05,255.573 248.005,255.573C259.138,255.573 267.828,258.821 274.079,265.314C280.328,271.81 283.454,280.768 283.454,292.194C283.454,299.91 281.623,306.696 277.961,312.555C274.299,318.414 269.659,322.834 264.045,325.812C258.428,328.792 252.594,330.28 246.54,330.28C235.993,330.28 227.813,326.984 222.004,320.392C216.192,313.8 210.748,303.718 205.671,290.143C204.888,287.898 203.229,285.968 200.691,284.357C198.15,282.746 195.514,281.94 192.781,281.94C187.311,281.94 182.747,283.675 179.085,287.14C175.423,290.608 173.592,295.174 173.592,300.836C173.592,305.231 175.13,310.797 178.206,317.535C181.282,324.273 185.823,330.792 191.829,337.091C197.835,343.39 205.475,348.64 214.754,352.838C224.03,357.036 234.529,359.137 246.248,359.137C257.77,359.137 268.294,357.306 277.815,353.644C287.336,349.982 295.563,344.905 302.498,338.41C309.431,331.917 314.679,324.519 318.245,316.218C321.808,307.919 323.592,299.324 323.592,290.437C323.592,283.018 322.273,276.109 319.637,269.711Z" style="fill:white;fill-rule:nonzero;"/>
    </g>
</svg>
