<svg xmlns="http://www.w3.org/2000/svg" width="76" height="77" fill="none"><g fill="#000" clip-path="url(#a)"><path d="M2.375 12.031h15.438V9.625H2.374V2.707a.3.3 0 0 1 .297-.3h13.953V0H2.672C1.202 0 0 1.218 0 2.707v33.387h2.375V12.03Z"/><path d="M73.328 0H19v2.406h54.328a.3.3 0 0 1 .297.301v6.918h-16.7v2.406h16.7v39.703H51.062v2.407h22.563v6.918a.3.3 0 0 1-.297.3H2.672a.3.3 0 0 1-.297-.3V54.14h22.563v-2.407H2.375V38.5H0v22.559c0 1.489 1.202 2.707 2.672 2.707h27.015v1.684a4.814 4.814 0 0 1-3.25 4.572l-1.04.346c-1.706.571-2.834 2.18-2.834 4v1.444c0 .662.534 1.203 1.187 1.203h19v-2.406H24.937v-.24c0-.783.49-1.46 1.218-1.715l1.039-.346c2.91-.978 4.869-3.73 4.869-6.843v-1.684h11.874v1.684c0 3.113 1.96 5.865 4.87 6.843l1.038.346c.728.24 1.218.932 1.218 1.714v.24h-5.938v2.407h7.125c.653 0 1.188-.541 1.188-1.203v-1.444a4.22 4.22 0 0 0-2.836-4l-1.039-.346a4.814 4.814 0 0 1-3.25-4.572v-1.684h27.015c1.47 0 2.672-1.218 2.672-2.707V2.707C76 1.218 74.798 0 73.328 0ZM7.125 4.813H4.75v2.406h2.375V4.812ZM11.875 4.813H9.5v2.406h2.375V4.812Z"/><path d="M16.625 4.813H14.25v2.406h2.375V4.812ZM71.25 4.813h-2.375v2.406h2.375V4.812ZM66.5 4.813h-2.375v2.406H66.5V4.812ZM58.054 30.98l2.3.602a30.88 30.88 0 0 0 .565-2.587v-.03l2.003-12.407a1.205 1.205 0 0 0-.697-1.293L38.475 4.903a1.128 1.128 0 0 0-.935 0L13.79 15.265a1.196 1.196 0 0 0-.698 1.293l1.974 12.302v.03c1.915 10.257 7.778 19.385 16.507 25.687l5.759 4.15c.208.151.445.226.683.226.237 0 .475-.075.682-.225l5.493-3.91c7.377-5.25 12.72-12.438 15.437-20.77l-2.256-.752c-2.553 7.836-7.585 14.604-14.547 19.551l-4.794 3.414-5.077-3.654c-8.238-5.926-13.745-14.513-15.556-24.153L15.57 17.099 38 7.31l22.429 9.79-1.856 11.46c-.148.797-.326 1.61-.534 2.406l.015.015Z"/><path d="M38 15.64a14.167 14.167 0 0 0-9.07 3.31l1.515 1.849A11.812 11.812 0 0 1 38 18.047c2.746 0 5.433.977 7.556 2.752l1.514-1.85A14.167 14.167 0 0 0 38 15.641ZM27.016 20.89a14.584 14.584 0 0 0-3.266 9.188c0 3.339 1.158 6.602 3.266 9.189l1.825-1.534a12.16 12.16 0 0 1-2.716-7.655c0-2.782.965-5.504 2.716-7.655l-1.825-1.534ZM28.93 41.207A14.167 14.167 0 0 0 38 44.516c3.295 0 6.517-1.173 9.07-3.309l-1.514-1.85A11.812 11.812 0 0 1 38 42.11c-2.746 0-5.433-.977-7.555-2.752l-1.514 1.85ZM48.984 39.267a14.585 14.585 0 0 0 3.266-9.189c0-3.339-1.158-6.602-3.266-9.189l-1.825 1.534a12.16 12.16 0 0 1 2.716 7.655 12.16 12.16 0 0 1-2.716 7.655l1.825 1.534ZM37.391 38.335c.193.12.401.165.609.165.208 0 .416-.06.609-.165l5.937-3.61c.356-.21.579-.601.579-1.037v-7.22c0-.42-.223-.811-.579-1.037l-5.937-3.61a1.18 1.18 0 0 0-1.218 0l-5.937 3.61c-.356.21-.579.602-.579 1.038v7.219c0 .42.223.812.579 1.037l5.937 3.61ZM33.25 27.16 38 24.273l4.75 2.888v5.85L38 35.898l-4.75-2.887v-5.85Z"/></g><defs><clipPath id="a"><path fill="#fff" d="M0 0h76v77H0z"/></clipPath></defs></svg>