<svg xmlns="http://www.w3.org/2000/svg" width="52" height="51" fill="none"><g clip-path="url(#a)"><path fill="#000" d="M40.625 0c-3.664 0-6.914 1.747-8.994 4.444a23.435 23.435 0 0 0-8.069-1.421c-7.458 0-14.113 3.485-18.435 8.913-.04.04-.09.073-.122.13l-.024.048A23.489 23.489 0 0 0 0 26.585a23.446 23.446 0 0 0 4.989 14.47c.008.017 0 .033.016.05a.57.57 0 0 0 .163.178c4.322 5.395 10.96 8.864 18.395 8.864 7.434 0 14.153-3.51 18.476-8.961.024-.033.057-.05.073-.082.008-.008.008-.024.016-.032a23.427 23.427 0 0 0 4.997-14.479c0-1.154-.097-2.307-.26-3.453l.146-.22C49.58 19.078 52 15.447 52 11.384 52 5.111 46.898.008 40.625.008V0Zm0 1.625c5.379 0 9.75 4.371 9.75 9.75 0 3.575-2.291 7.004-4.712 10.636-1.934 2.892-3.917 5.858-5.038 9.213-1.13-3.355-3.104-6.32-5.038-9.213-2.42-3.632-4.712-7.061-4.712-10.636 0-5.379 4.371-9.75 9.75-9.75Zm-16.25 3.08c1.893.268 3.713 1.47 5.338 3.493a11.375 11.375 0 0 0-.463 3.177c0 1.43.309 2.811.804 4.16a43.087 43.087 0 0 1-5.679.471V4.704Zm-1.625.016v11.285c-3.096-.057-6.078-.422-8.783-1.064 1.917-5.76 5.175-9.71 8.783-10.23v.009Zm-4.907.69c-2.267 1.999-4.177 5.168-5.469 9.117-2.015-.585-3.859-1.333-5.435-2.227a21.9 21.9 0 0 1 10.904-6.89Zm11.472 0c.463.13.926.268 1.39.423-.114.203-.22.422-.317.634-.35-.39-.707-.732-1.073-1.057Zm10.18 1.048a.707.707 0 0 0-.316.033 4.856 4.856 0 0 0-3.42 4.656 4.879 4.879 0 0 0 4.874 4.875 4.879 4.879 0 0 0 4.875-4.875.815.815 0 0 0-.812-.813.815.815 0 0 0-.813.813 3.25 3.25 0 1 1-6.5 0c0-1.43.91-2.674 2.275-3.104a.817.817 0 0 0 .536-1.016.82.82 0 0 0-.698-.569Zm2.625.098a.807.807 0 0 0-.74.512.808.808 0 0 0 .456 1.056c.438.17.845.455 1.178.804a.809.809 0 0 0 1.146.04.81.81 0 0 0 .04-1.145 5.013 5.013 0 0 0-1.763-1.202.872.872 0 0 0-.317-.057v-.008Zm-1.487 2.966a1.62 1.62 0 0 0-1.625 1.625 1.62 1.62 0 0 0 1.625 1.625 1.62 1.62 0 0 0 1.625-1.625 1.62 1.62 0 0 0-1.625-1.625ZM5.907 13.577c1.739 1.015 3.77 1.852 6.004 2.502a38.42 38.42 0 0 0-1.153 6.37.812.812 0 0 0 .73.886h.082a.819.819 0 0 0 .813-.74 34.659 34.659 0 0 1 1.12-6.093c2.86.69 5.997 1.08 9.255 1.13v4.89c0 .447.366.813.813.813a.815.815 0 0 0 .812-.813v-4.89c2.161-.041 4.29-.22 6.338-.553.934 1.942 2.21 3.86 3.526 5.834.455.682.918 1.38 1.373 2.071-.374.073-.666.39-.666.78v1.625c0 .447.365.813.812.813a.815.815 0 0 0 .813-.813v-.877c1.568 2.608 2.876 5.346 3.25 8.393a.817.817 0 0 0 .812.715.809.809 0 0 0 .805-.715c.447-3.526 2.12-6.646 4.022-9.62.024.43.048.861.048 1.292 0 4.867-1.592 9.368-4.29 13.008-1.739-1.016-3.762-1.852-5.996-2.502a38.423 38.423 0 0 0 1.154-6.37.812.812 0 1 0-1.617-.155 35.437 35.437 0 0 1-1.121 6.094c-2.86-.69-5.997-1.08-9.255-1.13v-4.89a.815.815 0 0 0-.812-.813.815.815 0 0 0-.813.812v4.892c-3.25.056-6.394.446-9.254 1.129a36.386 36.386 0 0 1-1.121-6.094.812.812 0 1 0-1.617.154c.22 2.267.61 4.396 1.145 6.37-2.234.65-4.265 1.487-5.996 2.503a21.828 21.828 0 0 1-4.29-13.008c0-4.867 1.593-9.368 4.282-13.008l-.008.008ZM3.25 24.96a.815.815 0 0 0-.813.813v1.625c0 .446.366.812.813.812a.815.815 0 0 0 .813-.813v-1.624a.815.815 0 0 0-.813-.813Zm4.063 0a.815.815 0 0 0-.813.813v1.625c0 .446.366.812.813.812a.815.815 0 0 0 .812-.813v-1.624a.815.815 0 0 0-.813-.813Zm4.062 0a.815.815 0 0 0-.813.813v1.625c0 .446.366.812.813.812a.815.815 0 0 0 .813-.813v-1.624a.815.815 0 0 0-.813-.813Zm4.063 0a.815.815 0 0 0-.813.813v1.625c0 .446.366.812.813.812a.815.815 0 0 0 .812-.813v-1.624a.815.815 0 0 0-.813-.813Zm4.062 0a.815.815 0 0 0-.813.813v1.625c0 .446.366.812.813.812a.815.815 0 0 0 .813-.813v-1.624a.815.815 0 0 0-.813-.813Zm4.063 0a.815.815 0 0 0-.813.813v1.625c0 .446.366.812.813.812a.815.815 0 0 0 .812-.813v-1.624a.815.815 0 0 0-.813-.813Zm4.062 0a.815.815 0 0 0-.813.813v1.625c0 .446.366.812.813.812a.815.815 0 0 0 .813-.813v-1.624a.815.815 0 0 0-.813-.813Zm4.063 0a.815.815 0 0 0-.813.813v1.625c0 .446.366.812.813.812a.815.815 0 0 0 .812-.813v-1.624a.815.815 0 0 0-.813-.813ZM22.75 37.164v11.285c-3.608-.52-6.874-4.468-8.783-10.229 2.714-.642 5.687-1.008 8.783-1.064v.008Zm1.625 0c3.096.057 6.078.422 8.783 1.064-1.917 5.76-5.175 9.71-8.783 10.23V37.164Zm-12 1.487c1.291 3.948 3.2 7.109 5.468 9.116a21.9 21.9 0 0 1-10.904-6.89c1.584-.894 3.42-1.641 5.444-2.226h-.009Zm22.376 0c2.015.585 3.859 1.332 5.443 2.226a22.047 22.047 0 0 1-10.903 6.89c2.267-1.999 4.176-5.168 5.468-9.116h-.008Z"/></g><defs><clipPath id="a"><path fill="#fff" d="M0 0h52v50.148H0z"/></clipPath></defs></svg>