<svg xmlns="http://www.w3.org/2000/svg" width="64" height="64" fill="none"><path fill="#f15d2f" d="M1.432 6.084v51.833h3.73v1.244H0V4.84h5.162v1.243zm20.788 16.43v2.623h.075c.7-.998 1.542-1.774 2.53-2.323s2.117-.824 3.4-.824c1.224 0 2.342.238 3.353.712s1.78 1.3 2.305 2.5c.574-.85 1.355-1.6 2.342-2.248s2.154-.974 3.504-.974c1.024 0 1.973.125 2.848.375s1.623.65 2.248 1.2 1.1 1.268 1.462 2.154.525 1.955.525 3.204v12.964h-5.32V30.9l-.075-1.836c-.05-.574-.187-1.073-.412-1.5s-.556-.762-.993-1.012-1.03-.374-1.78-.374-1.355.145-1.817.43a3.12 3.12 0 0 0-1.087 1.124c-.263.46-.437.987-.524 1.574a12 12 0 0 0-.131 1.78v10.8h-5.32V31.022l-.037-1.705c-.025-.562-.13-1.08-.32-1.556s-.5-.855-.937-1.143-1.08-.43-1.93-.43c-.25 0-.58.056-.993.17a3.3 3.3 0 0 0-1.199.637c-.388.313-.718.762-.993 1.35s-.412 1.355-.412 2.304v11.24H17.2V22.515zm40.348 35.402V6.084h-3.73V4.84H64v54.32h-5.162v-1.244z"/></svg>