<?xml version="1.0" encoding="UTF-8" standalone="no"?>
<!-- Created with Inkscape (http://www.inkscape.org/) -->

<svg
   xmlns:dc="http://purl.org/dc/elements/1.1/"
   xmlns:cc="http://creativecommons.org/ns#"
   xmlns:rdf="http://www.w3.org/1999/02/22-rdf-syntax-ns#"
   xmlns:svg="http://www.w3.org/2000/svg"
   xmlns="http://www.w3.org/2000/svg"
   xmlns:sodipodi="http://sodipodi.sourceforge.net/DTD/sodipodi-0.dtd"
   xmlns:inkscape="http://www.inkscape.org/namespaces/inkscape"
   version="1.1"
   id="svg2"
   xml:space="preserve"
   width="1055"
   height="680"
   viewBox="0 0 1055 680.00001"
   sodipodi:docname="diode-logo.svg"
   inkscape:version="0.92.3 (2405546, 2018-03-11)"><metadata
     id="metadata8"><rdf:RDF><cc:Work
         rdf:about=""><dc:format>image/svg+xml</dc:format><dc:type
           rdf:resource="http://purl.org/dc/dcmitype/StillImage" /><dc:title></dc:title></cc:Work></rdf:RDF></metadata><defs
     id="defs6" /><sodipodi:namedview
     pagecolor="#ffffff"
     bordercolor="#666666"
     borderopacity="1"
     objecttolerance="10"
     gridtolerance="10"
     guidetolerance="10"
     inkscape:pageopacity="0"
     inkscape:pageshadow="2"
     inkscape:window-width="1565"
     inkscape:window-height="711"
     id="namedview4"
     showgrid="false"
     inkscape:zoom="0.31605531"
     inkscape:cx="53.120372"
     inkscape:cy="174.19125"
     inkscape:window-x="2208"
     inkscape:window-y="149"
     inkscape:window-maximized="0"
     inkscape:current-layer="g10"
     fit-margin-top="0"
     fit-margin-left="0"
     fit-margin-right="0"
     fit-margin-bottom="0" /><g
     id="g10"
     inkscape:groupmode="layer"
     inkscape:label="Diode.001.ID.final_2"
     transform="matrix(1.3333333,0,0,-1.3333333,-519.97225,866.93119)"><path
       style="fill:#cccccc;fill-opacity:1;fill-rule:nonzero;stroke:none;stroke-width:1.78237212"
       d="m 529.42367,515.56727 c -49.00989,0 -88.89843,-39.88649 -88.89843,-88.90885 v -62.92 c 0,-49.02238 39.88854,-88.90888 88.89843,-88.90888 49.00811,0 88.89318,39.8865 88.89318,88.90888 v 62.92 c 0,49.02236 -39.88507,88.90885 -88.89318,88.90885 z m 11.80646,-42.16599 h 31.32033 v -31.3203 -31.31771 -31.3177 h -31.27332 -0.047 -23.66256 v 31.3177 h 23.66256 v 31.31771 z m -62.54664,-62.63801 h 31.31771 v -31.32032 -31.3177 h 31.22893 v 23.20826 h 31.32033 v -23.20826 -31.32032 h -31.27332 -0.047 -31.22895 -0.0417 -31.27594 v 31.32032 31.3177 z"
       id="path5708"
       inkscape:connector-curvature="0" /><path
       inkscape:connector-curvature="0"
       id="path5720"
       style="fill:#cccccc;fill-opacity:1;fill-rule:nonzero;stroke:none;stroke-width:1.78237212"
       d="m 751.47271,378.68217 v 28.42526 c 0,31.56047 -9.40558,42.84644 -45.35425,42.84644 h -16.51189 c -7.94225,0 -11.28776,-3.34372 -11.28776,-11.28597 v -91.54441 c 0,-7.94225 3.34551,-11.28599 11.28776,-11.28599 h 16.51189 c 35.94867,0 45.35425,10.65858 45.35425,42.84467 m -84.64664,60.40458 c 0,15.25711 6.47893,21.73603 21.73425,21.73603 h 17.55814 c 41.59166,0 57.05909,-12.74931 57.05909,-53.71535 v -28.42526 c 0,-39.50093 -15.46743,-53.71358 -57.05909,-53.71358 h -17.55814 c -15.25532,0 -21.73425,6.47893 -21.73425,21.73782 z" /><path
       inkscape:connector-curvature="0"
       id="path5724"
       style="fill:#cccccc;fill-opacity:1;fill-rule:nonzero;stroke:none;stroke-width:1.78237212"
       d="m 791.60406,422.36597 c 0,3.97112 1.04447,5.01559 5.0156,5.01559 h 1.04443 c 3.97296,0 5.01744,-1.04447 5.01744,-5.01559 v -92.38213 c 0,-3.97113 -1.04448,-5.0156 -5.01744,-5.0156 h -1.04443 c -3.97113,0 -5.0156,1.04447 -5.0156,5.0156 z" /><path
       inkscape:connector-curvature="0"
       id="path5728"
       style="fill:#cccccc;fill-opacity:1;fill-rule:nonzero;stroke:none;stroke-width:1.78237212"
       d="m 905.24595,386.4173 c 0,21.10863 -6.89775,32.39462 -33.022,32.39462 -25.91743,0 -33.0256,-11.28599 -33.0256,-32.39462 v -20.48302 c 0,-21.11042 7.10817,-32.39639 33.0256,-32.39639 26.12425,0 33.022,11.28597 33.022,32.39639 z m -77.12504,-20.48302 v 20.48302 c 0,25.91569 11.28778,42.84466 44.10304,42.84466 33.43732,0 44.30806,-16.72043 44.30806,-42.84466 v -20.48302 c 0,-25.91747 -11.28606,-42.84644 -44.30806,-42.84644 -33.23409,0 -44.10304,16.72043 -44.10304,42.84644" /><path
       inkscape:connector-curvature="0"
       id="path5732"
       style="fill:#cccccc;fill-opacity:1;fill-rule:nonzero;stroke:none;stroke-width:1.78237212"
       d="m 947.82791,365.93393 c 0,-21.11042 6.89783,-32.3964 33.02384,-32.3964 26.12775,0 33.02375,11.28598 33.02375,32.3964 v 20.48302 c 0,21.10862 -6.896,32.39461 -33.02375,32.39461 -26.12601,0 -33.02384,-11.28599 -33.02384,-32.39461 z m 77.33359,0 c 0,-26.54488 -12.3322,-42.84645 -44.30975,-42.84645 -32.60677,0 -44.10129,16.30157 -44.10129,42.84645 v 20.27269 c 0,26.12601 10.66037,43.05498 43.05505,43.05498 18.81107,0 29.05269,-6.2686 34.06999,-16.72043 v 53.71535 c 0,3.9729 1.0463,5.01738 5.0156,5.01738 h 1.253 c 3.973,0 5.0174,-1.04448 5.0174,-5.01738 z" /><path
       inkscape:connector-curvature="0"
       id="path5736"
       style="fill:#cccccc;fill-opacity:1;fill-rule:nonzero;stroke:none;stroke-width:1.78237212"
       d="m 1057.7397,381.60988 h 62.2832 v 8.35933 c 0,21.31895 -12.3322,29.25942 -31.1415,29.25942 -19.4386,0 -31.1417,-7.94047 -31.1417,-29.25942 z m 72.3162,-4.80705 c -0.4189,-3.97291 -1.4634,-5.01738 -5.4345,-5.01738 h -66.8817 v -7.31307 c 0,-22.78228 10.4501,-30.93485 34.4854,-30.93485 13.1663,0 25.2901,2.92666 30.3074,4.59852 3.5523,1.25479 4.5985,0 4.5985,-3.76259 v -1.25301 c 0,-3.76258 -1.0462,-4.18144 -4.5985,-5.43445 -5.2259,-1.88218 -17.3479,-4.59852 -30.0971,-4.59852 -30.3075,0 -45.7731,11.70306 -45.7731,42.84645 v 20.48302 c 0,24.66267 10.0311,42.84465 42.4275,42.84465 25.9176,0 41.5934,-13.16638 41.5934,-40.33686 0,-5.8533 -0.4188,-10.24329 -0.6273,-12.12191" /></g></svg>