<?xml version="1.0" encoding="UTF-8" standalone="no"?>
<!-- Created with Inkscape (http://www.inkscape.org/) -->

<svg
   xmlns:dc="http://purl.org/dc/elements/1.1/"
   xmlns:cc="http://creativecommons.org/ns#"
   xmlns:rdf="http://www.w3.org/1999/02/22-rdf-syntax-ns#"
   xmlns:svg="http://www.w3.org/2000/svg"
   xmlns="http://www.w3.org/2000/svg"
   xmlns:sodipodi="http://sodipodi.sourceforge.net/DTD/sodipodi-0.dtd"
   xmlns:inkscape="http://www.inkscape.org/namespaces/inkscape"
   width="512"
   height="512"
   viewBox="0 0 135.46667 135.46666"
   version="1.1"
   id="svg3450"
   inkscape:version="0.92.3 (2405546, 2018-03-11)"
   sodipodi:docname="wallet-logo.svg"
   inkscape:export-filename="/home/dominicletz/projects/diode/MultiSigWallet/dapp/src/bundles/img/wallet-logo.svg.png"
   inkscape:export-xdpi="95.25164"
   inkscape:export-ydpi="95.25164">
  <defs
     id="defs3444" />
  <sodipodi:namedview
     id="base"
     pagecolor="#ffffff"
     bordercolor="#666666"
     borderopacity="1.0"
     inkscape:pageopacity="0.0"
     inkscape:pageshadow="2"
     inkscape:zoom="0.55371094"
     inkscape:cx="543.99635"
     inkscape:cy="168.00469"
     inkscape:document-units="mm"
     inkscape:current-layer="layer1"
     showgrid="false"
     fit-margin-top="0"
     fit-margin-left="0"
     fit-margin-right="0"
     fit-margin-bottom="0"
     inkscape:window-width="1853"
     inkscape:window-height="1025"
     inkscape:window-x="1920"
     inkscape:window-y="27"
     inkscape:window-maximized="1"
     units="px" />
  <metadata
     id="metadata3447">
    <rdf:RDF>
      <cc:Work
         rdf:about="">
        <dc:format>image/svg+xml</dc:format>
        <dc:type
           rdf:resource="http://purl.org/dc/dcmitype/StillImage" />
        <dc:title />
      </cc:Work>
    </rdf:RDF>
  </metadata>
  <g
     inkscape:label="Layer 1"
     inkscape:groupmode="layer"
     id="layer1"
     transform="translate(-42.072657,-30.549595)">
    <path
       style="opacity:1;fill:#f15c2e;fill-opacity:1;fill-rule:nonzero;stroke:none;stroke-width:13.08609581"
       d="m 421.1543,10.658203 c -27.47966,0 -49.75782,22.278096 -49.75782,49.757813 0,22.168267 14.51497,40.939664 34.5586,47.371094 -38.64605,7.02434 -68.10842,40.22448 -69.38477,80.5918 h 63.49805 v 81.61718 h 42.14844 v -81.61718 h 63.52148 c -1.27684,-40.36732 -30.73516,-73.56746 -69.37305,-80.5918 20.03547,-6.43143 34.54883,-25.202827 34.54883,-47.371094 0,-27.479717 -22.28003,-49.757813 -49.75976,-49.757813 z"
       transform="matrix(0.26458333,0,0,0.26458333,42.072657,30.549595)"
       id="path1270"
       inkscape:connector-curvature="0" />
    <path
       style="opacity:1;fill:#f15c2e;fill-opacity:1;fill-rule:nonzero;stroke:none;stroke-width:13.08609581"
       d="m 82.818359,10.658203 c -27.479659,0 -49.759765,22.278096 -49.759765,49.757813 0,22.168267 14.516914,40.939664 34.560547,47.371094 -38.646051,7.02434 -68.10841954,40.22448 -69.384766,80.5918 h 63.498047 v 72.04492 h 42.148438 v -72.04492 h 63.52148 c -1.27683,-40.36732 -30.73516,-73.56746 -69.373043,-80.5918 20.035463,-6.43143 34.548823,-25.202827 34.548823,-47.371094 0,-27.479717 -22.28003,-49.757813 -49.759761,-49.757813 z"
       transform="matrix(0.26458333,0,0,0.26458333,42.072657,30.549595)"
       id="path842"
       inkscape:connector-curvature="0" />
    <path
       style="opacity:1;fill:#f15c2e;fill-opacity:1;fill-rule:nonzero;stroke:none;stroke-width:13.08609581"
       d="m 251.98633,10.658203 c -27.47966,0 -49.75781,22.278096 -49.75781,49.757813 0,22.168267 14.51498,40.939664 34.55859,47.371094 -38.64592,7.02434 -68.10842,40.22448 -69.38477,80.5918 h 63.49805 v 81.61718 h 42.14844 v -81.61718 h 63.52148 c -1.27684,-40.36732 -30.73516,-73.56746 -69.37304,-80.5918 20.03546,-6.43143 34.54882,-25.202827 34.54882,-47.371094 0,-27.479717 -22.28003,-49.757813 -49.75976,-49.757813 z"
       transform="matrix(0.26458333,0,0,0.26458333,42.072657,30.549595)"
       id="path844"
       inkscape:connector-curvature="0" />
    <path
       style="fill:#999999;fill-opacity:1;fill-rule:nonzero;stroke:none;stroke-width:3.86993909"
       d="m 31.429688,244.0332 c -12.763087,0 -23.498664,8.71122 -26.6875005,20.40625 -0.6383698,2.33753 -0.9589844,4.78747 -0.9589844,7.33789 v 205.98438 c 0,15.31336 12.3331729,27.7539 27.6464849,27.7539 H 486.45898 c 15.31333,0 27.75391,-12.44054 27.75391,-27.7539 V 271.77734 c 0,-2.55042 -0.32444,-5.00036 -0.95898,-7.33789 -3.18879,-11.69503 -14.03581,-20.40625 -26.79493,-20.40625 z m 378.947262,76.59571 h 7.58594 v 3.64453 c 4.76772,0.66897 9.50524,2.64577 14.22266,5.93554 l -5.85743,8.44532 c -3.00684,-2.14795 -5.79186,-3.57497 -8.36523,-4.28711 v 10.29297 c 8.95121,2.32202 15.08203,5.8581 15.08203,14.875 0,8.67658 -6.42884,13.95251 -15.08203,14.94336 v 5.00781 h -7.58594 v -5.22656 c -6.06032,-0.95184 -11.63774,-3.68492 -16.74218,-8.2168 l 6.6582,-8.08008 c 3.71902,3.24287 7.0731,5.31708 10.08398,6.22266 V 353.5293 c -8.99758,-2.31402 -14.51953,-5.80464 -14.51953,-14.5586 0,-8.59513 6.2689,-13.83368 14.51953,-14.83593 z m 0,13.44336 c -2.05496,0.71671 -3.07226,2.03162 -3.07226,3.93945 0,1.90371 1.01835,3.35317 3.07226,4.35547 z m 7.58594,21.66992 v 8.79883 c 2.4302,-0.76645 3.64453,-2.24321 3.64453,-4.4336 0,-2.39542 -1.43838,-3.45199 -3.64453,-4.36523 z M 26.818359,466.02734 H 480.16406 v 2.55274 H 26.818359 Z"
       transform="matrix(0.26458333,0,0,0.26458333,42.072657,30.549595)"
       id="path1284-0"
       inkscape:connector-curvature="0" />
    <g
       id="g4610"
       transform="rotate(-179.83964,106.77868,136.1237)">
      <path
         inkscape:connector-curvature="0"
         id="path1308"
         style="fill:#f15c2e;fill-opacity:1;fill-rule:nonzero;stroke:none;stroke-width:0.57171214"
         d="m 158.43799,150.65634 c 0,1.00278 -0.81354,1.81633 -1.8169,1.81633 -9.01418,0 -16.34868,-7.33335 -16.34868,-16.34868 0,-7.01262 -5.70455,-12.71602 -12.71602,-12.71602 -7.01148,0 -12.71603,5.7034 -12.71603,12.71602 0,9.01533 -7.33392,16.34868 -16.348678,16.34868 -1.003355,0 -1.81633,-0.81355 -1.81633,-1.81633 0,-1.00279 0.812975,-1.81633 1.81633,-1.81633 7.011478,0 12.716018,-5.70397 12.716018,-12.71602 0,-9.01533 7.33394,-16.34926 16.34869,-16.34926 9.01533,0 16.34925,7.33393 16.34925,16.34926 0,7.01205 5.70455,12.71602 12.71545,12.71602 1.00336,0 1.8169,0.81354 1.8169,1.81633" />
      <path
         sodipodi:nodetypes="csssccsssc"
         d="m 102.34967,150.65634 c 0,1.00278 -0.81354,1.81633 -1.8169,1.81633 -9.014185,0 -16.348685,-7.33335 -16.348685,-16.34868 0,-7.01262 -5.70455,-12.71602 -12.71602,-12.71602 -7.01148,0 -12.71603,5.7034 -12.71603,12.71602 0,0 -2.386562,4.09806 -3.63266,0 0,-9.01533 7.33394,-16.34926 16.34869,-16.34926 9.01533,0 16.34925,7.33393 16.34925,16.34926 0,7.01205 5.70455,12.71602 12.715455,12.71602 1.00336,0 1.8169,0.81354 1.8169,1.81633"
         style="fill:#f15c2e;fill-opacity:1;fill-rule:nonzero;stroke:none;stroke-width:0.57171214"
         id="path4606"
         inkscape:connector-curvature="0" />
    </g>
  </g>
</svg>
