<svg xmlns="http://www.w3.org/2000/svg" viewBox="0 0 32 32"><path fill="#f05c2e" d="M16 31.49c-6.31 0-11.44-5.13-11.44-11.44v-8.1C4.56 5.64 9.69.51 16 .51s11.44 5.13 11.44 11.44v8.1c0 6.31-5.13 11.44-11.44 11.44Z"/><path fill="#fff" d="M13.24 24.12c-1.96 0-2.84-.88-2.84-2.84V10.27c0-1.96.88-2.84 2.84-2.84h2.09c5.2 0 7.05 1.74 7.05 6.65v3.39c0 4.85-1.91 6.65-7.05 6.65h-2.09Zm.12-14.89c-.81 0-1.1.29-1.1 1.09v10.91c0 .81.29 1.09 1.1 1.09h1.97c4.05 0 5.15-1.04 5.15-4.85v-3.39c0-3.77-1.16-4.85-5.15-4.85h-1.97Z"/><path fill="#fff" d="M10.65 10.27c0-1.82.77-2.59 2.59-2.59h2.09c4.96 0 6.8 1.52 6.8 6.4v3.39c0 4.71-1.84 6.4-6.8 6.4h-2.09c-1.82 0-2.59-.77-2.59-2.59V10.27Zm10.09 7.2v-3.39c0-3.76-1.12-5.11-5.4-5.11h-1.97c-.95 0-1.34.4-1.34 1.34v10.91c0 .95.4 1.34 1.34 1.34h1.97c4.28 0 5.4-1.27 5.4-5.11Z"/></svg>