<svg xmlns="http://www.w3.org/2000/svg" width="960" height="960" version="1.0" viewBox="0 0 720 720"><path d="M340.5.6c-1.6.2-7.3.9-12.5 1.5-56.5 6.3-110.8 32.4-152.9 73.4-43 41.9-68.7 91.6-78.4 152-2.2 13.9-2.2 14.5-2.2 132 0 128-.1 125.2 5.6 151 18.2 82.1 74.7 151.8 150.9 186 60.4 27.1 128.9 30.7 191.5 10 42.7-14.1 76.5-35.2 108-67.6 40.2-41.3 64.3-90.4 73.2-149.4 1.7-11.1 1.8-21.2 1.8-129.5s-.1-118.4-1.8-129.5c-8.9-59.1-32.9-108-73.2-149.4C508.6 38 457.9 11.9 398.8 2.9 386.2 1 348.5-.5 340.5.6zM489 266.5V407H325v-94h70V126h94v140.5zM301.8 407.2l.2 93.8h93l.2-34.8.3-34.7 46.8-.3 46.7-.2v163H208V454.2c0-76.9.3-140.2.7-140.5.3-.4 21.4-.6 46.7-.5l46.1.3.3 93.7z"/></svg>