<?xml version="1.0" standalone="no"?>
<!DOCTYPE svg PUBLIC "-//W3C//DTD SVG 20010904//EN"
 "http://www.w3.org/TR/2001/REC-SVG-20010904/DTD/svg10.dtd">
<svg version="1.0" xmlns="http://www.w3.org/2000/svg"
 width="700.000000pt" height="700.000000pt" viewBox="0 0 700.000000 700.000000"
 preserveAspectRatio="xMidYMid meet">
<metadata>
Created by potrace 1.14, written by Peter Selinger 2001-2017
</metadata>
<g transform="translate(0.000000,700.000000) scale(0.100000,-0.100000)"
fill="#000000" stroke="none">
<path d="M3280 6880 c-881 -86 -1640 -608 -2024 -1394 -134 -273 -207 -518
-241 -814 -22 -187 -22 -2157 0 -2344 55 -470 241 -914 541 -1288 321 -399
794 -708 1293 -841 991 -266 2032 93 2652 916 262 349 433 776 484 1211 22
191 22 2157 0 2348 -54 463 -244 915 -541 1286 -103 129 -296 316 -432 418
-343 258 -728 421 -1144 483 -155 23 -448 32 -588 19z m425 -1520 c633 -59
972 -293 1110 -765 65 -223 85 -469 85 -1045 0 -567 -20 -812 -85 -1035 -120
-412 -394 -645 -870 -740 -213 -42 -323 -49 -775 -49 -409 0 -428 1 -505 22
-195 54 -292 142 -351 318 -42 126 -46 261 -41 1599 4 1355 1 1292 66 1432 60
128 188 224 341 257 80 18 853 22 1025 6z"/>
<path d="M2820 4971 c-63 -20 -92 -43 -113 -89 l-22 -47 0 -1290 0 -1290 25
-44 c14 -25 41 -54 60 -65 34 -20 49 -21 470 -21 376 0 450 3 545 19 221 37
370 100 470 201 128 130 188 291 214 575 14 147 14 1100 1 1245 -47 509 -229
713 -705 791 -78 13 -189 17 -510 20 -225 2 -421 0 -435 -5z"/>
</g>
</svg>
