<svg width="421" height="45" viewBox="0 0 421 45" fill="none" xmlns="http://www.w3.org/2000/svg">
<path d="M140.202 27.9294L139.458 38.3994C140.523 38.3994 140.984 37.9419 141.537 37.3925L146.53 32.6206L156.876 40.1975C158.774 41.255 160.111 40.6981 160.623 38.4519L167.414 6.62937L167.416 6.62749C168.018 3.82249 166.401 2.72562 164.553 3.41374L124.634 18.6969C121.909 19.7544 121.951 21.2731 124.171 21.9612L134.376 25.1356L158.082 10.3025C159.198 9.56375 160.212 9.97249 159.378 10.7112L140.202 27.9294Z" fill="white"/>
<path d="M292.902 9.14985C291.228 9.88391 289.445 10.3705 287.586 10.6067C289.499 9.46485 290.958 7.67047 291.645 5.50766C289.861 6.57079 287.893 7.32172 285.795 7.74079C284.101 5.93797 281.688 4.82141 279.056 4.82141C273.948 4.82141 269.836 8.96704 269.836 14.0492C269.836 14.7805 269.898 15.4836 270.05 16.153C262.381 15.7789 255.594 12.103 251.035 6.50329C250.239 7.88422 249.772 9.46485 249.772 11.1664C249.772 14.3614 251.417 17.1936 253.87 18.8333C252.388 18.8052 250.934 18.3748 249.702 17.697C249.702 17.7252 249.702 17.7617 249.702 17.7983C249.702 22.2814 252.9 26.0052 257.093 26.863C256.342 27.0683 255.524 27.1667 254.674 27.1667C254.084 27.1667 253.487 27.133 252.928 27.0092C254.123 30.6627 257.515 33.3486 261.548 33.4358C258.409 35.8911 254.424 37.3705 250.11 37.3705C249.353 37.3705 248.627 37.3367 247.902 37.2439C251.988 39.8792 256.831 41.3839 262.054 41.3839C279.031 41.3839 288.312 27.3214 288.312 15.132C288.312 14.7242 288.298 14.3305 288.278 13.9395C290.109 12.6402 291.647 11.0173 292.902 9.14985Z" fill="white"/>
<path d="M396.737 0C383.765 0 373.259 10.3303 373.259 23.071C373.259 33.2662 379.985 41.912 389.312 44.9602C390.486 45.1774 390.916 44.4632 390.916 43.8509C390.916 43.303 390.897 41.8513 390.887 39.9281C384.356 41.3192 382.979 36.8329 382.979 36.8329C381.911 34.1701 380.367 33.458 380.367 33.458C378.24 32.0278 380.531 32.0571 380.531 32.0571C382.889 32.2176 384.127 34.4343 384.127 34.4343C386.221 37.9618 389.623 36.9425 390.965 36.3536C391.176 34.8608 391.781 33.8454 392.452 33.2682C387.238 32.691 381.758 30.7072 381.758 21.8677C381.758 19.3497 382.668 17.2915 384.174 15.6774C383.91 15.0943 383.118 12.7485 384.38 9.57116C384.38 9.57116 386.346 8.95291 390.836 11.9366C392.714 11.424 394.71 11.1696 396.706 11.1579C398.701 11.1696 400.697 11.424 402.575 11.9366C407.036 8.95291 409.002 9.57116 409.002 9.57116C410.264 12.7485 409.472 15.0943 409.237 15.6774C410.734 17.2915 411.643 19.3497 411.643 21.8677C411.643 30.7306 406.155 32.6813 400.932 33.2486C401.753 33.9412 402.516 35.3558 402.516 37.5177C402.516 40.605 402.487 43.0859 402.487 43.8352C402.487 44.4398 402.898 45.1617 404.101 44.9309C413.494 41.9022 420.215 33.2506 420.215 23.071C420.215 10.3303 409.702 0 396.737 0V0Z" fill="white"/>
<path d="M41.3182 12.6577C40.8321 10.8504 39.4071 9.42571 37.6 8.93905C34.2987 8.03577 21.0932 8.03577 21.0932 8.03577C21.0932 8.03577 7.88827 8.03577 4.58696 8.9048C2.81465 9.39095 1.35492 10.8507 0.868778 12.6577C0 15.9588 0 22.8047 0 22.8047C0 22.8047 0 29.6852 0.868778 32.9517C1.35544 34.7588 2.77988 36.1835 4.58722 36.6702C7.92303 37.5737 21.0937 37.5737 21.0937 37.5737C21.0937 37.5737 34.2987 37.5737 37.6 36.7047C39.4074 36.2183 40.8321 34.7936 41.3187 32.9865C42.1872 29.6852 42.1872 22.8395 42.1872 22.8395C42.1872 22.8395 42.222 15.9588 41.3182 12.6577ZM16.8889 29.1293V16.4802L27.8699 22.8047L16.8889 29.1293Z" fill="white"/>
</svg>
