<svg xmlns="http://www.w3.org/2000/svg" width="30" height="28" fill="none"><path fill="#F15D2F" d="M14.857 0C6.787 0 .25 6.428.25 14.355c0 6.344 4.185 11.724 9.989 13.62.73.135.998-.309.998-.69 0-.34-.012-1.244-.018-2.44-4.064.865-4.921-1.927-4.921-1.927-.665-1.657-1.625-2.1-1.625-2.1-1.324-.89.102-.871.102-.871 1.467.1 2.238 1.479 2.238 1.479 1.302 2.195 3.42 1.56 4.254 1.194.132-.929.508-1.56.925-1.92-3.244-.359-6.654-1.593-6.654-7.093 0-1.567.566-2.848 1.504-3.852-.165-.363-.658-1.823.128-3.8 0 0 1.223-.384 4.017 1.472a14.262 14.262 0 0 1 3.652-.484c1.242.007 2.484.165 3.652.484 2.776-1.856 4-1.472 4-1.472.784 1.977.291 3.437.145 3.8.932 1.004 1.498 2.285 1.498 3.852 0 5.514-3.415 6.728-6.665 7.081.51.431.986 1.311.986 2.656 0 1.921-.019 3.465-.019 3.931 0 .376.256.826 1.005.682 5.844-1.884 10.026-7.268 10.026-13.602C29.466 6.428 22.925 0 14.857 0Z"/></svg>