<svg v-if="typeof (usageHistory) != 'string'" id="head"
    xmlns="http://www.w3.org/2000/svg"
    xmlns:xlink="http://www.w3.org/1999/xlink" version="1.1" font-family="Helvetica, Arial" width="760" height="401" viewBox="-28 0 692 401">

    <!-- image background -->
    <rect id="imagebackground" x="0" y="0" width="692" height="401" stroke-width="1" stroke="none" fill="white" />

    <defs>
        <!-- x-axis grid lines, vertical -->
        <pattern id="x-gridline" x="0" y="0" height="350" width="83.333" patternUnits="userSpaceOnUse">
            <line x1="0" y1="0" x2="0" y2="350" class="gridline" />
        </pattern>
        <!-- y-axis grid lines, horizontal -->
        <pattern id="y-gridline" x="0" y="0" height="21.875" width="500" patternUnits="userSpaceOnUse">
            <line x1="0" y1="0" x2="500" y2="0" class="gridline" />
        </pattern>
    </defs>

    <g transform="scale(1, -1) translate(54, -362)">
        <rect id="x-gridline-area" x="0" y="0" width="505" height="350" fill="url(#x-gridline)" />
        <rect id="y-gridline-area" x="0" y="0" width="500" height="353.5" fill="url(#y-gridline)" />
    </g>

    <!-- == axis marks == -->

    <defs>
        <!-- x-axis mark -->
        <pattern id="x-axismark-main" x="0" width="83.333" height="6" patternUnits="userSpaceOnUse">
            <line x1="0" y1="0" x2="0" y2="6" class="axismark-main" />
        </pattern>

        <!-- y-axis mark -->
        <pattern id="y-axismark-main" y="0" width="6" height="21.875" patternUnits="userSpaceOnUse">
            <line x1="-1" y1="0" x2="6" y2="0" class="axismark-main" />
        </pattern>
    </defs>

    <g transform="scale(1, -1) translate(54, -362)">
        <rect id="x-axismark" x="0" y="-6" width="505" height="6" fill="url(#x-axismark-main)" />
        <rect id="y-axismark" x="-6" y="0" width="6" height="353.5" fill="url(#y-axismark-main)" />
    </g>

    <!-- == axis texts == -->

    <g id="axis-x-values" class="axisnumber-x" transform="translate(54, 389)" text-anchor="middle">
        <text v-for=" i  in  [...Array(7).keys()] " :x=" chart.scale(0, 500, i / 6) ">
            <% chart.time(i/6) %>
</text>
</g>

<g id="axis-y-values" class="axisnumber-y" transform="translate(42, 367)" text-anchor="end">
                <text v-for=" i  in  [...Array(17).keys()] " :y=" -chart.scale(0, 350, i / 16) ">
                    <% chart.value(i/16) %>
</text>
</g>
<g id="axis-y-values2" class="axisnumber-y" transform="translate(554, 367)" text-anchor="start">
                        <text v-for=" i  in  [...Array(17).keys()] " :y=" -chart.scale(0, 350, i / 16) ">
                            <% deviceChart.value(i/16) %>
</text>
</g>


<!-- == graph bars and lines == -->

<g id="graphs" transform="scale(1, -1) translate(54, -362)">
                                <polyline id="graph2" class="series-lines-general series2" :points=" chart.points " />
                                <polyline id="graph1" class="series-lines-general series1" :points=" deviceChart.points " />
                            </g>

                            <!-- == axis lines == -->

                            <g transform="scale(1, -1) translate(54, -362)">
                                <line id="x-axis" x1="0" y1="0" x2="500" y2="0" class="axisline-x" />
                                <line id="y-axis" x1="0" y1="0" x2="0" y2="350" class="axisline-y" />
                            </g>

                            <!-- == legend == -->

                            <g id="legend" transform="translate(563, 47)">
                                <rect id="legend-background" class="legendbox" x="0" y="0" width="123" height="54" />

                                <polyline id="legend-line1" class="series-lines-general series1" transform="scale(1, -1)" points="6,-14 21,-14 36,-14" />
                                <text id="legend-text1" class="legendtext" x="42" y="21">Devices</text>

                                <polyline id="legend-line2" class="series-lines-general series2" transform="scale(1, -1)" points="6,-35 21,-35 36,-35" />
                                <text id="legend-text2" class="legendtext" x="42" y="42">Bandwidth</text>
                            </g>
                        </svg>