<svg xmlns="http://www.w3.org/2000/svg" width="129" height="42" fill="none"><path fill="#F15D2F" d="M23.54 25.793v-7.918c0-8.792-2.615-11.936-12.612-11.936H6.336c-2.209 0-3.14.931-3.14 3.144v25.501c0 2.212.931 3.144 3.14 3.144h4.592c9.997 0 12.612-2.969 12.612-11.935ZM0 8.966c0-4.25 1.802-6.055 6.045-6.055h4.883c11.566 0 15.868 3.552 15.868 14.963v7.919c0 11.003-4.302 14.963-15.868 14.963H6.045C1.802 40.756 0 38.951 0 34.701V8.966ZM34.702 13.625c0-1.107.29-1.398 1.395-1.398h.29c1.105 0 1.395.291 1.395 1.398v25.734c0 1.106-.29 1.397-1.395 1.397h-.29c-1.105 0-1.395-.29-1.395-1.397V13.625ZM66.306 23.639c0-5.88-1.919-9.025-9.184-9.025-7.208 0-9.184 3.144-9.184 9.025v5.705c0 5.88 1.976 9.025 9.184 9.025 7.265 0 9.184-3.144 9.184-9.025V23.64Zm-21.45 5.705V23.64c0-7.22 3.14-11.936 12.266-11.936 9.3 0 12.322 4.658 12.322 11.936v5.705c0 7.22-3.138 11.936-12.322 11.936-9.242 0-12.265-4.658-12.265-11.936ZM78.148 29.344c0 5.88 1.918 9.025 9.184 9.025 7.265 0 9.184-3.144 9.184-9.025V23.64c0-5.88-1.919-9.025-9.184-9.025-7.266 0-9.184 3.144-9.184 9.025v5.705Zm21.506 0c0 7.395-3.43 11.936-12.322 11.936-9.069 0-12.265-4.54-12.265-11.936v-5.647c0-7.278 2.965-11.994 11.974-11.994 5.231 0 8.08 1.746 9.475 4.658V1.398C96.516.29 96.806 0 97.91 0h.349c1.105 0 1.395.291 1.395 1.398v27.946ZM108.714 24.978h17.322v-2.33c0-5.938-3.43-8.15-8.661-8.15-5.406 0-8.661 2.212-8.661 8.15v2.33Zm20.111 1.339c-.116 1.106-.406 1.397-1.511 1.397h-18.6v2.038c0 6.346 2.907 8.617 9.591 8.617 3.662 0 7.033-.816 8.428-1.28.988-.35 1.279 0 1.279 1.047v.35c0 1.047-.291 1.164-1.279 1.513-1.453.524-4.824 1.28-8.37 1.28-8.428 0-12.729-3.26-12.729-11.935V23.64c0-6.87 2.789-11.936 11.799-11.936 7.208 0 11.567 3.668 11.567 11.237 0 1.63-.116 2.853-.175 3.377Z"/></svg>