<?xml version="1.0" encoding="UTF-8" standalone="no"?>
<!-- Created with Inkscape (http://www.inkscape.org/) -->

<svg
   width="137.32492mm"
   height="16.610163mm"
   viewBox="0 0 137.32492 16.610163"
   version="1.1"
   id="svg5"
   xml:space="preserve"
   inkscape:version="1.2.2 (b0a84865, 2022-12-01)"
   sodipodi:docname="axellio.svg"
   xmlns:inkscape="http://www.inkscape.org/namespaces/inkscape"
   xmlns:sodipodi="http://sodipodi.sourceforge.net/DTD/sodipodi-0.dtd"
   xmlns="http://www.w3.org/2000/svg"
   xmlns:svg="http://www.w3.org/2000/svg"><sodipodi:namedview
     id="namedview7"
     pagecolor="#ffffff"
     bordercolor="#000000"
     borderopacity="0.25"
     inkscape:showpageshadow="2"
     inkscape:pageopacity="0.0"
     inkscape:pagecheckerboard="0"
     inkscape:deskcolor="#d1d1d1"
     inkscape:document-units="mm"
     showgrid="false"
     inkscape:zoom="1.0255231"
     inkscape:cx="244.75315"
     inkscape:cy="226.22602"
     inkscape:window-width="1390"
     inkscape:window-height="964"
     inkscape:window-x="0"
     inkscape:window-y="25"
     inkscape:window-maximized="0"
     inkscape:current-layer="layer1" /><defs
     id="defs2" /><g
     inkscape:label="Layer 1"
     inkscape:groupmode="layer"
     id="layer1"
     transform="translate(-38.513613,-86.829277)"><path
       style="fill:#d0d0d0;fill-opacity:1;stroke-width:0.15398"
       d="m 67.233312,103.33739 c 0.105862,-0.0427 0.279089,-0.0427 0.384951,0 0.105861,0.0427 0.01925,0.0777 -0.192476,0.0777 -0.211722,0 -0.298336,-0.035 -0.192475,-0.0777 z m 99.172838,-0.003 c 0.11115,-0.0445 0.24396,-0.039 0.29512,0.0121 0.0512,0.0512 -0.0398,0.0876 -0.20209,0.0809 -0.17938,-0.007 -0.21587,-0.0439 -0.093,-0.093 z m 1.38582,0 c 0.11115,-0.0445 0.24396,-0.039 0.29513,0.0121 0.0512,0.0512 -0.0398,0.0876 -0.2021,0.0809 -0.17938,-0.007 -0.21587,-0.0439 -0.093,-0.093 z m -76.845716,-0.16154 c 0.359929,-0.0324 0.948903,-0.0324 1.308831,0 0.359929,0.0324 0.06544,0.0589 -0.654415,0.0589 -0.719857,0 -1.014344,-0.0265 -0.654416,-0.0589 z m 8.006967,0 c 0.359929,-0.0324 0.948903,-0.0324 1.308829,0 0.35993,0.0324 0.0654,0.0589 -0.654413,0.0589 -0.719857,0 -1.014344,-0.0265 -0.654416,-0.0589 z m 18.862569,6.1e-4 c 0.31758,-0.0332 0.83726,-0.0332 1.15485,0 0.31758,0.0332 0.0577,0.0604 -0.57743,0.0604 -0.63517,0 -0.89501,-0.0272 -0.57742,-0.0604 z m 17.94275,-7.7e-4 c 0.36217,-0.0325 0.9165,-0.0321 1.23184,10e-4 0.31535,0.0331 0.019,0.0597 -0.65848,0.0591 -0.67751,-6.1e-4 -0.93552,-0.0276 -0.57336,-0.0602 z m 13.94644,-2.9667 c 0,-0.719858 0.0265,-1.014338 0.059,-0.654408 0.0324,0.35992 0.0324,0.948898 0,1.308828 -0.0324,0.35993 -0.059,0.0654 -0.059,-0.65442 z M 70.387134,98.512002 c 0,-0.29641 0.03169,-0.41767 0.07042,-0.26947 0.03873,0.14821 0.03873,0.39073 0,0.53893 -0.03873,0.14821 -0.07042,0.0269 -0.07042,-0.26946 z m 1.539801,-0.15398 c 0,-0.29641 0.03169,-0.41767 0.07042,-0.26947 0.03873,0.14821 0.03873,0.39073 0,0.53893 -0.03873,0.14821 -0.07042,0.0269 -0.07042,-0.26946 z m 19.327279,-2.42245 c 0.359929,-0.0324 0.948903,-0.0324 1.308832,0 0.359928,0.0324 0.06544,0.0589 -0.654416,0.0589 -0.719857,0 -1.014344,-0.0265 -0.654416,-0.0589 z m 7.237067,0 c 0.359929,-0.0324 0.948903,-0.0324 1.308831,0 0.359928,0.0324 0.06544,0.0589 -0.654415,0.0589 -0.719858,0 -1.014345,-0.0265 -0.654416,-0.0589 z m -9.084828,-1.84776 c 0.359928,-0.0324 0.948902,-0.0324 1.308831,0 0.359928,0.0324 0.06544,0.0589 -0.654416,0.0589 -0.719857,0 -1.014344,-0.0265 -0.654415,-0.0589 z m 69.187737,-0.43902 c 0.007,-0.17938 0.0439,-0.21586 0.093,-0.093 0.0445,0.11116 0.039,0.24396 -0.0121,0.29513 -0.0512,0.0512 -0.0876,-0.0398 -0.0809,-0.2021 z m 17.09178,0 c 0.007,-0.17938 0.0439,-0.21586 0.093,-0.093 0.0445,0.11116 0.039,0.24396 -0.0122,0.29513 -0.0512,0.0512 -0.0876,-0.0398 -0.0809,-0.2021 z M 70.387134,91.736872 c 0,-0.29641 0.03169,-0.41767 0.07042,-0.26946 0.03873,0.1482 0.03873,0.39072 0,0.53893 -0.03873,0.1482 -0.07042,0.0269 -0.07042,-0.26947 z m 1.539801,0 c 0,-0.29641 0.03169,-0.41767 0.07042,-0.26946 0.03873,0.1482 0.03873,0.39072 0,0.53893 -0.03873,0.1482 -0.07042,0.0269 -0.07042,-0.26947 z m 57.760625,-1.5398 c 0,-0.71986 0.0265,-1.01434 0.059,-0.65441 0.0324,0.35992 0.0324,0.9489 0,1.30883 -0.0324,0.35993 -0.059,0.0654 -0.059,-0.65442 z m 18.01568,-0.30796 c 0,-0.71986 0.0265,-1.01434 0.0589,-0.65441 0.0324,0.35992 0.0324,0.9489 0,1.30883 -0.0324,0.35993 -0.0589,0.0654 -0.0589,-0.65442 z m -35.87737,-0.15398 c 0,-0.71986 0.0265,-1.01434 0.0589,-0.65441 0.0324,0.35992 0.0324,0.9489 0,1.30883 -0.0324,0.35992 -0.0589,0.0654 -0.0589,-0.65442 z m -20.725636,-1.03663 c 0.359929,-0.0324 0.948903,-0.0324 1.308831,0 0.359929,0.0324 0.06544,0.0589 -0.654415,0.0589 -0.719857,0 -1.014344,-0.0265 -0.654416,-0.0589 z m 7.545027,0 c 0.359929,-0.0324 0.948903,-0.0324 1.308831,0 0.359928,0.0324 0.06544,0.0589 -0.654415,0.0589 -0.719857,0 -1.014344,-0.0265 -0.654416,-0.0589 z m -52.343624,-1.68622 c 0.111153,-0.0445 0.243961,-0.039 0.295129,0.0122 0.05117,0.0512 -0.03978,0.0876 -0.202099,0.0809 -0.179379,-0.007 -0.215865,-0.0439 -0.09303,-0.093 z m 0.923881,0 c 0.111153,-0.0445 0.243961,-0.039 0.295129,0.0122 0.05117,0.0512 -0.03978,0.0876 -0.202099,0.0809 -0.179379,-0.007 -0.215865,-0.0439 -0.09303,-0.093 z m 20.161774,0.003 c 0.105862,-0.0427 0.279089,-0.0427 0.384951,0 0.105861,0.0427 0.01925,0.0777 -0.192475,0.0777 -0.211723,0 -0.298337,-0.035 -0.192476,-0.0777 z m 7.237067,0 c 0.105861,-0.0427 0.279089,-0.0427 0.38495,0 0.105862,0.0427 0.01925,0.0777 -0.192475,0.0777 -0.211722,0 -0.298336,-0.035 -0.192475,-0.0777 z m 91.618181,-0.15398 c 0.10586,-0.0427 0.27909,-0.0427 0.38495,0 0.10586,0.0427 0.0192,0.0777 -0.19247,0.0777 -0.21173,0 -0.29834,-0.0349 -0.19248,-0.0777 z m 1.5398,0 c 0.10586,-0.0427 0.27909,-0.0427 0.38495,0 0.10586,0.0427 0.0192,0.0777 -0.19247,0.0777 -0.21172,0 -0.29834,-0.0349 -0.19248,-0.0777 z"
       id="path197" /><path
       style="fill:#a7a9ac;fill-opacity:1;stroke-width:0.15398"
       d="m 66.311227,103.33046 c 0.191537,-0.0368 0.468702,-0.0354 0.61592,0.003 0.147219,0.0385 -0.0095,0.0687 -0.34825,0.067 -0.338757,-0.002 -0.459208,-0.0333 -0.26767,-0.0701 z m 99.589603,-0.0573 c -3.93299,-0.59515 -6.6334,-3.17286 -7.23049,-6.901938 -0.29703,-1.85507 0.10754,-4.01297 1.05555,-5.63014 0.56553,-0.96472 2.11839,-2.34948 3.20029,-2.85387 4.91449,-2.29116 10.74553,-0.32903 12.37066,4.1627 1.74068,4.81117 -0.86009,9.821708 -5.70523,10.991438 -1.29194,0.31191 -2.61312,0.39489 -3.69078,0.23181 z m 2.90245,-1.91417 c 1.83797,-0.47873 3.39971,-1.783088 4.28208,-3.576388 0.48365,-0.98293 0.5097,-1.12276 0.5091,-2.73242 0,-1.67561 -0.008,-1.71029 -0.59937,-2.8183 -2.55785,-4.79252 -9.13454,-4.71352 -11.66796,0.14016 -0.49392,0.94627 -0.51239,1.04548 -0.51239,2.75243 0,1.7297 0.0125,1.79398 0.53818,2.77164 1.53427,2.853328 4.49941,4.231508 7.45036,3.462878 z m -130.260644,1.66073 c 0.04854,-0.15028 1.601974,-3.699008 3.452067,-7.886058 2.286603,-5.17494 3.471679,-7.68444 3.700668,-7.83649 0.193196,-0.12827 0.701532,-0.22367 1.191909,-0.22367 0.697718,0 0.922058,0.0678 1.219243,0.36846 0.203715,0.20609 1.799501,3.6592 3.621483,7.83649 1.791507,4.10742 3.325346,7.595848 3.408534,7.752068 0.131875,0.24766 0.105179,0.27073 -0.208423,0.18015 -0.890801,-0.2573 -2.013278,-0.91795 -2.382827,-1.40246 -0.222093,-0.29118 -1.574027,-3.280498 -3.004296,-6.642948 -1.430271,-3.36245 -2.657717,-6.17076 -2.727661,-6.24071 -0.06994,-0.0699 -1.321907,2.69957 -2.782141,6.15447 -2.956194,6.994328 -3.131025,7.284608 -4.760384,7.903708 -0.760891,0.28912 -0.810428,0.29164 -0.728172,0.037 z m 52.723781,0.13587 c -1.807703,-0.11128 -2.181458,-0.29489 -2.541387,-1.24845 l -0.177212,-0.46949 h 6.99272 c 3.845997,0 6.992462,0.052 6.992142,0.11549 -3.1e-4,0.0635 -0.13559,0.33691 -0.30061,0.60755 -0.58246,0.95527 -0.62907,0.96457 -5.176495,1.03334 -2.280341,0.0345 -4.885462,0.0172 -5.789158,-0.0384 z m 20.534093,-7.374458 c 0.0775,-8.40717 0.0428,-8.1438 1.13344,-8.5995 1.07013,-0.44713 0.99384,-0.98592 0.99384,7.01896 v 7.237058 h 3.70706 3.70706 l -0.36052,0.65355 c -0.19829,0.35946 -0.54616,0.74253 -0.77305,0.85128 -0.28484,0.13652 -1.66064,0.22796 -4.445,0.29545 l -4.03248,0.0977 z m 17.86388,0.14811 c 0.0786,-7.90944 0.0817,-7.93885 0.89325,-8.52148 0.21173,-0.152 0.5755,-0.32165 0.8084,-0.377 l 0.42344,-0.10063 v 7.25376 7.253758 h 3.7059 3.7059 l -0.0993,0.34646 c -0.0546,0.19055 -0.32298,0.56026 -0.59642,0.82158 -0.49282,0.47099 -0.51579,0.47603 -2.63012,0.57743 -1.17312,0.0563 -3.06698,0.10229 -4.20858,0.10229 h -2.07563 z m 18.01386,-0.0799 c 0.0627,-6.68411 0.0975,-7.51183 0.33075,-7.86778 0.30935,-0.47213 0.79045,-0.80412 1.37272,-0.94728 l 0.42344,-0.10411 -0.0126,5.75246 c -0.007,3.16385 -0.0611,6.59641 -0.12036,7.627918 -0.13073,2.27432 -0.2251,2.43527 -1.69701,2.89428 l -0.36711,0.11449 0.0701,-7.469978 z m -77.277555,1.27691 c 0,-0.55048 0.02795,-0.77568 0.0621,-0.50044 0.03416,0.27524 0.03416,0.72563 0,1.00087 -0.03416,0.27524 -0.0621,0.05 -0.0621,-0.50043 z m 1.53823,-0.077 c 9.24e-4,-0.50814 0.02961,-0.69745 0.06388,-0.42069 0.03427,0.27676 0.03356,0.6925 -0.0016,0.92388 -0.03513,0.23138 -0.06317,0.005 -0.06231,-0.50319 z m 19.558392,-1.13148 c -1.549165,-0.0904 -1.761067,-0.13863 -2.131857,-0.48531 -0.226442,-0.21173 -0.505381,-0.56494 -0.619865,-0.78492 l -0.208154,-0.39997 2.094891,-0.10047 c 1.15219,-0.0553 4.305919,-0.10047 7.008286,-0.10047 h 4.913392 l -0.1034,0.34646 c -0.18711,0.62693 -0.54955,1.06188 -1.06397,1.27682 -0.59397,0.24818 -7.092273,0.41105 -9.889323,0.24786 z m -21.096622,-2.79502 c 0,-0.55048 0.02795,-0.77567 0.0621,-0.50043 0.03416,0.27524 0.03416,0.72563 0,1.00087 -0.03416,0.27524 -0.0621,0.05 -0.0621,-0.50044 z m 1.53823,-0.077 c 9.24e-4,-0.50813 0.02961,-0.69744 0.06388,-0.42068 0.03427,0.27675 0.03356,0.6925 -0.0016,0.92388 -0.03513,0.23138 -0.06317,0.005 -0.06231,-0.5032 z m 19.507765,-4.36795 c -0.889236,-0.0574 -1.77247,-0.19178 -1.962744,-0.29856 -0.190275,-0.10679 -0.486169,-0.46901 -0.657546,-0.80493 l -0.311592,-0.61077 h 7.009226 c 3.855073,0 7.009226,0.059 7.009226,0.13121 0,0.28307 -0.72539,1.18771 -1.0949,1.36546 -0.46665,0.22447 -7.509937,0.37785 -9.99167,0.21759 z m -24.981483,-1.66919 c 0.191537,-0.0368 0.468702,-0.0354 0.615921,0.003 0.147218,0.0385 -0.0095,0.0687 -0.348251,0.067 -0.338756,-0.002 -0.459207,-0.0332 -0.26767,-0.0701 z m 8.930848,0 c 0.191538,-0.0368 0.468702,-0.0354 0.615921,0.003 0.147219,0.0385 -0.0095,0.0687 -0.348251,0.067 -0.338756,-0.002 -0.459207,-0.0332 -0.26767,-0.0701 z"
       id="path195" /><path
       style="fill:#919396;fill-opacity:1;stroke-width:0.15398"
       d="m 65.513982,99.403712 c 1.50005,-2.21962 2.754902,-4.14244 2.788561,-4.27295 0.03366,-0.13051 -1.139881,-2.00422 -2.607867,-4.16379 l -2.66906,-3.92649 1.160719,-0.0428 c 0.638397,-0.0236 1.747704,0.0111 2.465128,0.077 l 1.304407,0.11981 1.21956,2.0569 1.21956,2.05689 v 3.79685 3.79684 l -1.32704,2.168628 -1.327039,2.16862 -1.273918,0.0992 c -0.700654,0.0545 -1.81537,0.0996 -2.477146,0.10009 l -1.203229,9.3e-4 2.727364,-4.035658 z m 9.060204,3.687998 c -0.09111,-0.18989 -0.70807,-1.22851 -1.371016,-2.30804 l -1.205356,-1.962778 0.0046,-3.73449 0.0046,-3.73448 1.254439,-2.10225 1.254439,-2.10226 1.728793,-0.10499 c 0.950835,-0.0577 2.056039,-0.0818 2.45601,-0.0535 l 0.727223,0.0515 -2.626192,3.8495 c -1.444404,2.11723 -2.660198,3.93005 -2.701763,4.02849 -0.07053,0.16704 4.704624,7.412348 5.387516,8.174438 l 0.31045,0.34645 -2.529019,-0.001 c -2.467606,-0.001 -2.53304,-0.01 -2.694676,-0.34645 z"
       id="path193" /></g></svg>
