<svg xmlns="http://www.w3.org/2000/svg" width="220" height="67" fill="none"><path fill="#BCBEC0" d="M55.637 38.375c-.764-.437-1.42-1.038-1.856-1.802-.437-.765-.655-1.584-.655-2.566 0-.929.218-1.802.655-2.567a4.544 4.544 0 0 1 1.856-1.801c.764-.437 1.693-.656 2.62-.656.765 0 1.475.11 2.076.383.655.273 1.146.655 1.638 1.146l-.928.874c-.71-.765-1.639-1.147-2.73-1.147-.71 0-1.366.164-1.966.492a3.29 3.29 0 0 0-1.365 1.365c-.328.546-.492 1.2-.492 1.91s.164 1.366.492 1.912c.328.546.764 1.037 1.365 1.365.6.327 1.256.491 1.965.491 1.093 0 2.02-.382 2.73-1.147l.929.874a4.436 4.436 0 0 1-1.638 1.147c-.655.273-1.31.382-2.075.382a5.487 5.487 0 0 1-2.62-.655ZM72.454 38.375c-.764-.437-1.42-1.038-1.856-1.802-.437-.765-.656-1.584-.656-2.566 0-.929.219-1.802.656-2.567.436-.764 1.092-1.365 1.856-1.801.764-.437 1.693-.656 2.675-.656.983 0 1.857.219 2.621.656.764.436 1.42 1.037 1.857 1.801.436.765.655 1.584.655 2.567 0 .928-.219 1.801-.655 2.566a4.544 4.544 0 0 1-1.857 1.802c-.764.436-1.692.655-2.62.655a5.545 5.545 0 0 1-2.676-.655Zm4.586-1.092c.546-.328 1.038-.765 1.365-1.365.328-.546.492-1.202.492-1.911 0-.71-.164-1.365-.492-1.911-.327-.546-.764-1.038-1.365-1.365a3.832 3.832 0 0 0-1.91-.492c-.71 0-1.366.164-1.966.492a3.29 3.29 0 0 0-1.365 1.365c-.328.546-.492 1.2-.492 1.91s.164 1.366.492 1.912c.327.546.764 1.037 1.365 1.365a3.89 3.89 0 0 0 1.965.491c.71 0 1.365-.164 1.911-.491ZM98.444 38.92v-7.098l-3.495 5.897h-.655l-3.549-5.842v7.043h-1.31v-9.773h1.146l4.04 6.825 3.986-6.825h1.147v9.719h-1.31v.054ZM116.407 30.075c.71.6 1.092 1.42 1.092 2.512s-.382 1.91-1.092 2.511c-.71.601-1.693.929-3.003.929h-2.402v2.948h-1.365v-9.828h3.822c1.256 0 2.238.328 2.948.928Zm-.983 4.095c.437-.382.71-.928.71-1.638 0-.71-.218-1.256-.71-1.638-.491-.382-1.146-.546-2.02-.546h-2.348v4.368h2.348c.874.055 1.529-.164 2.02-.546ZM133.551 37.72v1.2h-7.043v-9.773h6.879v1.256h-5.46v3.003h4.86v1.201h-4.86v3.167h5.624v-.055ZM151.187 29.147v9.719h-1.147l-5.842-7.262v7.262h-1.365v-9.719h1.147l5.787 7.262v-7.262h1.42ZM161.07 29.147h4.095c1.037 0 1.965.218 2.73.6.819.383 1.419.983 1.856 1.693.437.765.655 1.584.655 2.566 0 .983-.218 1.802-.655 2.566-.437.765-1.037 1.31-1.856 1.693a6.27 6.27 0 0 1-2.73.6h-4.095v-9.718Zm3.986 8.572c.764 0 1.474-.164 2.074-.437.601-.327 1.038-.71 1.365-1.31.328-.546.492-1.201.492-1.911s-.164-1.365-.492-1.911a3.5 3.5 0 0 0-1.365-1.31c-.6-.328-1.31-.437-2.074-.437h-2.621v7.316h2.621ZM179.524 29.147h1.365v9.719h-1.365v-9.719ZM191.755 37.883c-.71-.765-1.092-1.802-1.092-3.221v-5.515h1.365v5.46c0 2.075.928 3.112 2.73 3.112.873 0 1.583-.273 2.02-.764.491-.492.71-1.31.71-2.348v-5.46h1.365v5.515c0 1.42-.383 2.456-1.092 3.22-.71.765-1.748 1.093-3.058 1.093-1.201.054-2.184-.328-2.948-1.092ZM217.799 38.92v-7.098l-3.494 5.897h-.71l-3.495-5.897v7.044h-1.31v-9.719h1.147l4.04 6.825 3.986-6.825h1.146v9.719h-1.31v.054Z"/><path fill="#A7A9AC" d="M14.305 60.378c-4.204-5.46-6.661-12.176-6.661-19.492 0-18.236 15.56-33.033 34.78-33.033 5.678 0 11.03 1.31 15.78 3.604l1.2-1.147C53.072 4.304 44.39.646 34.78.646 15.56.646 0 15.442 0 33.679c0 10.974 5.624 20.693 14.305 26.7Z"/><path fill="url(#a)" d="M17.8 17.518c6.278-6.006 15.014-9.664 24.624-9.664 5.678 0 11.029 1.31 15.78 3.603L52.688 16.7c-.492.491-1.31.491-1.802.054-4.259-3.658-9.883-5.842-16.053-5.842-6.66-.054-12.667 2.512-17.035 6.607Z"/><path fill="url(#b)" d="M17.8 17.518c-4.696 4.477-7.426 10.756-6.99 17.635.765 11.357 10.484 20.584 22.441 21.294 6.825.382 13.05-1.856 17.636-5.842.546-.437 1.31-.437 1.802.055l5.842 5.405a1.218 1.218 0 0 1-.054 1.856c-6.225 5.46-14.524 8.846-23.697 8.846-7.644 0-14.742-2.348-20.475-6.334-4.204-5.46-6.66-12.176-6.66-19.492C7.59 31.768 11.52 23.524 17.8 17.518Z"/><path fill="#939598" d="M34.289 43.234c5.609 0 10.155-4.547 10.155-10.156 0-5.608-4.546-10.155-10.155-10.155-5.609 0-10.156 4.547-10.156 10.155 0 5.61 4.547 10.156 10.156 10.156Z"/><defs><linearGradient id="a" x1="37.204" x2="39.688" y1="9.169" y2="25.724" gradientUnits="userSpaceOnUse"><stop stop-color="#808285"/><stop offset="1" stop-color="#C7C7C8"/></linearGradient><linearGradient id="b" x1="8.561" x2="45.269" y1="30.392" y2="67.1" gradientUnits="userSpaceOnUse"><stop stop-color="#808285"/><stop offset="1" stop-color="#D0D2D3"/></linearGradient></defs></svg>