<svg xmlns="http://www.w3.org/2000/svg" width="130" height="27" fill="none">
    <path fill="#A7A9AC" d="M52.176 6.015v.457c0 1.606.004 3.213-.01 4.82 0 .17-.062.38-.174.496-1.945 2-3.88 4.01-5.856 5.975-1.662 1.656-3.378 3.254-5.44 4.43-.974.555-1.993.999-3.116 1.124-4.652.52-8.595-3.486-7.98-8.083.444-3.325 3.274-5.997 6.516-6.252 3.76-.295 6.84 2.108 7.698 5.304.161.604.215 1.235.323 1.852.014 0 .045 0 .058-.013 1.074-1.092 2.147-2.18 3.207-3.28.072-.077.09-.282.04-.39-.215-.506-.43-1.02-.705-1.5C43.54 5.39 36.004 3.653 30.484 7.198c-3.705 2.38-5.645 6.681-4.854 10.758.992 5.147 5.506 8.893 10.814 9.01 2.596.058 4.944-.721 7.154-1.992 2.686-1.54 4.954-3.594 7.091-5.791 2.183-2.242 4.303-4.538 6.485-6.776 1.145-1.173 2.385-2.256 3.894-2.967 2.775-1.312 5.942-.014 6.956 2.846.378 1.056.454 2.157.454 3.272v10.741h4.307c.009-.13.018-.238.018-.345 0-3.55.027-7.098-.018-10.647a19.335 19.335 0 0 0-.35-3.49c-.508-2.565-1.833-4.58-4.339-5.635-2.164-.913-4.428-1.03-6.714-.613-1.625.295-3.05 1.1-4.41 2.005-.148.098-.3.192-.516.326V6.015H52.17h.005Zm50.847 6.664c-.104-.13-.189-.228-.265-.336-1.487-2.01-2.978-4.019-4.451-6.037-.17-.233-.346-.322-.638-.318-1.41.014-2.825.01-4.24.01h-.448c.103.147.157.236.22.321 4.873 6.584 9.75 13.172 14.618 19.76.148.2.305.259.543.259 1.428-.01 2.852 0 4.28-.005.117 0 .234-.009.418-.018-2.52-3.414-5.003-6.78-7.491-10.154 2.501-3.38 4.985-6.74 7.513-10.155-1.63 0-3.166.01-4.702-.009-.292 0-.462.09-.633.322-1.477 2.019-2.964 4.028-4.451 6.038-.076.103-.161.206-.264.335l-.009-.013ZM52.176 26.297h4.262v-9.43c-.059.028-.086.037-.104.055-1.342 1.414-2.685 2.824-4.019 4.242a.507.507 0 0 0-.135.318c-.009 1.589-.004 3.182-.004 4.816Zm40.796.027c1.684 0 3.274.005 4.859-.009.126 0 .287-.125.373-.237a322.75 322.75 0 0 0 2.057-2.766c.233-.313.624-.635.628-.957 0-.318-.386-.645-.619-.958-.598-.815-1.204-1.625-1.833-2.475l-5.465 7.402ZM0 15.226c.189-.842.287-1.71.575-2.516 1.46-4.077 4.423-6.444 8.663-7.187 3.05-.537 5.95-.027 8.573 1.687 1.85 1.208 3.157 2.86 3.957 4.91.05.12.08.25.139.425H19.23c-.476 0-.952.022-1.423-.014-.153-.009-.364-.12-.436-.25-2.34-4.015-8.142-4.355-11.097-1.236-1.585 1.67-2.142 3.693-1.927 5.93.31 3.196 2.398 5.54 5.461 6.226 2.987.666 5.969-.587 7.55-3.16.076-.125.251-.264.386-.268 1.37-.018 2.744-.014 4.176-.014-.054.161-.085.29-.139.42-1.226 3.08-3.435 5.17-6.584 6.163-3.925 1.236-7.661.757-11.007-1.732C1.787 22.83.445 20.395.076 17.436c-.013-.116-.05-.232-.076-.349v-1.861ZM83.132 0v5.966h6.745v3.571h-6.722c-.01.166-.018.282-.018.398 0 2.833-.01 5.666.004 8.5 0 .563.054 1.136.162 1.686.364 1.826 1.63 2.891 3.503 2.954 1.06.036 2.12.014 3.175.018h.444v3.37c-.633 0-1.23.022-1.823 0-1.45-.063-2.91-.045-4.343-.237-3.337-.443-4.783-2.757-5.191-5.402a16.661 16.661 0 0 1-.17-2.457c-.019-2.78-.01-5.558-.01-8.338V9.55h-3.534V7.496c0-.376-.113-.85.072-1.1.184-.242.678-.265 1.037-.368.638-.183 1.284-.344 1.918-.537.134-.04.314-.152.345-.264.481-1.736.935-3.482 1.393-5.227h3.013ZM130 26.4c-.076.023-.153.063-.229.063-1.832-.045-3.669 0-5.492-.161-3.247-.291-5.237-2.26-5.681-5.47a18.676 18.676 0 0 1-.167-2.456c-.018-2.78-.009-5.559-.009-8.338V9.56h-3.53V7.505c0-.376-.116-.85.068-1.1.184-.242.678-.265 1.037-.368.638-.183 1.285-.344 1.918-.537.135-.04.314-.152.346-.264.476-1.74.925-3.486 1.383-5.232h3.013v5.98h6.737v3.584h-6.737v8.463c0 .537.027 1.079.077 1.616.188 2.01 1.5 3.33 3.467 3.42 1.257.057 2.524.012 3.786.012V26.4H130Z"/>
    <path fill="#A7A9AC" d="M52.176 6.015h4.284v1.884c.211-.134.364-.228.517-.327 1.36-.904 2.784-1.71 4.41-2.005 2.286-.416 4.554-.295 6.714.614 2.506 1.056 3.83 3.07 4.338 5.634.225 1.146.337 2.327.35 3.49.045 3.55.019 7.099.019 10.648 0 .107-.01.21-.019.344h-4.306v-10.74c0-1.11-.077-2.211-.454-3.272-1.015-2.86-4.181-4.153-6.956-2.846-1.51.711-2.749 1.794-3.894 2.967-2.187 2.237-4.307 4.533-6.485 6.775-2.138 2.198-4.406 4.248-7.091 5.792-2.214 1.27-4.559 2.05-7.154 1.991-5.309-.116-9.822-3.862-10.815-9.009-.785-4.081 1.154-8.382 4.855-10.759 5.524-3.549 13.055-1.812 16.253 3.76.274.479.49.993.705 1.499.045.107.031.309-.04.39-1.06 1.1-2.138 2.188-3.207 3.28-.013.013-.05.013-.058.013-.104-.617-.158-1.248-.324-1.853-.857-3.195-3.943-5.598-7.697-5.303-3.243.255-6.068 2.927-6.517 6.252-.615 4.6 3.328 8.602 7.98 8.083 1.124-.125 2.143-.569 3.118-1.123 2.06-1.178 3.776-2.775 5.438-4.431 1.976-1.97 3.912-3.974 5.856-5.975.113-.116.175-.331.175-.497.014-1.606.01-3.213.01-4.82v-.456h-.005ZM103.023 12.679c.103-.13.189-.229.265-.336 1.486-2.01 2.977-4.019 4.45-6.037.171-.233.346-.322.634-.322 1.536.013 3.067.009 4.702.009-2.524 3.414-5.012 6.775-7.514 10.154 2.488 3.375 4.972 6.74 7.491 10.155-.184.009-.301.018-.417.018-1.429 0-2.852 0-4.28.004-.238 0-.395-.058-.544-.26-4.868-6.587-9.74-13.17-14.618-19.758-.063-.085-.116-.17-.22-.322h.45c1.414 0 2.824.009 4.239-.01.287 0 .467.086.638.318 1.477 2.019 2.963 4.028 4.45 6.038.076.107.162.206.265.335l.009.014Z"/>
    <path fill="#A7A9AC" d="M52.176 26.297c0-1.638 0-3.226.005-4.815 0-.108.058-.237.135-.318 1.333-1.419 2.676-2.828 4.019-4.243.018-.017.045-.022.103-.053v9.43h-4.262ZM92.972 26.324c1.85-2.506 3.642-4.936 5.466-7.402.628.85 1.23 1.66 1.832 2.475.229.313.62.64.62.958 0 .322-.395.64-.629.957-.683.927-1.36 1.849-2.057 2.766-.085.112-.247.237-.373.237-1.585.018-3.175.01-4.859.01Z"/>
</svg>