<svg xmlns="http://www.w3.org/2000/svg" width="222" height="24" fill="none"><path fill="#96999E" d="M73.697 8.042c-1.01-.372-1.61-.426-4.821-.475-2.56-.039-4.133.032-5.215.229-.851.153-1.976.393-2.511.53l-.966.25-.312 1.246c-.169.682-.25 1.31-.174 1.397.07.082 1.255-.076 2.62-.35 4.581-.927 8.813-.807 10.593.29.737.453 1.261 1.425 1.261 2.326 0 .612-.01.623-.726.503-1.556-.263-7.311-.355-8.829-.142-3.51.496-5.504 1.725-6.066 3.729-.459 1.632.213 3.614 1.545 4.58 1.545 1.12 2.921 1.415 7.06 1.508 3.363.076 8.709-.268 9.959-.65.311-.093.339-.524.339-5.444 0-2.986-.088-5.65-.197-6.044-.431-1.556-1.715-2.806-3.576-3.489l.016.006Zm.175 12.661c-.18.071-2.293.126-4.69.126-4.718 0-6.028-.191-6.89-1-.323-.305-.46-.644-.46-1.157 0-1.305 1.262-1.9 4.44-2.091 2.189-.131 6.426-.038 7.24.158l.578.142.055 1.846c.049 1.594.01 1.862-.273 1.97v.006ZM56.329 7.708c-.213-.065-2.386-.055-4.827.027-2.44.082-5.132.257-5.984.388l-1.545.24v14.862l1.496.055 1.496.055v-12.33l.628-.125c.344-.065 2.517-.174 4.826-.24 4.778-.13 4.477 0 4.352-1.89-.05-.73-.142-.955-.448-1.053l.006.011ZM33.118 16.576l8.157.016-.01-1.605c-.006-1.398-.088-1.77-.623-2.878-1.065-2.2-3.27-3.822-5.99-4.4-1.78-.377-5.329-.257-6.988.234-1.59.47-3.326 1.518-4.237 2.561-1.868 2.124-2.38 5.296-1.322 8.14.492 1.328 2.108 3.064 3.484 3.757 3.505 1.764 8.878 1.742 13.415-.054 1-.394 1.594-.737 1.594-.918 0-.35-1.13-2.358-1.326-2.358-.077 0-.497.169-.934.382-1.818.879-4.046 1.354-6.323 1.354-2.435 0-3.8-.339-5.143-1.267-.737-.513-1.906-2.19-1.911-2.74 0-.197 1.649-.246 8.152-.23l.005.006Zm-5.984-5.297c.459-.267 1.354-.617 1.987-.77 2.85-.688 5.995-.076 7.683 1.496.655.612 1.092 1.273 1.092 1.655 0 .142-1.988.207-6.372.207-5.22 0-6.372-.049-6.372-.262 0-.491 1.141-1.84 1.982-2.326ZM19.075.84h-1.409c-.775 0-1.49.076-1.594.18-.104.104-.185 1.665-.185 3.544v3.363l-.628-.126c-.344-.07-2.086-.174-3.866-.24-3.675-.131-5.083.093-7.24 1.141-1.578.77-3.134 2.424-3.713 3.948-.59 1.556-.584 4.138 0 5.705.89 2.376 3.178 4.134 6.448 4.964 2.545.644 7.18.48 11.28-.399l.995-.213-.05-10.936L19.075.84Zm-3.543 19.694c-.645.273-6.405.338-7.53.087-2.195-.486-3.8-1.605-4.417-3.068-.393-.934-.377-3.009.033-3.975.672-1.594 2.26-2.654 4.646-3.107 1.442-.273 3.828-.218 6.214.148l1.387.213.06 4.078c.076 4.86.032 5.455-.393 5.635v-.011ZM136.323 8.074c-1.12-.398-1.633-.447-5.198-.497-2.179-.027-4.521.022-5.209.11-2.938.382-4.385.617-4.598.753-.174.11-.218 1.938-.18 7.464l.049 7.322 1.496.054 1.497.055V10.82l.726-.12c.398-.066 1.954-.224 3.456-.35 4.592-.377 7.065.218 7.906 1.906.322.644.377 1.348.459 5.847l.098 5.116 1.474.055 1.474.054.137-2.036c.229-3.38.011-9.102-.399-10.221-.486-1.349-1.665-2.457-3.194-3.003l.006.005ZM95.422 20.49c-.005-.163-1.07-.245-3.822-.289-3.472-.055-3.882-.098-4.586-.48-1.747-.945-2.605-2.386-2.605-4.352 0-1.496.634-2.97 1.573-3.675 1.507-1.13 1.742-1.179 5.766-1.294 3.75-.103 3.762-.109 3.75-.54-.005-.24-.027-1-.049-1.687l-.032-1.256-3.233.022c-1.78.01-3.669.093-4.198.18-1.49.24-2.113.475-3.293 1.261-1.223.808-2.397 2.19-3.106 3.647-.656 1.338-.83 3.992-.372 5.57.661 2.266 2.217 4.155 4.254 5.154 1.654.808 2.866.977 6.677.917l3.342-.054-.028-1.447c-.016-.797-.027-1.55-.032-1.677h-.006ZM220.833 20.43h-3.593c-5.602 0-5.673-.07-5.788-5.836l-.076-3.817h4.619c3.331 0 4.679-.065 4.849-.23.24-.24.322-2.014.114-2.549-.103-.267-.709-.306-4.832-.306h-4.717l.027-2.298c.016-1.267-.027-2.397-.098-2.512-.137-.224-2.659-.295-2.872-.082-.071.071-.131 1.201-.131 2.512v2.38h-3.434l-.088.726c-.049.4-.044 1.092 0 1.546l.093.819h3.423v4.308c0 5.667.29 6.699 2.19 7.714.753.405 1.075.432 5.553.492l4.75.065.12-.879c.065-.486.065-1.14 0-1.463l-.115-.584.006-.006ZM177.431 7.796c-1.583-.371-5.498-.371-6.89 0-2.763.743-4.794 2.353-5.881 4.663-.562 1.196-.611 1.463-.595 3.14.022 2.336.486 3.636 1.84 5.11 1.168 1.277 3.074 2.282 5.182 2.724 1.823.383 6.087.268 7.818-.212 1.769-.492 4.15-1.475 4.15-1.715 0-.355-1.038-2.282-1.278-2.375-.125-.05-.579.093-1.004.311-1.742.89-3.992 1.37-6.416 1.37-2.719 0-3.887-.349-5.28-1.572-.808-.71-1.654-1.965-1.654-2.457 0-.114 3.101-.19 8.152-.207 4.493-.011 8.228-.099 8.326-.197.273-.273-.218-3.058-.737-4.193-.966-2.108-3.156-3.79-5.722-4.395l-.011.005Zm-3.456 6.071c-5.22 0-6.372-.049-6.372-.262 0-.49 1.141-1.84 1.982-2.325.459-.268 1.354-.617 1.987-.77 3.337-.808 6.749.109 8.321 2.238.852 1.152 1.049 1.12-5.918 1.12ZM200.969 20.234c-2.184.595-6.181.759-7.671.316-2.337-.693-3.675-1.982-4.079-3.925-.595-2.872 1.032-5.275 4.062-5.995 2.266-.541 4.805-.448 7.442.273 2.075.562 1.9.611 2.479-.612.289-.606.486-1.207.437-1.332-.098-.257-2.337-.945-4.068-1.25-1.589-.279-5.962-.224-7.273.092-2.588.628-4.837 2.272-5.733 4.194-.682 1.463-.928 3.341-.644 4.892.644 3.51 2.998 5.716 6.994 6.568 2.119.448 6.045.273 8.545-.382 2.474-.65 2.512-.683 2.015-1.824-.65-1.496-.666-1.507-2.506-1.004v-.011ZM152.359 7.528c-1.857.017-3.681.06-4.052.098-1.277.131-4.925.656-5.263.76-.317.092-.339.578-.29 7.469l.05 7.37h3.09l.049-6.202.049-6.203.721-.114c5.269-.83 9.457-.524 10.707.786.923.966.988 1.376 1.07 6.77l.082 5.073 1.48-.055 1.474-.054.049-5.395c.06-6.164-.055-6.912-1.25-8.239-1.496-1.654-3.238-2.108-7.966-2.07v.006Z"/><path fill="#96999E" d="M112.555 7.507c-1.359-.464-4.51-.672-6.344-.415-3.047.431-5.684 2.768-6.803 6.05-.104.305-.492.338-4.368.338-2.337 0-4.259.065-4.259.147-.016.3-.022 3.053-.006 3.282.011.185 1.005.24 4.27.24 3.877 0 4.264.027 4.368.338.443 1.322 1.311 2.807 2.13 3.653 1.741 1.786 3.909 2.572 7.109 2.572 3.199 0 5.203-.72 7.005-2.523 4.308-4.308 2.637-11.717-3.085-13.682h-.017Zm-.709 12.28c-1.021.496-4.674.605-5.963.174-.993-.328-2.184-1.349-2.67-2.282l-.278-.53h4.657l-.054-1.785-.055-1.786-2.271-.054-2.272-.055.273-.524c.563-1.076 1.944-2.086 3.227-2.353 1.223-.257 4.379-.115 5.204.234 1.638.7 2.882 2.468 3.035 4.325.148 1.752-1.103 3.794-2.839 4.635h.006Z"/></svg>