<svg xmlns="http://www.w3.org/2000/svg" width="176" height="33" fill="none"><path fill="#939598" d="m52.974 23.915-12.217-.048.058-16.497 12.053.047-.01 2.926-8.92-.037-.011 3.52 7.608.032-.01 2.926-7.609-.032-.016 4.21 9.085.032-.016 2.926.005-.005ZM68.325 18.201l-3.494 5.767-3.732-.016 5.362-8.421-5.054-8.082 3.706.016 3.239 5.41 3.281-5.389 3.733.022-5.119 8.033 5.267 8.47-3.711-.017-3.473-5.793h-.005ZM98.548 15.78c-.021 4.806-3.43 8.597-8.092 8.575-4.683-.02-8.07-3.838-8.05-8.644.016-4.779 3.436-8.564 8.119-8.548 4.662.02 8.044 3.838 8.023 8.617Zm-3.16-.016c.011-3.063-2.166-5.617-4.88-5.628-2.734-.016-4.932 2.528-4.937 5.591-.016 3.096 2.161 5.65 4.895 5.66 2.714.01 4.912-2.527 4.928-5.623h-.006ZM120.434 12.68l-3.138-.011c0-1.423-1.184-2.496-3.175-2.507-1.662-.005-3.212.627-3.218 1.885-.005 1.142 1.11 1.55 3.627 2.082 3.919.796 6.388 1.79 6.372 5.16-.016 3.187-2.687 5.178-6.845 5.162-3.233-.016-6.748-1.805-6.732-5.782l3.143.01c-.005 1.949 1.938 2.889 3.6 2.894 1.811 0 3.696-.632 3.701-2.198 0-1.046-.855-1.694-3.897-2.3-3.038-.604-6.128-1.518-6.112-5.065.011-2.824 2.517-4.789 6.366-4.773 4.354.016 6.319 2.825 6.308 5.442ZM133.671 24.244l-3.143-.01.069-16.503 3.138.01-.064 16.503ZM150.365 10.726l-.053 13.582-3.143-.016.053-13.572-4.423-.02.01-2.921 11.984.048-.01 2.92-4.423-.021h.005ZM175.984 24.409l-12.217-.048.063-16.503 12.059.053-.016 2.926-8.915-.037-.016 3.52 7.609.032-.011 2.92-7.609-.026-.016 4.205 9.085.043-.01 2.92-.006-.005Z"/><path fill="#A7A9AC" d="M19.757 14.293a5.269 5.269 0 0 1-5.235-5.277l.016-3.723C14.543 2.394 16.917.048 19.81.058a5.265 5.265 0 0 1 5.235 5.278l-.01 3.722a5.262 5.262 0 0 1-5.279 5.235Z"/><path fill="#939598" d="M19.683 32.426a5.257 5.257 0 0 1-5.235-5.272l.016-3.627c.026-6.143-3.085-9.27-9.229-9.297A5.255 5.255 0 0 1 0 8.952L.016 5.23C.026 2.336 2.395-.01 5.294 0a5.262 5.262 0 0 1 5.235 5.278L10.513 9c-.026 7.311 5.788 9.287 9.228 9.297a5.254 5.254 0 0 1 5.23 5.278l-.015 3.621c-.011 2.894-2.38 5.246-5.273 5.23Z"/></svg>