<svg xmlns="http://www.w3.org/2000/svg" width="168" height="64" fill="none"><path fill="#88BB78" d="M50.183 54.03ZM58.127 57.208ZM57.28 35.985c0 .072 0 .143-.005.226 0-.083 0-.154.005-.226ZM56.98 39.316l-.082.53c.028-.18.06-.355.082-.53ZM57.231 37.05ZM57.27 36.302c0 .093-.006.186-.011.29 0-.104.01-.197.01-.29ZM5.203 40.02Z"/><path fill="#A7A9AC" d="m60.502 62.788-1.458-6.562c-.158.163-.343.37-.502.535-.13.13-.273.289-.404.42a29.742 29.742 0 0 1-1.682 1.534c-.098.082-.207.164-.305.246a30.26 30.26 0 0 1-1.496 1.152c-.202.148-.377.197-.585.339-.114.076-.224.169-.305.142l6.737 2.189v.005ZM5.766 42.614c-.033-.126-.071-.251-.104-.377a30.722 30.722 0 0 1-.551-2.768c-.039-.23-.05-.552-.077-.781L0 43.143l6.738 2.19c-.082-.027-.12-.164-.164-.29-.088-.24-.18-.43-.257-.671-.196-.595-.387-1.147-.551-1.753v-.005Z"/><path fill="#939598" d="M47.376 42.586c6.006 1.95 4.4 5.766 4.4 5.766s-2.369 6.099-8.653 9.009c-.874.404-2.517.9-3.058 1.02-.48.115-4.051.514-4.886.449-.12-.011-.235 0-.355-.006a19.972 19.972 0 0 1-1.824-.18 4.074 4.074 0 0 1-.251-.044 22.634 22.634 0 0 1-1.682-.322 28.803 28.803 0 0 1-2.577-.699c-8.305-2.697-12.907-7.092-15.452-10.969a26.145 26.145 0 0 1-2.904-12.427c.01-.508.038-1.01.076-1.518.044-.535.104-1.07.18-1.61.208-1.47.54-2.943 1.01-4.401 3.478-10.707 13.274-17.63 23.92-17.996l3.484-3.129C25.498 4.334 12.618 12.42 8.32 25.65a29.342 29.342 0 0 0-1.43 8.54c-.006.48 0 .96.01 1.441.017.459.044.923.077 1.376a29.375 29.375 0 0 0 2.98 10.724c.23.464.47.917.722 1.37 3.483 6.17 9.189 11.111 16.445 13.464 7.256 2.359 14.775 1.715 21.218-1.234.47-.213.933-.442 1.386-.682a29.378 29.378 0 0 0 10.445-9.151 29.056 29.056 0 0 0 3.86-7.748c4.297-13.23-1.37-27.344-12.841-34.19l.982 4.575c8.403 6.552 12.264 17.909 8.786 28.616a25.822 25.822 0 0 1-1.77 4.155c-.256.48-.518.95-.802 1.409-.268.437-.54.862-.83 1.277a26.15 26.15 0 0 1-10.865 8.938c-.514.23-1.032.437-1.562.628-.568.208-1.141.404-1.725.574-1.262.365-2.561.633-3.871.808a18.285 18.285 0 0 0 1.687-.475c.218-.071.42-.164.628-.24.322-.12.644-.235.95-.372.267-.115.524-.251.78-.377.235-.114.47-.224.7-.35.294-.163.584-.338.867-.512.17-.104.339-.202.503-.306.322-.208.628-.426.933-.65.115-.082.23-.158.339-.246a23.674 23.674 0 0 0 2.173-1.872l.082-.082c.344-.339.677-.683.988-1.027 2.927-3.216 4.729-6.792 5.444-8.998.218-.666.404-1.305.568-1.922.06-.218.109-.431.163-.644.022-.082.044-.164.06-.24.05-.202.093-.399.137-.595.016-.082.038-.17.055-.252l.114-.562c.017-.076.033-.153.044-.23.033-.185.065-.365.098-.54l.033-.196c.027-.18.06-.36.082-.53.005-.05.3-2.353.164-4.193-1.54.737-5.247 1.889-7.737 2.511-3.746.94-14.109 2.54-17.658 2.228 3.205.377 10.97 1.218 15.621 2.725l.022-.006Z"/><path fill="#88BB78" d="M56.997 39.18a1.414 1.414 0 0 1-.022.137c.005-.05.01-.093.022-.137ZM56.604 41.38c-.017.082-.039.164-.055.252.016-.082.038-.17.055-.253ZM56.762 40.583c-.016.076-.027.153-.044.23.017-.077.033-.154.044-.23ZM56.413 42.22c-.022.083-.038.165-.06.242.021-.082.044-.164.06-.241Z"/><path fill="#A7A9AC" d="M49.222 46.589c-.371-.737-1.283-1.464-2.817-1.96-4.488-1.458-22.288-5.395-22.288-5.395s19.23-.94 30.101-4.958L50.21 15.374l-.31-1.54-.306-1.469-.88-4.138-.283-1.322-.273-1.277L47.152.927l-3.576 3.21-.972.874-1.01.906-5.499 4.598L12.427 31.95h.011c-.655 6.05 1.049 12.061 4.565 16.68l1.212.41 21.234 7.082c7.076-1.18 9.446-8.092 9.446-8.474 0-.082.578-.557.327-1.06Z"/><path fill="#88BB78" d="m49.19 55.057-.083.083.083-.083Z"/><path fill="#939598" d="M82.036 18.611c-1.054 0-2.026-.185-2.92-.556a6.616 6.616 0 0 1-2.31-1.578 7.248 7.248 0 0 1-1.513-2.463c-.36-.96-.546-2.02-.546-3.183 0-1.163.18-2.2.546-3.156.36-.95.868-1.763 1.523-2.44a6.892 6.892 0 0 1 2.354-1.578c.917-.377 1.922-.563 3.014-.563.355 0 .742.022 1.163.066.42.043.83.103 1.234.18.403.076.786.17 1.152.278.36.104.671.224.928.35l-.3 2.599c-1.365-.584-2.736-.874-4.112-.874-.753 0-1.409.12-1.971.366-.562.24-1.032.59-1.409 1.037-.376.448-.66.983-.851 1.606a7.08 7.08 0 0 0-.29 2.085c0 .77.099 1.518.3 2.162.197.645.497 1.19.896 1.639.398.447.884.797 1.458 1.048.573.251 1.24.371 1.993.371.584 0 1.26-.076 2.047-.235v-2.68H82.78V10.83h4.368v6.65c-.257.159-.59.3-1 .437-.409.137-.857.257-1.332.36-.475.11-.96.186-1.447.246-.491.055-.933.087-1.332.087ZM93.158 16.351l-.235 2.173h-.96c-.907 0-1.59-.256-2.048-.775-.453-.519-.683-1.19-.683-2.015V2.33h2.643v12.318c0 .41.011.731.033.96.022.23.076.394.158.503.087.11.213.175.382.202.17.027.404.044.705.044l.005-.006ZM103.406 16.93c-.966 1.065-2.271 1.6-3.92 1.6-.824 0-1.567-.142-2.228-.426a5.036 5.036 0 0 1-1.692-1.174 5.272 5.272 0 0 1-1.087-1.747 6 6 0 0 1-.382-2.173c0-.781.126-1.49.382-2.162a5.211 5.211 0 0 1 1.087-1.758 5.034 5.034 0 0 1 1.692-1.174c.661-.284 1.404-.426 2.228-.426.825 0 1.567.147 2.239.437.666.289 1.234.688 1.703 1.184a5.15 5.15 0 0 1 1.076 1.748c.246.666.371 1.386.371 2.15 0 1.551-.491 2.856-1.469 3.921Zm-1.976-6.35c-.464-.611-1.114-.917-1.944-.917-.83 0-1.501.306-1.965.917-.465.612-.7 1.42-.7 2.43 0 1.01.236 1.818.7 2.43.464.611 1.119.917 1.965.917.846 0 1.502-.311 1.966-.94.464-.622.699-1.424.699-2.407 0-.983-.241-1.818-.721-2.43ZM111.826 18.524a4.57 4.57 0 0 1-2.621-.808l-.044.595h-2.473V2.331h2.643v5.858c.693-.47 1.528-.705 2.495-.705.808 0 1.54.142 2.184.426a4.71 4.71 0 0 1 1.638 1.174 5.17 5.17 0 0 1 1.032 1.758c.24.677.36 1.398.36 2.162 0 .765-.115 1.486-.349 2.152a5.402 5.402 0 0 1-1.01 1.758 4.6 4.6 0 0 1-1.644 1.184c-.655.284-1.392.426-2.217.426h.006Zm-.18-8.861c-.819 0-1.431.3-1.835.895-.404.595-.606 1.414-.606 2.452 0 1.037.202 1.85.606 2.451.404.595 1.016.896 1.835.896s1.507-.3 1.976-.907c.47-.606.699-1.42.699-2.44 0-1.021-.235-1.835-.699-2.44-.469-.607-1.125-.907-1.976-.907ZM128.02 16.35l-.235 2.174h-.961c-1.152 0-1.949-.41-2.386-1.234-.737.825-1.823 1.234-3.259 1.234a3.29 3.29 0 0 1-1.223-.224 2.826 2.826 0 0 1-.983-.639 2.987 2.987 0 0 1-.65-.999c-.158-.387-.235-.835-.235-1.332 0-.726.213-1.327.639-1.813.426-.48.945-.868 1.556-1.163a7.84 7.84 0 0 1 1.95-.628 12.486 12.486 0 0 1 1.845-.213c-.027-.639-.186-1.092-.47-1.354-.283-.262-.769-.393-1.446-.393-.841 0-1.813.268-2.922.808l-.234-2.151c1.321-.622 2.615-.94 3.876-.94 2.572 0 3.855 1.426 3.855 4.282v2.877c0 .382.011.688.033.917.022.23.065.404.125.524.066.12.159.197.29.224a2.4 2.4 0 0 0 .491.044H128.02Zm-3.92-.616v-2.43c-.41.027-.814.088-1.207.17a3.825 3.825 0 0 0-1.032.37c-.3.165-.54.361-.726.585-.186.23-.278.491-.278.786 0 .852.475 1.278 1.425 1.278.666 0 1.272-.257 1.812-.77l.006.01ZM133.409 16.351l-.235 2.173h-.961c-.906 0-1.588-.256-2.047-.775-.453-.519-.683-1.19-.683-2.015V2.33h2.643v12.318c0 .41.011.731.033.96.022.23.076.394.158.503.087.11.213.175.382.202.17.027.404.044.705.044l.005-.006ZM85.405 40.212h-9.757V25.295h9.544v2.643h-6.754v3.172h5.242v2.642h-5.242v3.817h6.967v2.643ZM96.636 40.211h-2.642v-5.733c0-.993-.17-1.73-.502-2.206-.334-.474-.869-.715-1.611-.715-.808 0-1.48.306-2.004.918v7.736h-2.643V29.56h2.474l.043.639c.754-.54 1.535-.808 2.343-.808 3.025 0 4.537 1.698 4.537 5.094v5.733l.005-.006ZM104.477 38.251l-.235 2.173h-1.895c-.469 0-.879-.076-1.233-.224a2.676 2.676 0 0 1-.896-.595 2.46 2.46 0 0 1-.546-.884 3.264 3.264 0 0 1-.18-1.087v-5.902h-1.513l.235-2.173h1.278v-2.343l2.643-.278v2.62h2.342v2.174h-2.342v4.816c0 .414.016.731.043.96.028.23.098.4.202.514.109.114.268.18.481.202.213.022.513.033.895.033h.726l-.005-.006ZM115.195 35.461h-6.902c.142.923.519 1.622 1.125 2.086.606.47 1.294.704 2.064.704.24 0 .508-.022.792-.065a8.376 8.376 0 0 0 1.731-.459c.283-.11.54-.224.769-.35l.131 2.24c-1.037.54-2.222.807-3.559.807-.94 0-1.764-.142-2.485-.425a5.293 5.293 0 0 1-1.813-1.163 4.779 4.779 0 0 1-1.108-1.748 6.224 6.224 0 0 1-.371-2.184c0-.78.12-1.485.349-2.15a5.402 5.402 0 0 1 1.01-1.759c.443-.502.978-.9 1.611-1.185.633-.284 1.343-.426 2.14-.426.667 0 1.289.11 1.862.328a4.325 4.325 0 0 1 1.491.939c.42.404.748.89.983 1.458.234.568.349 1.201.349 1.894 0 .399-.055.88-.169 1.447v.011Zm-6.842-1.79h4.325a2.42 2.42 0 0 0-.47-1.47c-.316-.425-.802-.638-1.458-.638-.655 0-1.184.19-1.583.573-.399.382-.672.895-.814 1.534ZM123.248 29.39l-.513 2.495h-.983c-.426 0-.819.098-1.174.3-.355.197-.612.453-.77.765v7.267h-2.642V29.564h2.473l.065 1.13c.825-.868 1.769-1.299 2.834-1.299h.704l.006-.005ZM129.598 40.424c-.95 0-1.78-.24-2.495-.726v5.668h-2.643V29.553h2.299l.213.617a4.597 4.597 0 0 1 2.621-.786c.808 0 1.54.142 2.184.426.644.284 1.19.677 1.638 1.174a5.167 5.167 0 0 1 1.032 1.758c.24.677.36 1.398.36 2.162 0 .765-.12 1.485-.349 2.152a5.403 5.403 0 0 1-1.01 1.758c-.443.502-.989.9-1.638 1.184-.656.284-1.393.426-2.217.426h.005Zm-.18-8.867c-.819 0-1.43.3-1.834.896-.404.595-.606 1.414-.606 2.451 0 1.038.202 1.857.606 2.452.404.595 1.015.895 1.834.895.819 0 1.507-.3 1.977-.906.464-.606.699-1.42.699-2.44 0-1.022-.235-1.835-.699-2.441-.47-.606-1.125-.907-1.977-.907ZM142.724 29.39l-.513 2.495h-.978c-.426 0-.819.098-1.174.3-.355.197-.611.453-.764.765v7.267h-2.643V29.564h2.474l.065 1.13c.825-.868 1.769-1.299 2.834-1.299h.704l-.005-.005ZM146.579 27.938h-2.642v-2.643h2.642v2.643Zm0 12.274h-2.642V29.559h2.642v10.653ZM152.077 40.424c-1.622 0-2.823-.262-3.604-.786l.235-2.26c.169.125.388.256.65.382.262.125.54.24.83.344.289.098.595.18.906.245.311.066.611.099.895.099.596 0 1.016-.115 1.256-.339.24-.23.361-.502.361-.83 0-.327-.088-.551-.257-.715-.169-.164-.415-.306-.737-.426s-.705-.251-1.163-.382a9.788 9.788 0 0 1-1.534-.628c-.426-.24-.748-.535-.961-.885-.213-.349-.339-.835-.383-1.457 0-.443.077-.863.224-1.267.148-.404.382-.764.694-1.076.311-.31.715-.562 1.201-.759.491-.19 1.081-.289 1.78-.289a7.89 7.89 0 0 1 1.927.235c.634.158 1.103.338 1.414.551l-.234 2.26a4.584 4.584 0 0 0-.563-.425 4.187 4.187 0 0 0-.715-.371 5.381 5.381 0 0 0-.808-.257 3.703 3.703 0 0 0-.83-.098c-.513 0-.934.098-1.267.289-.333.191-.502.486-.502.885 0 .338.109.595.328.764.218.17.513.328.884.47l.36.103c.088.027.224.066.415.12.191.05.339.088.437.115.442.126.841.279 1.207.448.36.169.671.382.928.639.257.256.453.562.584.917.137.355.202.775.202 1.256 0 2.085-1.392 3.134-4.177 3.134l.017-.006ZM167.054 35.461h-6.902c.142.923.519 1.622 1.125 2.086.606.47 1.294.704 2.064.704.24 0 .508-.022.792-.065a8.359 8.359 0 0 0 1.73-.459c.284-.11.541-.224.77-.35l.131 2.24c-1.037.54-2.222.807-3.56.807-.939 0-1.763-.142-2.484-.425a5.293 5.293 0 0 1-1.813-1.163 4.779 4.779 0 0 1-1.108-1.748 6.224 6.224 0 0 1-.371-2.184c0-.78.114-1.485.349-2.15a5.384 5.384 0 0 1 1.01-1.759c.443-.502.978-.9 1.611-1.185.633-.284 1.343-.426 2.14-.426.666 0 1.289.11 1.862.328.573.218 1.07.535 1.491.939.42.404.748.89.983 1.458.234.568.349 1.201.349 1.894 0 .399-.055.88-.169 1.447v.011Zm-6.842-1.79h4.325a2.42 2.42 0 0 0-.47-1.47c-.317-.425-.803-.638-1.458-.638-.655 0-1.185.19-1.583.573-.399.382-.672.895-.814 1.534ZM87.43 62.111h-2.238l-6.82-10.226v10.227h-2.724V47.194h2.686l6.372 9.631v-9.631h2.73V62.11h-.005ZM99 57.361h-6.9c.141.923.518 1.622 1.118 2.086.606.47 1.294.704 2.064.704.24 0 .508-.022.792-.065.284-.044.573-.104.868-.18.29-.077.579-.17.868-.279.284-.11.54-.224.77-.35l.126 2.24c-1.038.54-2.222.807-3.56.807-.94 0-1.764-.142-2.484-.426-.716-.284-1.322-.671-1.813-1.163a4.778 4.778 0 0 1-1.109-1.747 6.2 6.2 0 0 1-.37-2.184c0-.78.12-1.485.349-2.151a5.384 5.384 0 0 1 1.01-1.758c.442-.502.977-.901 1.61-1.185.634-.284 1.349-.426 2.14-.426.667 0 1.29.11 1.868.328.573.218 1.07.535 1.49.939.421.404.749.89.983 1.458.235.568.35 1.2.35 1.894 0 .399-.055.88-.17 1.447v.011Zm-6.84-1.79h4.324a2.43 2.43 0 0 0-.47-1.47c-.317-.425-.797-.638-1.458-.638-.66 0-1.185.19-1.583.573-.399.382-.672.895-.814 1.534ZM106.584 60.151l-.235 2.173h-1.894a3.19 3.19 0 0 1-1.234-.224 2.686 2.686 0 0 1-.896-.595 2.446 2.446 0 0 1-.54-.885 3.266 3.266 0 0 1-.18-1.086v-5.902h-1.513l.235-2.173h1.278v-2.343l2.642-.278v2.62h2.343v2.174h-2.343v4.816c0 .414.017.731.044.96.027.23.098.399.202.514.104.114.268.18.481.202.212.021.513.032.895.032h.726l-.011-.005ZM122.331 51.459l-3.112 10.652h-2.217l-2.195-6.945-2.195 6.945h-2.217l-3.112-10.652h2.577l1.835 7.436 2.004-7.223h2.216l1.982 7.224 1.857-7.437h2.577ZM132.322 60.73c-.966 1.065-2.271 1.6-3.92 1.6-.824 0-1.567-.142-2.227-.426a5.026 5.026 0 0 1-1.693-1.174 5.271 5.271 0 0 1-1.087-1.747 6.014 6.014 0 0 1-.382-2.173c0-.78.126-1.49.382-2.162a5.213 5.213 0 0 1 1.087-1.758 5.107 5.107 0 0 1 1.693-1.174c.66-.284 1.403-.426 2.227-.426.825 0 1.567.148 2.239.437.666.29 1.234.688 1.703 1.185.47.496.83 1.08 1.076 1.747.251.666.371 1.387.371 2.151 0 1.55-.491 2.856-1.469 3.92Zm-1.976-6.35c-.464-.611-1.114-.917-1.944-.917-.83 0-1.501.306-1.965.917-.465.612-.699 1.42-.699 2.43 0 1.01.234 1.818.699 2.43.464.611 1.119.917 1.965.917.846 0 1.502-.311 1.966-.94.464-.621.699-1.424.699-2.407 0-.983-.241-1.818-.721-2.43ZM141.703 51.29l-.513 2.495h-.983c-.426 0-.819.099-1.174.3-.355.197-.611.454-.77.765v7.267h-2.642V51.465h2.473l.065 1.13c.825-.868 1.77-1.3 2.834-1.3h.705l.005-.005ZM145.536 62.111h-2.643V46.13h2.643v9.686l3.39-4.357h2.982l-3.899 5.105 3.899 5.553h-2.982l-3.39-4.74v4.74-.006Z"/></svg>