<svg xmlns="http://www.w3.org/2000/svg" width="95" height="37" fill="none"><path fill="#A7A9AC" d="M67.158 16.824H87.531l.457 3.334H94v-9.512c-.902.067-1.808.194-2.71.194-10.501.014-21.002.047-31.503-.019-1.77-.01-2.4.477-2.348 2.295.124 4.067.143 8.147-.01 12.213-.076 2.012.578 2.578 2.577 2.555 8.292-.1 16.59-.076 24.886.01.94.009 1.875.67 2.81 1.024-.897.293-1.798.845-2.7.845-18.798.052-37.592.038-56.39.043-.959 0-1.922.08-3.168.137v6.059h68.56V21.966c-9.742.02-19.48.043-29.222.052-.291 0-.582-.118-.911-.184-.1-.311-.239-.585-.277-.873-.515-3.85-.267-4.133 3.569-4.137h-.005Z"/><path fill="#A7A9AC" d="M53.77 10.901H17.462v6.097h30.049c.08.831.171 1.422.186 2.012.047 1.968-.953 2.952-3.001 2.952H23.712c-.133-1.195-.233-2.064-.343-3.042h-6.16v17.082h6.399v-8.085H53.77V10.9ZM11.536 20.734c-.32 1.577-.324 3.211-.481 5.124-1.837-1.167-2.295-2.13-1.16-3.717.573-.803.654-1.955.954-2.947-2.39-.779-3.296-.245-3.149 1.927.134 1.95-.019 3.925.034 5.884.076 3 .224 5.998.343 8.997h5.487c.096-5.044.224-10.083.243-15.127 0-.665-.553-1.331-.849-1.997-.491.614-1.274 1.171-1.417 1.856h-.005ZM6.427 4.96l.577-.24c1.57 3.636 3.144 7.277 4.709 10.904 2.042-2.536 2.567-7.258 1.097-9.917C10.802 2.066 4.676-.5 0 .082c.878 2.725 1.846 5.502 2.662 8.321 1.021 3.528 3.765 6.135 7.405 6.46-1.26-3.423-2.448-6.663-3.64-9.907v.005Z"/></svg>