<?xml version="1.0" encoding="UTF-8" standalone="no"?>
<!-- Created with Inkscape (http://www.inkscape.org/) -->

<svg
   width="142.72662mm"
   height="67.053757mm"
   viewBox="0 0 142.72662 67.053757"
   version="1.1"
   id="svg21"
   xml:space="preserve"
   inkscape:version="1.2.2 (b0a84865, 2022-12-01)"
   sodipodi:docname="ironwood.svg"
   xmlns:inkscape="http://www.inkscape.org/namespaces/inkscape"
   xmlns:sodipodi="http://sodipodi.sourceforge.net/DTD/sodipodi-0.dtd"
   xmlns="http://www.w3.org/2000/svg"
   xmlns:svg="http://www.w3.org/2000/svg"><sodipodi:namedview
     id="namedview23"
     pagecolor="#ffffff"
     bordercolor="#000000"
     borderopacity="0.25"
     inkscape:showpageshadow="2"
     inkscape:pageopacity="0.0"
     inkscape:pagecheckerboard="0"
     inkscape:deskcolor="#d1d1d1"
     inkscape:document-units="mm"
     showgrid="false"
     inkscape:zoom="0.72515432"
     inkscape:cx="246.84401"
     inkscape:cy="48.265588"
     inkscape:window-width="1390"
     inkscape:window-height="964"
     inkscape:window-x="0"
     inkscape:window-y="25"
     inkscape:window-maximized="0"
     inkscape:current-layer="layer1" /><defs
     id="defs18" /><g
     inkscape:label="Layer 1"
     inkscape:groupmode="layer"
     id="layer1"
     transform="translate(-36.334516,-136.51948)"><g
       id="g195"
       transform="translate(0.36486487,20.067568)"><path
         style="fill:#d0d0d0;fill-opacity:1;stroke-width:0.100724"
         d="m 119.59808,183.45512 c 0.098,-0.0255 0.23398,-0.0239 0.30217,0.004 0.0682,0.0276 -0.012,0.0485 -0.17818,0.0464 -0.1662,-0.002 -0.22199,-0.0246 -0.12399,-0.0502 z m -73.528881,-0.10073 c 0.098,-0.0255 0.23398,-0.0239 0.302173,0.004 0.06819,0.0276 -0.01199,0.0485 -0.178184,0.0464 -0.166196,-0.002 -0.221991,-0.0246 -0.123989,-0.0502 z m 8.213425,0.001 c 0.07271,-0.0291 0.159585,-0.0255 0.193055,0.008 0.03347,0.0335 -0.02602,0.0573 -0.1322,0.0529 -0.117339,-0.005 -0.141206,-0.0287 -0.06086,-0.0608 z m 0.805796,0 c 0.07271,-0.0291 0.159585,-0.0255 0.193055,0.008 0.03347,0.0335 -0.02602,0.0573 -0.132201,0.0529 -0.117339,-0.005 -0.141205,-0.0287 -0.06085,-0.0608 z m 14.145496,-6.1e-4 c 0.09695,-0.0253 0.255589,-0.0253 0.352536,0 0.09695,0.0253 0.01763,0.0461 -0.176268,0.0461 -0.193895,0 -0.273215,-0.0207 -0.176268,-0.0461 z m 25.539955,6.1e-4 c 0.07271,-0.0291 0.159586,-0.0255 0.193056,0.008 0.03347,0.0335 -0.02602,0.0573 -0.132201,0.0529 -0.117339,-0.005 -0.141206,-0.0287 -0.06086,-0.0608 z m 1.913765,0 c 0.07271,-0.0291 0.159586,-0.0255 0.193056,0.008 0.03347,0.0335 -0.02602,0.0573 -0.132201,0.0529 -0.117339,-0.005 -0.141206,-0.0287 -0.06086,-0.0608 z m 11.583314,0 c 0.0727,-0.0291 0.15959,-0.0255 0.19306,0.008 0.0335,0.0335 -0.026,0.0573 -0.1322,0.0529 -0.11734,-0.005 -0.14121,-0.0287 -0.0609,-0.0608 z m 1.91377,0 c 0.0727,-0.0291 0.15958,-0.0255 0.19305,0.008 0.0335,0.0335 -0.026,0.0573 -0.1322,0.0529 -0.11734,-0.005 -0.1412,-0.0287 -0.0609,-0.0608 z m 26.28909,0 c 0.0727,-0.0291 0.15959,-0.0255 0.19306,0.008 0.0335,0.0335 -0.026,0.0573 -0.1322,0.0529 -0.11734,-0.005 -0.14121,-0.0287 -0.0609,-0.0608 z m 0.90652,0 c 0.0727,-0.0291 0.15959,-0.0255 0.19306,0.008 0.0335,0.0335 -0.026,0.0573 -0.1322,0.0529 -0.11734,-0.005 -0.14121,-0.0287 -0.0609,-0.0608 z m 18.47665,-0.005 c 0.20775,-0.0217 0.54769,-0.0217 0.75544,0 0.20774,0.0217 0.0378,0.0395 -0.37772,0.0395 -0.41549,0 -0.58546,-0.0178 -0.37772,-0.0395 z m 21.15406,0.004 c 0.098,-0.0255 0.23398,-0.0239 0.30217,0.004 0.0682,0.0276 -0.012,0.0485 -0.17818,0.0464 -0.16619,-0.002 -0.22198,-0.0246 -0.12399,-0.0502 z M 39.728697,179.99956 c 0,-0.36009 0.01828,-0.5074 0.04062,-0.32735 0.02234,0.18004 0.02234,0.47466 0,0.6547 -0.02234,0.18005 -0.04062,0.0327 -0.04062,-0.32735 z m 120.450163,0.4029 c 0,-0.1385 0.0229,-0.19516 0.0508,-0.12591 0.028,0.0693 0.028,0.18257 0,0.25181 -0.0279,0.0693 -0.0508,0.0126 -0.0508,-0.1259 z m 10.49168,-0.4029 c 0,-0.36009 0.0183,-0.5074 0.0406,-0.32735 0.0223,0.18004 0.0223,0.47466 0,0.6547 -0.0223,0.18005 -0.0406,0.0327 -0.0406,-0.32735 z m -10.49168,-0.50362 c 0,-0.1385 0.0229,-0.19516 0.0508,-0.12591 0.028,0.0692 0.028,0.18256 0,0.25181 -0.0279,0.0693 -0.0508,0.0126 -0.0508,-0.1259 z m -70.313651,-1.26745 c 0.0048,-0.11734 0.0287,-0.14121 0.06085,-0.0609 0.0291,0.0727 0.02552,0.15959 -0.0079,0.19306 -0.03347,0.0335 -0.05728,-0.026 -0.0529,-0.1322 z m 11.885491,0 c 0.005,-0.11734 0.0287,-0.14121 0.0609,-0.0609 0.0291,0.0727 0.0255,0.15959 -0.008,0.19306 -0.0335,0.0335 -0.0573,-0.026 -0.0529,-0.1322 z m 1.61159,0 c 0.005,-0.11734 0.0287,-0.14121 0.0609,-0.0609 0.0291,0.0727 0.0255,0.15959 -0.008,0.19306 -0.0335,0.0335 -0.0573,-0.026 -0.0529,-0.1322 z m 11.88549,0 c 0.005,-0.11734 0.0287,-0.14121 0.0609,-0.0609 0.0291,0.0727 0.0255,0.15959 -0.008,0.19306 -0.0335,0.0335 -0.0573,-0.026 -0.0529,-0.1322 z m 10.57607,0 c 0.005,-0.11734 0.0287,-0.14121 0.0609,-0.0609 0.0291,0.0727 0.0255,0.15959 -0.008,0.19306 -0.0335,0.0335 -0.0573,-0.026 -0.0529,-0.1322 z m 5.05368,-0.29378 c 0.001,-0.2216 0.0217,-0.30039 0.0458,-0.1751 0.0241,0.1253 0.0232,0.3066 -0.002,0.4029 -0.0252,0.0963 -0.0449,-0.006 -0.0438,-0.2278 z m -82.007191,-0.41129 c 0.0048,-0.11734 0.0287,-0.14121 0.06085,-0.0609 0.0291,0.0727 0.02552,0.15959 -0.0079,0.19306 -0.03347,0.0335 -0.05728,-0.026 -0.0529,-0.1322 z m 11.885491,0 c 0.0048,-0.11734 0.0287,-0.14121 0.06085,-0.0609 0.0291,0.0727 0.02552,0.15959 -0.0079,0.19306 -0.03347,0.0335 -0.05728,-0.026 -0.0529,-0.1322 z m -11.885491,-0.8058 c 0.0048,-0.11734 0.0287,-0.14121 0.06085,-0.0609 0.0291,0.0727 0.02552,0.15958 -0.0079,0.19305 -0.03347,0.0335 -0.05728,-0.026 -0.0529,-0.1322 z m 11.885491,0 c 0.0048,-0.11734 0.0287,-0.14121 0.06085,-0.0609 0.0291,0.0727 0.02552,0.15958 -0.0079,0.19305 -0.03347,0.0335 -0.05728,-0.026 -0.0529,-0.1322 z m 70.1217,-0.29378 c 0.001,-0.22159 0.0217,-0.30039 0.0458,-0.17509 0.0241,0.12529 0.0232,0.30659 -0.002,0.40289 -0.0252,0.0963 -0.0449,-0.006 -0.0438,-0.2278 z m -5.05368,-0.20984 c 0.005,-0.11734 0.0287,-0.14121 0.0609,-0.0609 0.0291,0.0727 0.0255,0.15959 -0.008,0.19306 -0.0335,0.0335 -0.0573,-0.026 -0.0529,-0.1322 z m -35.958641,-0.10073 c 0.0048,-0.11734 0.0287,-0.1412 0.06085,-0.0608 0.0291,0.0727 0.02552,0.15958 -0.0079,0.19305 -0.03347,0.0335 -0.05728,-0.026 -0.0529,-0.1322 z m 11.885491,0 c 0.005,-0.11734 0.0287,-0.1412 0.0609,-0.0608 0.0291,0.0727 0.0255,0.15958 -0.008,0.19305 -0.0335,0.0335 -0.0573,-0.026 -0.0529,-0.1322 z m 1.61159,0 c 0.005,-0.11734 0.0287,-0.1412 0.0609,-0.0608 0.0291,0.0727 0.0255,0.15958 -0.008,0.19305 -0.0335,0.0335 -0.0573,-0.026 -0.0529,-0.1322 z m 11.88549,0 c 0.005,-0.11734 0.0287,-0.1412 0.0609,-0.0608 0.0291,0.0727 0.0255,0.15958 -0.008,0.19305 -0.0335,0.0335 -0.0573,-0.026 -0.0529,-0.1322 z m -67.989033,-0.50362 c 0.0048,-0.11734 0.0287,-0.1412 0.06085,-0.0608 0.0291,0.0727 0.02552,0.15958 -0.0079,0.19305 -0.03347,0.0335 -0.05728,-0.026 -0.0529,-0.1322 z m 130.941843,0 c 0.005,-0.11734 0.0287,-0.1412 0.0608,-0.0608 0.0291,0.0727 0.0255,0.15958 -0.008,0.19305 -0.0335,0.0335 -0.0573,-0.026 -0.0529,-0.1322 z m -18.7268,-0.64632 c 0,-0.13849 0.0229,-0.19515 0.0508,-0.1259 0.0279,0.0692 0.0279,0.18256 0,0.25181 -0.0279,0.0693 -0.0508,0.0126 -0.0508,-0.12591 z m -112.215043,-0.2602 c 0.0048,-0.11734 0.0287,-0.14121 0.06085,-0.0608 0.0291,0.0727 0.02552,0.15958 -0.0079,0.19305 -0.03347,0.0335 -0.05728,-0.026 -0.0529,-0.1322 z m 130.941843,0 c 0.005,-0.11734 0.0287,-0.14121 0.0608,-0.0608 0.0291,0.0727 0.0255,0.15958 -0.008,0.19305 -0.0335,0.0335 -0.0573,-0.026 -0.0529,-0.1322 z m -18.7268,-0.64632 c 0,-0.13849 0.0229,-0.19515 0.0508,-0.1259 0.0279,0.0692 0.0279,0.18256 0,0.25181 -0.0279,0.0693 -0.0508,0.0126 -0.0508,-0.12591 z M 42.541925,170.96294 c 0.152346,-0.0231 0.401639,-0.0231 0.553985,0 0.152345,0.0231 0.0277,0.042 -0.276993,0.042 -0.304691,0 -0.429338,-0.0189 -0.276992,-0.042 z m 11.841423,0.003 c 0.07271,-0.0291 0.159585,-0.0255 0.193056,0.008 0.03347,0.0335 -0.02602,0.0573 -0.132201,0.0529 -0.117339,-0.005 -0.141206,-0.0287 -0.06086,-0.0608 z m 0.604347,0 c 0.07271,-0.0291 0.159585,-0.0255 0.193056,0.008 0.03347,0.0335 -0.02602,0.0573 -0.132201,0.0529 -0.117339,-0.005 -0.141206,-0.0287 -0.06085,-0.0608 z m 32.433288,0 c 0.07271,-0.0291 0.159586,-0.0255 0.193055,0.008 0.03347,0.0335 -0.02602,0.0573 -0.1322,0.0529 -0.117339,-0.005 -0.141206,-0.0287 -0.06085,-0.0608 z m 7.352888,0 c 0.07271,-0.0291 0.159586,-0.0255 0.193056,0.008 0.03347,0.0335 -0.02602,0.0573 -0.132201,0.0529 -0.117339,-0.005 -0.141206,-0.0287 -0.06086,-0.0608 z m 1.913765,0 c 0.07271,-0.0291 0.159586,-0.0255 0.193056,0.008 0.03347,0.0335 -0.02602,0.0573 -0.132201,0.0529 -0.117339,-0.005 -0.141206,-0.0287 -0.06086,-0.0608 z m 11.583314,0 c 0.0727,-0.0291 0.15959,-0.0255 0.19306,0.008 0.0335,0.0335 -0.026,0.0573 -0.1322,0.0529 -0.11734,-0.005 -0.14121,-0.0287 -0.0609,-0.0608 z m 1.91377,0 c 0.0727,-0.0291 0.15958,-0.0255 0.19305,0.008 0.0335,0.0335 -0.026,0.0573 -0.1322,0.0529 -0.11734,-0.005 -0.1412,-0.0287 -0.0609,-0.0608 z m 9.71553,-10e-4 c 0.098,-0.0255 0.23398,-0.0239 0.30218,0.004 0.0682,0.0276 -0.012,0.0485 -0.17819,0.0464 -0.16619,-0.002 -0.22199,-0.0246 -0.12399,-0.0502 z m 16.67429,10e-4 c 0.0727,-0.0291 0.15958,-0.0255 0.19306,0.008 0.0335,0.0335 -0.026,0.0573 -0.13221,0.0529 -0.11734,-0.005 -0.1412,-0.0287 -0.0608,-0.0608 z m 0.70507,0 c 0.0727,-0.0291 0.15959,-0.0255 0.19306,0.008 0.0335,0.0335 -0.026,0.0573 -0.1322,0.0529 -0.11735,-0.005 -0.14121,-0.0287 -0.0609,-0.0608 z m 11.92956,-6e-4 c 0.0969,-0.0253 0.25558,-0.0253 0.35253,0 0.0969,0.0253 0.0176,0.0461 -0.17627,0.0461 -0.19389,0 -0.27321,-0.0207 -0.17626,-0.0461 z m 6.09158,-0.003 c 0.17881,-0.0223 0.49609,-0.0226 0.70507,-8e-4 0.20899,0.0218 0.0627,0.04 -0.32511,0.0404 -0.38778,4.1e-4 -0.55876,-0.0174 -0.37996,-0.0396 z m 18.18302,5.1e-4 c 0.15234,-0.0231 0.40164,-0.0231 0.55398,0 0.15235,0.0231 0.0277,0.042 -0.27699,0.042 -0.30469,0 -0.42934,-0.0189 -0.27699,-0.042 z M 99.105024,141.35327 c 0.07271,-0.0291 0.159586,-0.0255 0.193056,0.008 0.03347,0.0335 -0.02602,0.0573 -0.132201,0.0529 -0.117339,-0.005 -0.141206,-0.0287 -0.06086,-0.0608 z m 15.310126,0 c 0.0727,-0.0291 0.15958,-0.0255 0.19305,0.008 0.0335,0.0335 -0.026,0.0573 -0.1322,0.0529 -0.11734,-0.005 -0.1412,-0.0287 -0.0609,-0.0608 z m -8.5268,-5.97466 c 0,-0.1385 0.0229,-0.19516 0.0508,-0.12591 0.0279,0.0692 0.0279,0.18256 0,0.25181 -0.0279,0.0692 -0.0508,0.0126 -0.0508,-0.1259 z m 1.71232,0 c 0,-0.1385 0.0229,-0.19516 0.0508,-0.12591 0.0279,0.0692 0.0279,0.18256 0,0.25181 -0.028,0.0692 -0.0508,0.0126 -0.0508,-0.1259 z"
         id="path201" /><path
         style="fill:#b9b9b9;fill-opacity:1;stroke-width:0.100724"
         d="m 118.84073,183.45383 c 0.12465,-0.024 0.32861,-0.024 0.45326,0 0.12465,0.024 0.0227,0.0436 -0.22663,0.0436 -0.24929,0 -0.35128,-0.0196 -0.22663,-0.0436 z m -82.871079,-6.27456 v -6.24492 h 0.856159 0.856158 v 6.24492 6.24492 H 36.82581 35.969651 Z m 3.761151,4.11347 c 0.03651,-1.1723 0.06638,-3.98956 0.06638,-6.26057 v -4.12912 l 2.014392,0.0693 c 2.245592,0.0772 2.911292,0.21517 3.764167,0.78009 2.069915,1.37106 2.304712,4.6055 0.465734,6.4157 l -0.533549,0.5252 1.123245,2.30887 c 0.617786,1.26987 1.123246,2.33432 1.123246,2.36544 0,0.075 -0.864734,0.0723 -1.424517,-0.004 l -0.445389,-0.061 -1.036588,-2.00381 -1.036588,-2.0038 h -1.201281 -1.20128 v 2.06485 2.06485 h -0.872176 -0.872175 z m 4.339283,-3.75114 c 0.521943,-0.21808 1.173147,-0.86342 1.432853,-1.41993 0.546153,-1.17034 0.08692,-2.49047 -1.103939,-3.17346 -0.501188,-0.28744 -0.572746,-0.29969 -1.75635,-0.30059 l -1.233875,-9.5e-4 v 2.51811 2.51812 h 1.161567 c 0.768883,0 1.275892,-0.0478 1.499744,-0.1413 z m 9.778164,5.73549 c -1.591774,-0.30006 -2.726931,-0.99042 -3.650516,-2.2201 -0.929879,-1.23805 -1.435919,-3.14938 -1.228115,-4.63863 0.456414,-3.27094 2.758819,-5.39922 5.835514,-5.39419 2.641436,0.004 4.828531,1.57464 5.626617,4.03989 0.327924,1.01294 0.423702,1.93036 0.299123,2.86517 -0.360381,2.7042 -2.00472,4.63054 -4.465235,5.23103 -0.932429,0.22756 -1.646823,0.26208 -2.417388,0.11683 z m 2.719562,-1.91605 c 0.825477,-0.3953 1.734857,-1.32242 2.173143,-2.21552 0.337014,-0.68674 0.344969,-0.73204 0.344969,-1.96413 0,-1.21003 -0.01308,-1.28878 -0.322464,-1.94192 -0.42543,-0.89812 -1.170078,-1.67142 -2.075331,-2.15518 -0.719942,-0.38473 -0.732211,-0.38726 -1.882996,-0.38726 -1.124224,0 -1.176752,0.01 -1.7839,0.33928 -0.823403,0.44658 -1.664845,1.33995 -2.072331,2.20023 -0.310896,0.65636 -0.323835,0.73398 -0.323835,1.94273 0,1.20765 0.01317,1.28686 0.322464,1.93981 0.364048,0.76853 1.169659,1.67898 1.826006,2.06363 0.784076,0.4595 1.107555,0.53353 2.182683,0.49957 0.862857,-0.0273 1.093877,-0.0733 1.611592,-0.32124 z m 5.38876,-4.18177 v -6.24492 l 0.982064,0.005 0.982064,0.005 2.744742,4.85076 2.744743,4.85076 v -4.85536 -4.85536 h 0.805796 0.805796 v 6.26011 6.26011 l -0.971962,-0.0639 c -0.534579,-0.0351 -0.983329,-0.0759 -0.997223,-0.0907 -0.01389,-0.0148 -1.19199,-2.0439 -2.617991,-4.50913 -1.426002,-2.46524 -2.654315,-4.54861 -2.729584,-4.62973 -0.115473,-0.12445 -0.136853,0.5876 -0.136853,4.55778 v 4.70527 h -0.805796 -0.805796 z m 33.165457,6.17512 c 0.098,-0.0255 0.23398,-0.0239 0.302174,0.004 0.06819,0.0276 -0.01199,0.0485 -0.178185,0.0464 -0.166195,-0.002 -0.221991,-0.0246 -0.123989,-0.0502 z m 1.10797,0 c 0.098,-0.0255 0.23398,-0.0239 0.302173,0.004 0.06819,0.0276 -0.01199,0.0485 -0.178184,0.0464 -0.166196,-0.002 -0.221991,-0.0246 -0.123989,-0.0502 z m 12.389112,0 c 0.098,-0.0255 0.23398,-0.0239 0.30217,0.004 0.0682,0.0276 -0.012,0.0485 -0.17818,0.0464 -0.1662,-0.002 -0.22199,-0.0246 -0.12399,-0.0502 z m 1.10797,0 c 0.098,-0.0255 0.23398,-0.0239 0.30217,0.004 0.0682,0.0276 -0.012,0.0485 -0.17818,0.0464 -0.1662,-0.002 -0.22199,-0.0246 -0.12399,-0.0502 z m 26.24254,-0.085 c -2.43589,-0.4515 -4.19017,-2.01102 -4.87379,-4.33269 -0.12902,-0.43818 -0.17456,-0.93724 -0.16954,-1.85814 0.006,-1.10967 0.0395,-1.34869 0.28195,-2.01449 0.82193,-2.25707 2.61462,-3.67342 5.08234,-4.0154 0.78604,-0.10892 1.88135,-0.005 2.66987,0.2525 0.5963,0.19498 1.42164,0.59681 1.50592,0.73317 0.0328,0.0531 -0.10634,0.43208 -0.30925,0.84216 l -0.36895,0.74561 -0.56294,-0.33898 c -0.78248,-0.47119 -1.20978,-0.56224 -2.4291,-0.51761 -0.99739,0.0365 -1.10094,0.061 -1.78353,0.42276 -0.87055,0.46131 -1.59618,1.19588 -2.0608,2.0862 -0.32976,0.63189 -0.337,0.67277 -0.337,1.9048 v 1.25906 l 0.39092,0.73162 c 0.45576,0.853 1.29814,1.68766 2.09722,2.07801 1.36693,0.66775 3.05231,0.55325 4.33317,-0.29438 0.21944,-0.14522 0.40872,-0.24931 0.42061,-0.23131 0.0119,0.018 0.16662,0.36774 0.34383,0.77719 0.22733,0.52528 0.29195,0.78092 0.21948,0.86824 -0.15528,0.18711 -1.19544,0.6296 -1.86916,0.79515 -0.93458,0.22967 -1.73804,0.26283 -2.58125,0.10653 z m 9.28611,-2.47398 v -2.62879 l -2.01449,-3.56328 c -1.10797,-1.95981 -2.01449,-3.58706 -2.01449,-3.61613 0,-0.0291 0.41926,-0.0519 0.9317,-0.0508 l 0.9317,0.002 1.35978,2.5312 c 0.74788,1.39216 1.40803,2.59721 1.46701,2.67789 0.0843,0.11536 0.42851,-0.41348 1.61159,-2.47624 l 1.50437,-2.62293 0.70507,-0.0663 c 1.42523,-0.13401 1.49921,-0.47317 -0.76957,3.52802 l -1.99895,3.52536 -0.001,2.69438 -10e-4,2.69438 h -0.85616 -0.85616 v -2.6288 z m 6.64782,-3.6322 v -6.261 l 2.3922,0.067 c 2.93458,0.0822 3.36548,0.18736 4.20402,1.0259 0.72063,0.72064 0.9836,1.40793 0.98151,2.56533 -0.002,0.916 -0.16945,1.50974 -0.58655,2.07541 l -0.2306,0.31274 0.58417,0.6007 c 0.70025,0.72007 0.94791,1.34711 0.94791,2.39991 0,0.97913 -0.24535,1.64788 -0.84551,2.30455 -0.71892,0.78661 -1.22703,0.9746 -2.91231,1.07744 -0.7491,0.0457 -2.07591,0.0853 -2.94843,0.0881 l -1.58641,0.005 z m 5.6951,4.46007 c 1.37413,-0.62418 1.50137,-2.36676 0.23409,-3.20609 -0.42224,-0.27966 -0.43376,-0.28118 -2.37095,-0.31391 l -1.94665,-0.0329 v 1.87111 1.8711 l 1.83822,-0.002 c 1.56527,-0.002 1.89867,-0.0297 2.24529,-0.18712 z m -0.59486,-5.40356 c 1.34502,-0.78823 1.24023,-2.75075 -0.18592,-3.48212 -0.31677,-0.16245 -0.59676,-0.19164 -1.83822,-0.19164 h -1.46451 v 1.96412 1.96413 h 1.52719 c 1.45157,0 1.54871,-0.0126 1.96146,-0.25449 z m 4.26713,0.95956 v -6.24492 h 3.62609 3.62608 v 0.8058 0.8058 h -2.76993 -2.76992 v 1.96412 1.96413 h 2.21594 2.21594 v 0.8058 0.80579 h -2.21594 -2.21594 v 1.86341 1.8634 h 2.82029 2.82028 v 0.8058 0.80579 h -3.67644 -3.67645 z m 9.40173,4.11347 c 0.0365,-1.1723 0.0664,-3.98956 0.0664,-6.26057 v -4.12912 l 2.01439,0.0693 c 2.24559,0.0772 2.91129,0.21517 3.76416,0.78009 2.06992,1.37106 2.30472,4.6055 0.46574,6.4157 l -0.53355,0.5252 1.12324,2.30887 c 0.6178,1.26987 1.12325,2.33432 1.12325,2.36544 0,0.075 -0.86473,0.0723 -1.42451,-0.004 l -0.4454,-0.061 -1.03658,-2.0038 -1.03659,-2.0038 h -1.20128 -1.20128 v 2.06485 2.06485 h -0.87218 -0.87217 z m 4.33928,-3.75114 c 0.52195,-0.21808 1.17315,-0.86342 1.43286,-1.41993 0.54615,-1.17034 0.0869,-2.49047 -1.10394,-3.17346 -0.5012,-0.28744 -0.57275,-0.29969 -1.75636,-0.30059 l -1.23387,-9.5e-4 v 2.51811 2.51812 h 1.16156 c 0.76888,0 1.2759,-0.0478 1.49975,-0.1413 z m -85.135037,0.29238 c 0.0021,-0.16619 0.02463,-0.22199 0.05017,-0.12399 0.02554,0.098 0.02386,0.23398 -0.0037,0.30218 -0.02759,0.0682 -0.04849,-0.012 -0.04643,-0.17819 z m 11.885487,0 c 0.002,-0.16619 0.0246,-0.22199 0.0502,-0.12399 0.0255,0.098 0.0239,0.23398 -0.004,0.30218 -0.0276,0.0682 -0.0485,-0.012 -0.0464,-0.17819 z m 1.6116,0 c 0.002,-0.16619 0.0246,-0.22199 0.0502,-0.12399 0.0255,0.098 0.0239,0.23398 -0.004,0.30218 -0.0276,0.0682 -0.0485,-0.012 -0.0464,-0.17819 z m 11.88549,0 c 0.002,-0.16619 0.0246,-0.22199 0.0502,-0.12399 0.0255,0.098 0.0239,0.23398 -0.004,0.30218 -0.0276,0.0682 -0.0485,-0.012 -0.0464,-0.17819 z m 10.57607,0 c 0.002,-0.16619 0.0246,-0.22199 0.0502,-0.12399 0.0255,0.098 0.0239,0.23398 -0.004,0.30218 -0.0276,0.0682 -0.0485,-0.012 -0.0464,-0.17819 z m 0,-1.20869 c 0.002,-0.1662 0.0246,-0.22199 0.0502,-0.12399 0.0255,0.098 0.0239,0.23398 -0.004,0.30217 -0.0276,0.0682 -0.0485,-0.012 -0.0464,-0.17818 z m -35.958647,-0.10073 c 0.0021,-0.16619 0.02463,-0.22199 0.05017,-0.12398 0.02554,0.098 0.02386,0.23398 -0.0037,0.30217 -0.02759,0.0682 -0.04849,-0.012 -0.04643,-0.17819 z m 11.885487,0 c 0.002,-0.16619 0.0246,-0.22199 0.0502,-0.12398 0.0255,0.098 0.0239,0.23398 -0.004,0.30217 -0.0276,0.0682 -0.0485,-0.012 -0.0464,-0.17819 z m 1.6116,0 c 0.002,-0.16619 0.0246,-0.22199 0.0502,-0.12398 0.0255,0.098 0.0239,0.23398 -0.004,0.30217 -0.0276,0.0682 -0.0485,-0.012 -0.0464,-0.17819 z m 11.88549,0 c 0.002,-0.16619 0.0246,-0.22199 0.0502,-0.12398 0.0255,0.098 0.0239,0.23398 -0.004,0.30217 -0.0276,0.0682 -0.0485,-0.012 -0.0464,-0.17819 z m -27.542609,-5.55619 c 0.06925,-0.0279 0.182563,-0.0279 0.251811,0 0.06925,0.0279 0.01259,0.0508 -0.125905,0.0508 -0.138497,0 -0.195154,-0.0229 -0.125906,-0.0508 z m 7.405167,-0.003 c 0.098,-0.0255 0.23398,-0.0239 0.302174,0.004 0.06819,0.0276 -0.01199,0.0485 -0.178185,0.0464 -0.166195,-0.002 -0.221991,-0.0246 -0.123989,-0.0502 z m 1.10797,0 c 0.098,-0.0255 0.23398,-0.0239 0.302173,0.004 0.06819,0.0276 -0.01199,0.0485 -0.178184,0.0464 -0.166196,-0.002 -0.221991,-0.0246 -0.123989,-0.0502 z m 12.389112,0 c 0.098,-0.0255 0.23398,-0.0239 0.30217,0.004 0.0682,0.0276 -0.012,0.0485 -0.17818,0.0464 -0.1662,-0.002 -0.22199,-0.0246 -0.12399,-0.0502 z m 1.10797,0 c 0.098,-0.0255 0.23398,-0.0239 0.30217,0.004 0.0682,0.0276 -0.012,0.0485 -0.17818,0.0464 -0.1662,-0.002 -0.22199,-0.0246 -0.12399,-0.0502 z m 9.36685,-0.002 c 0.1531,-0.0231 0.37973,-0.0225 0.50362,0.001 0.12388,0.0239 -0.001,0.0429 -0.27838,0.0421 -0.27699,-8.1e-4 -0.37835,-0.0203 -0.22524,-0.0435 z m -4.76062,-23.28986 c 0,-0.0521 0.0448,-0.12247 0.0996,-0.15632 0.0571,-0.0353 0.074,0.005 0.0396,0.0948 -0.067,0.1745 -0.13916,0.20643 -0.13916,0.0615 z m -15.685924,-6.32066 c 0.098,-0.0255 0.23398,-0.0239 0.302173,0.004 0.06819,0.0276 -0.01199,0.0485 -0.178185,0.0464 -0.166195,-0.002 -0.22199,-0.0246 -0.123988,-0.0502 z m 16.115914,0 c 0.098,-0.0255 0.23398,-0.0239 0.30218,0.004 0.0682,0.0276 -0.012,0.0485 -0.17819,0.0464 -0.16619,-0.002 -0.22199,-0.0246 -0.12399,-0.0502 z m -25.804612,-5.22663 c 0.0048,-0.11734 0.0287,-0.14121 0.06085,-0.0609 0.0291,0.0727 0.02552,0.15959 -0.0079,0.19306 -0.03347,0.0335 -0.05728,-0.026 -0.0529,-0.1322 z m 16.933402,-1.2003 c 0.002,-0.1662 0.0246,-0.22199 0.0502,-0.12399 0.0255,0.098 0.0239,0.23398 -0.004,0.30217 -0.0276,0.0682 -0.0485,-0.012 -0.0464,-0.17818 z m 1.71231,0 c 0.002,-0.1662 0.0246,-0.22199 0.0502,-0.12399 0.0255,0.098 0.0239,0.23398 -0.004,0.30217 -0.0276,0.0682 -0.0485,-0.012 -0.0464,-0.17818 z m -18.746436,-0.10912 c 0.0048,-0.11734 0.0287,-0.14121 0.06085,-0.0609 0.0291,0.0727 0.02552,0.15959 -0.0079,0.19306 -0.03347,0.0335 -0.05728,-0.026 -0.0529,-0.1322 z m 35.757196,0 c 0.005,-0.11734 0.0287,-0.14121 0.0609,-0.0609 0.0291,0.0727 0.0255,0.15959 -0.008,0.19306 -0.0335,0.0335 -0.0573,-0.026 -0.0529,-0.1322 z m -35.757196,-0.90652 c 0.0048,-0.11734 0.0287,-0.14121 0.06085,-0.0609 0.0291,0.0727 0.02552,0.15959 -0.0079,0.19306 -0.03347,0.0335 -0.05728,-0.026 -0.0529,-0.1322 z m 35.757196,0 c 0.005,-0.11734 0.0287,-0.14121 0.0609,-0.0609 0.0291,0.0727 0.0255,0.15959 -0.008,0.19306 -0.0335,0.0335 -0.0573,-0.026 -0.0529,-0.1322 z m -18.3587,-17.43539 c 0.0727,-0.0291 0.15959,-0.0255 0.19306,0.008 0.0335,0.0335 -0.026,0.0573 -0.1322,0.0529 -0.11734,-0.005 -0.14121,-0.0287 -0.0609,-0.0608 z m 0.90652,0 c 0.0727,-0.0291 0.15959,-0.0255 0.19306,0.008 0.0335,0.0335 -0.026,0.0573 -0.1322,0.0529 -0.11734,-0.005 -0.14121,-0.0287 -0.0609,-0.0608 z"
         id="path199" /><path
         style="fill:#a3a3a3;fill-opacity:1;stroke-width:0.100724"
         d="m 116.75787,177.17333 v -6.32409 l 2.12375,0.0727 c 1.3071,0.0447 2.34318,0.12952 2.69438,0.22055 1.7592,0.45598 3.20569,1.64113 3.99456,3.27286 0.38749,0.80149 0.47711,1.10122 0.55523,1.85703 0.0566,0.5477 0.0571,1.25093 0.001,1.79252 -0.25368,2.45644 -2.25358,4.64782 -4.69894,5.14882 -0.38032,0.0779 -1.58667,0.17364 -2.68079,0.21271 l -1.98931,0.071 v -6.32409 z m 4.86955,4.08397 c 0.67153,-0.25941 1.83788,-1.28514 2.23056,-1.96162 0.5185,-0.89325 0.67809,-2.16097 0.40435,-3.21194 -0.20838,-0.80002 -0.46234,-1.26123 -1.04258,-1.89338 -0.96226,-1.04834 -2.09769,-1.49361 -3.81786,-1.49724 l -0.83098,-0.002 v 4.44403 4.44404 l 1.23388,-0.0474 c 0.95759,-0.0368 1.36571,-0.0983 1.82263,-0.27479 z m -44.013033,1.99601 c -0.05796,-0.0753 -1.003887,-2.3126 -2.102064,-4.97172 -1.098178,-2.65913 -2.23655,-5.41269 -2.529714,-6.11902 l -0.533028,-1.28424 0.926458,0.001 0.926458,10e-4 1.646645,3.87638 c 0.905654,2.13201 1.6798,3.85589 1.720324,3.83085 0.04052,-0.025 0.813276,-1.77517 1.717228,-3.88916 1.034013,-2.41815 1.671694,-3.79269 1.719434,-3.7063 0.04174,0.0755 0.720364,1.72374 1.508061,3.66269 0.787698,1.93895 1.490912,3.63867 1.562699,3.77717 0.15226,0.29375 -0.08463,0.77861 2.065167,-4.22687 l 1.363487,-3.17467 0.550278,-0.08 c 0.302654,-0.044 0.762677,-0.067 1.022275,-0.0512 l 0.471996,0.0288 -2.612391,6.09267 c -1.436816,3.35096 -2.612392,6.15956 -2.612392,6.24132 0,0.42206 -0.396793,-0.45535 -1.814343,-4.012 -1.410773,-3.53964 -1.551223,-3.84547 -1.665289,-3.62608 -0.13625,0.26205 -3.119405,7.40667 -3.185279,7.6287 -0.03425,0.11545 -0.05717,0.11545 -0.14601,0 z m 17.497878,0.0104 c -1.544846,-0.16361 -3.253177,-1.34727 -4.064987,-2.81654 -0.649626,-1.17573 -0.802848,-1.7971 -0.807216,-3.27354 -0.0028,-0.95682 0.04344,-1.47216 0.171817,-1.91377 0.681864,-2.34548 2.607711,-4.05034 4.834928,-4.28013 0.503612,-0.052 1.229297,-0.0514 1.743877,0.001 1.78704,0.18321 3.535746,1.37098 4.372486,2.9699 0.58575,1.11931 0.72044,1.72431 0.71747,3.22263 -0.002,1.14081 -0.0358,1.40455 -0.26025,2.04819 -0.55158,1.58155 -1.49067,2.70775 -2.842176,3.40845 -0.44221,0.22927 -0.98532,0.46205 -1.20691,0.51728 -0.60799,0.15155 -1.823488,0.20465 -2.659039,0.11616 z m 1.713589,-1.7091 c 0.86782,-0.16196 1.71573,-0.63521 2.33339,-1.30236 0.66881,-0.7224 0.939306,-1.25868 1.145916,-2.27182 0.19314,-0.94713 0.073,-1.9858 -0.327776,-2.83292 -0.38507,-0.81395 -1.23763,-1.68315 -2.03689,-2.07662 -0.63776,-0.31397 -0.72206,-0.32914 -1.829026,-0.32914 -1.06129,0 -1.208513,0.0236 -1.722921,0.27623 -0.709632,0.3485 -1.727527,1.39458 -2.056742,2.11368 -0.389589,0.85097 -0.508115,1.91429 -0.317549,2.84877 0.210445,1.03195 0.482786,1.56063 1.197525,2.32468 1.022238,1.09278 2.225247,1.5087 3.614073,1.2495 z m 11.783496,1.70909 c -1.54485,-0.16361 -3.25318,-1.34727 -4.06499,-2.81654 -0.64962,-1.17573 -0.80285,-1.7971 -0.80721,-3.27354 -0.003,-0.95682 0.0434,-1.47216 0.17181,-1.91377 0.68187,-2.34548 2.60771,-4.05034 4.83493,-4.28013 0.50361,-0.052 1.2293,-0.0514 1.74388,0.001 1.78704,0.18321 3.53575,1.37098 4.37249,2.9699 0.58574,1.11931 0.72044,1.72431 0.71746,3.22263 -0.002,1.14081 -0.0358,1.40455 -0.26025,2.04819 -0.55158,1.58155 -1.49066,2.70775 -2.84217,3.40845 -0.44221,0.22927 -0.98532,0.46205 -1.20691,0.51728 -0.60799,0.15155 -1.82349,0.20465 -2.65904,0.11616 z m 1.71359,-1.7091 c 0.86781,-0.16196 1.71573,-0.63521 2.33339,-1.30236 0.66881,-0.7224 0.93931,-1.25868 1.14592,-2.27182 0.19315,-0.94713 0.073,-1.9858 -0.32779,-2.83292 -0.38506,-0.81395 -1.23762,-1.68315 -2.03688,-2.07662 -0.63776,-0.31397 -0.72206,-0.32914 -1.82903,-0.32914 -1.06129,0 -1.20851,0.0236 -1.72292,0.27623 -0.70963,0.3485 -1.72753,1.39458 -2.05674,2.11368 -0.38959,0.85097 -0.50812,1.91429 -0.31755,2.84877 0.21045,1.03195 0.48279,1.56063 1.19753,2.32468 1.02223,1.09278 2.22524,1.5087 3.61407,1.2495 z m -4.54404,-29.05849 v -9.71991 h 1.30942 1.30942 v 9.71991 9.71992 h -1.30942 -1.30942 z m 9.96595,-2.91276 c -0.0863,-0.17073 -0.35823,-0.68696 -0.60435,-1.14717 -0.43898,-0.82086 -0.44365,-0.83954 -0.24603,-0.98393 0.1108,-0.081 0.58672,-0.42383 1.05761,-0.76196 1.88179,-1.35126 3.93501,-3.7821 4.88436,-5.78267 0.43977,-0.92672 0.9839,-2.53489 1.20811,-3.57054 0.22511,-1.03983 0.31198,-3.75936 0.15893,-4.97528 -0.31705,-2.51891 -1.31647,-4.99106 -2.85928,-7.07267 -0.66046,-0.89112 -2.33855,-2.56921 -3.22967,-3.22967 -2.67233,-1.98062 -5.64316,-2.95233 -9.02621,-2.95233 -3.38305,0 -6.35388,0.97171 -9.026206,2.95233 -0.89112,0.66046 -2.569214,2.33855 -3.229676,3.22967 -1.542802,2.08161 -2.542224,4.55376 -2.859279,7.07267 -0.167611,1.3316 -0.0667,3.94838 0.196405,5.09321 0.952748,4.14558 3.359315,7.55655 6.98774,9.90415 0.13257,0.0858 0.0558,0.2679 -0.51715,1.22702 l -0.67282,1.12629 -0.87989,-0.58766 c -1.965681,-1.31283 -3.414551,-2.77004 -4.759989,-4.78738 -1.779747,-2.66854 -2.785419,-5.58058 -3.051386,-8.83565 -0.16684,-2.04188 0.145012,-4.63604 0.797167,-6.63129 0.358811,-1.09777 1.32586,-3.16525 1.927626,-4.12113 3.008269,-4.7785 8.117268,-7.8107 13.903948,-8.25201 5.70885,-0.43537 11.82887,2.28993 15.24526,6.78885 0.8783,1.15661 1.35835,1.95086 2.04106,3.37692 0.72161,1.50733 1.15374,2.78931 1.42311,4.22186 0.74206,3.9463 0.20422,7.86353 -1.56485,11.39711 -1.50146,2.99904 -3.54213,5.29533 -6.25434,7.03776 l -0.89333,0.57392 z M 97.418764,133.52469 v -7.87166 h 1.46051 1.460496 v 3.62609 3.62608 h 2.97138 2.97138 v 0.58915 c 0,0.32403 -0.0295,0.93755 -0.0654,1.36337 l -0.0654,0.77422 -2.93927,2.55707 c -1.6166,1.40639 -3.07673,2.67272 -3.244706,2.81407 -0.27288,0.22961 -0.42498,0.26427 -1.42716,0.32513 l -1.12173,0.0681 z m 17.576426,7.75047 c -0.48759,-0.0605 -0.60617,-0.15195 -3.7268,-2.8725 l -3.22319,-2.80995 -0.0646,-0.56314 c -0.0355,-0.30973 -0.0695,-0.91442 -0.0755,-1.34376 l -0.0109,-0.78061 h 2.97137 2.97137 v -3.62608 -3.62609 h 1.51087 1.51087 v 7.85652 7.85651 l -0.67989,-0.0142 c -0.37394,-0.008 -0.90652,-0.0423 -1.18352,-0.0767 z"
         id="path197" /></g></g></svg>
