<?xml version="1.0" encoding="UTF-8" standalone="no"?>
<!-- Created with Inkscape (http://www.inkscape.org/) -->

<svg
   width="177.59991mm"
   height="23.585381mm"
   viewBox="0 0 177.59991 23.585381"
   version="1.1"
   id="svg4856"
   xml:space="preserve"
   inkscape:version="1.2.2 (b0a84865, 2022-12-01)"
   sodipodi:docname="rebelspace.svg"
   xmlns:inkscape="http://www.inkscape.org/namespaces/inkscape"
   xmlns:sodipodi="http://sodipodi.sourceforge.net/DTD/sodipodi-0.dtd"
   xmlns="http://www.w3.org/2000/svg"
   xmlns:svg="http://www.w3.org/2000/svg"><sodipodi:namedview
     id="namedview4858"
     pagecolor="#ffffff"
     bordercolor="#000000"
     borderopacity="0.25"
     inkscape:showpageshadow="2"
     inkscape:pageopacity="0.0"
     inkscape:pagecheckerboard="0"
     inkscape:deskcolor="#d1d1d1"
     inkscape:document-units="mm"
     showgrid="false"
     inkscape:zoom="0.49512355"
     inkscape:cx="233.27511"
     inkscape:cy="-133.30006"
     inkscape:window-width="1390"
     inkscape:window-height="964"
     inkscape:window-x="0"
     inkscape:window-y="25"
     inkscape:window-maximized="0"
     inkscape:current-layer="layer1" /><defs
     id="defs4853" /><g
     inkscape:label="Layer 1"
     inkscape:groupmode="layer"
     id="layer1"
     transform="translate(-27.924408,-217.70202)"><g
       id="g7200" /><g
       id="g8203"><g
         id="g8272"
         transform="translate(-3.4007634,46.854962)"><g
           id="g10882"
           transform="translate(10.954757,58.247246)"><path
             style="fill:#a7a9ac;fill-opacity:1;stroke-width:0.227692"
             d="M 20.370414,124.36048 V 112.6005 l 4.496921,0.15626 c 2.938771,0.10211 4.854441,0.27224 5.52875,0.491 2.439178,0.79134 3.914151,3.0047 3.914151,5.87363 0,1.90759 -0.463614,3.21017 -1.605407,4.5106 l -0.709771,0.80839 0.585597,0.5462 c 0.958102,0.89364 1.628467,2.47645 1.804208,4.25995 l 0.161307,1.63702 h -1.281727 -1.281727 v -1.26362 c 0,-1.51769 -0.40095,-2.36856 -1.51807,-3.22153 -0.815624,-0.62277 -0.915697,-0.63967 -4.212545,-0.71126 l -3.377073,-0.0733 v 5.25332 5.25333 h -1.252307 -1.252307 z m 9.171924,-1.53286 c 0.402977,-0.17291 1.091301,-0.69091 1.529609,-1.1511 0.763373,-0.8015 0.796923,-0.90755 0.796923,-2.51912 0,-1.61304 -0.03285,-1.71658 -0.796923,-2.5114 -1.312392,-1.36521 -1.687159,-1.47322 -5.111767,-1.47322 h -3.085152 v 3.98462 3.98461 h 2.967312 c 2.018164,0 3.201674,-0.10056 3.699998,-0.31439 z m 7.904991,1.5667 v -11.72615 h 7.28615 7.28615 v 1.36615 1.36616 h -5.919997 -5.919997 v 3.75692 3.75692 h 4.553844 4.553844 v 1.36615 1.36616 h -4.553844 -4.553844 v 3.87076 3.87077 h 5.919997 5.919997 v 1.36615 1.36616 h -7.28615 -7.28615 z m 17.304607,-6.6e-4 v -11.79154 l 4.610767,0.1634 c 3.839416,0.13606 4.780081,0.23795 5.622847,0.60908 1.611838,0.7098 2.438381,1.47388 3.094385,2.86056 1.161296,2.45478 0.733652,5.314 -1.125214,7.52314 l -0.573204,0.68121 0.657915,0.63032 c 1.033165,0.98984 1.641909,2.65906 1.641909,4.50222 0,2.97024 -1.783306,5.38419 -4.480179,6.06455 -0.500923,0.12636 -2.831922,0.3015 -5.179998,0.38918 l -4.269228,0.15941 z m 9.592872,8.63126 c 2.039972,-1.03351 2.662808,-3.98973 1.234982,-5.86171 -0.997351,-1.30758 -1.717662,-1.51658 -5.226883,-1.51658 H 57.25655 v 4.00062 4.00062 l 3.244614,-0.15973 c 1.940135,-0.0955 3.48545,-0.28174 3.843644,-0.46321 z m -0.55693,-10.12509 c 0.785226,-0.29667 1.823864,-1.25481 2.25515,-2.08036 0.176664,-0.33816 0.32121,-1.0861 0.32121,-1.66207 0,-1.19788 -0.363882,-2.01338 -1.288902,-2.88859 -0.992713,-0.93926 -1.689806,-1.09603 -4.87361,-1.09603 H 57.25655 v 3.98462 3.98461 h 2.945176 c 1.619848,0 3.233616,-0.10898 3.586152,-0.24218 z m 7.81328,6.61756 v -6.60307 h 6.033844 6.033843 v 1.36144 1.36144 l -4.610767,0.0616 -4.610767,0.0616 v 3.75692 3.75692 l 5.863074,0.0608 5.863074,0.0608 v 1.36231 1.36231 h -7.28615 -7.286151 z m 17.304608,-5.12307 v -11.72615 h 1.366153 1.366153 v 10.36 10.35999 h 5.919997 5.920001 v 1.36615 1.36616 h -7.286154 -7.28615 z m 31.193834,10.4113 v -1.3735 l 2.14692,-0.0789 c 2.37173,-0.0872 2.97435,-0.35981 3.94384,-1.78428 0.78977,-1.1604 0.72126,-3.06093 -0.15388,-4.26903 -0.82454,-1.13823 -1.94045,-1.57206 -4.56025,-1.77285 -3.0239,-0.23175 -4.68949,-1.30882 -5.7641,-3.72738 -0.60699,-1.36613 -0.60699,-3.91843 0,-5.28456 1.14216,-2.57059 2.71198,-3.50707 6.2795,-3.74604 l 2.43412,-0.16306 v 1.39723 1.39723 h -2.15515 c -2.09252,0 -2.17889,0.0208 -2.97163,0.71687 -1.09145,0.9583 -1.4763,1.76875 -1.4763,3.10892 0,0.7826 0.15308,1.34101 0.51231,1.86883 0.9316,1.3688 1.54462,1.65164 4.24773,1.95988 3.49569,0.39862 4.93856,1.20122 6.02703,3.35254 0.55326,1.0935 0.64308,1.53734 0.64308,3.1777 0,1.59257 -0.0957,2.09549 -0.5808,3.05284 -1.13799,2.24571 -2.78865,3.1398 -6.23858,3.37915 l -2.33384,0.16192 z m 12.82206,1.15022 c -0.46977,-0.0858 -0.50207,-0.22864 -0.57096,-2.52471 -0.0402,-1.33856 -0.1042,-6.57319 -0.1423,-11.63253 l -0.0693,-9.19879 4.73869,0.16362 c 3.97278,0.13718 4.90226,0.23581 5.75076,0.61024 2.53836,1.12016 3.70621,2.92496 3.70621,5.72759 0,2.72305 -1.02737,4.49384 -3.25225,5.60563 -1.23089,0.61508 -1.60468,0.68083 -4.72654,0.83137 l -3.38995,0.16347 -0.16249,5.03503 c -0.0894,2.76927 -0.18117,5.04785 -0.20401,5.0635 -0.18613,0.12759 -1.27731,0.22877 -1.6779,0.15558 z m 8.50926,-13.05601 c 0.78522,-0.29667 1.82386,-1.25481 2.25515,-2.08036 0.17666,-0.33816 0.32121,-1.0861 0.32121,-1.66207 0,-1.19788 -0.36388,-2.01338 -1.2889,-2.88859 -0.99272,-0.93926 -1.68981,-1.09603 -4.87361,-1.09603 h -2.94518 v 3.98462 3.98461 h 2.94518 c 1.61984,0 3.23361,-0.10898 3.58615,-0.24218 z m 7.8989,4.39756 c 0.087,-4.85269 0.25446,-9.18326 0.37219,-9.62349 0.99478,-3.7199 5.44874,-5.82786 9.24915,-4.37741 1.84445,0.70394 2.72823,1.51857 3.61001,3.32752 l 0.79094,1.62262 0.15384,8.93692 0.15383,8.93692 h -1.28779 -1.2878 v -2.61846 -2.61846 h -4.66769 -4.66769 v 2.61846 2.61846 h -1.28857 -1.28857 z m 11.70242,-3.42953 c 0.037,-2.62942 -0.0366,-4.76288 -0.18302,-5.30675 -0.29096,-1.08052 -1.52106,-2.51423 -2.59402,-3.02338 -0.94119,-0.44663 -2.62183,-0.47196 -3.62076,-0.0546 -0.9671,0.40408 -2.56168,2.22528 -2.74325,3.13311 -0.19383,0.96916 -0.18145,9.42 0.0141,9.61554 0.0861,0.0861 2.1609,0.12875 4.61076,0.0949 l 4.4543,-0.0616 z m 11.19076,12.01622 c -3.16734,-0.51683 -5.42211,-2.97228 -5.80049,-6.31674 l -0.16022,-1.4161 h 1.36737 1.36737 l 0.10249,1.23588 c 0.11333,1.36664 0.77174,2.44048 2.05953,3.35901 0.60886,0.43428 1.03027,0.52818 2.37016,0.52818 1.47821,0 1.70956,-0.0647 2.48988,-0.69625 1.22666,-0.99282 1.70176,-1.71192 1.84714,-2.79576 l 0.12715,-0.94798 h 1.36202 1.36203 l -0.16117,1.08153 c -0.59623,4.00096 -4.26905,6.63142 -8.33326,5.96823 z m 11.17503,-11.48976 v -11.72615 h 7.28615 7.28615 v 1.36615 1.36616 h -5.80615 -5.80615 v 3.75692 3.75692 h 4.55384 4.55385 v 1.36615 1.36616 h -4.55385 -4.55384 v 3.87076 3.87077 h 5.80615 5.80615 v 1.36615 1.36616 h -7.28615 -7.28615 z m -151.625031,9.77179 c 0.01093,-0.26525 0.06488,-0.3192 0.137564,-0.13756 0.06577,0.16436 0.05768,0.36074 -0.01798,0.43641 -0.07566,0.0757 -0.129475,-0.0588 -0.119589,-0.29885 z m 0.850101,-0.93349 c 0.164365,-0.0658 0.36075,-0.0577 0.43641,0.018 0.07566,0.0757 -0.05882,0.12947 -0.298846,0.11959 -0.265248,-0.0109 -0.319202,-0.0649 -0.137564,-0.13757 z m 39.846135,-12.75076 c 0.164364,-0.0658 0.360751,-0.0577 0.436411,0.018 0.07566,0.0757 -0.05882,0.12948 -0.298846,0.11959 -0.26525,-0.0109 -0.319202,-0.0649 -0.137565,-0.13756 z m 93.946585,-1.26754 c 0.29121,-2.69924 1.70901,-4.78007 3.95872,-5.81002 1.72302,-0.78882 4.51474,-0.78882 6.23776,0 2.16024,0.98899 3.58751,2.96547 3.94895,5.46848 l 0.15618,1.08154 h -1.39201 -1.392 v -0.69804 c 0,-0.86367 -0.30384,-1.47301 -1.22271,-2.45215 -1.01108,-1.0774 -1.75888,-1.40365 -3.21729,-1.40365 -1.51923,0 -2.25951,0.34441 -3.36109,1.56373 -0.62077,0.68712 -0.88885,1.24866 -1.09405,2.29166 l -0.2718,1.38153 h -1.25209 -1.2521 z m -94.796685,0.37949 c 0.01093,-0.26525 0.06488,-0.3192 0.137562,-0.13757 0.06577,0.16437 0.05769,0.36075 -0.01797,0.43641 -0.07566,0.0757 -0.129475,-0.0588 -0.119588,-0.29884 z m -0.01798,-5.55949 v -1.36615 h 7.286151 7.28615 v 1.36615 1.36616 h -7.28615 -7.286151 z"
             id="path8207" /><rect
             style="fill:#929292;fill-opacity:1;stroke-width:0.264583"
             id="rect10759"
             width="2.7219899"
             height="2.6718922"
             x="115.08585"
             y="133.41425" /><rect
             style="fill:#929292;fill-opacity:1;stroke-width:0.264583"
             id="rect10759-9"
             width="2.7219899"
             height="2.6718922"
             x="126.82889"
             y="112.6841" /><rect
             style="fill:#929292;fill-opacity:1;stroke-width:0.264583"
             id="rect10759-4"
             width="2.7219899"
             height="2.6718922"
             x="166.32773"
             y="122.94378" /><rect
             style="fill:#929292;fill-opacity:1;stroke-width:0.264583"
             id="rect10759-1"
             width="2.7219899"
             height="2.6718922"
             x="71.609161"
             y="117.767" /><rect
             style="fill:#929292;fill-opacity:1;stroke-width:0.264583"
             id="rect10759-7"
             width="2.7219899"
             height="2.6718922"
             x="31.914532"
             y="133.39569" /></g></g></g></g></svg>
