<?xml version="1.0" encoding="UTF-8" standalone="no"?>
<!-- Created with Inkscape (http://www.inkscape.org/) -->

<svg
   width="70.507675"
   height="70"
   viewBox="0 0 18.655155 18.520833"
   version="1.1"
   id="svg5"
   xml:space="preserve"
   inkscape:version="1.2.2 (b0a84865, 2022-12-01)"
   sodipodi:docname="syllab.svg"
   xmlns:inkscape="http://www.inkscape.org/namespaces/inkscape"
   xmlns:sodipodi="http://sodipodi.sourceforge.net/DTD/sodipodi-0.dtd"
   xmlns="http://www.w3.org/2000/svg"
   xmlns:svg="http://www.w3.org/2000/svg"><sodipodi:namedview
     id="namedview7"
     pagecolor="#ffffff"
     bordercolor="#000000"
     borderopacity="0.25"
     inkscape:showpageshadow="2"
     inkscape:pageopacity="0.0"
     inkscape:pagecheckerboard="0"
     inkscape:deskcolor="#d1d1d1"
     inkscape:document-units="mm"
     showgrid="false"
     inkscape:zoom="5.8012346"
     inkscape:cx="30.079804"
     inkscape:cy="36.371569"
     inkscape:window-width="1390"
     inkscape:window-height="964"
     inkscape:window-x="0"
     inkscape:window-y="25"
     inkscape:window-maximized="0"
     inkscape:current-layer="g2320" /><defs
     id="defs2" /><g
     inkscape:label="Layer 1"
     inkscape:groupmode="layer"
     id="layer1"
     transform="translate(-46.323451,-134.66535)"><g
       id="g2320"
       transform="translate(-8.7567568,104.35135)"><path
         style="fill:#d0d0d0;fill-opacity:1;stroke-width:0.117593"
         d="m 97.658712,108.33328 c 0.08085,-0.0326 0.213137,-0.0326 0.293982,0 0.08085,0.0326 0.0147,0.0593 -0.146991,0.0593 -0.16169,0 -0.227836,-0.0267 -0.146991,-0.0593 z m 2.939818,0 c 0.0808,-0.0326 0.21313,-0.0326 0.29398,0 0.0808,0.0326 0.0147,0.0593 -0.14699,0.0593 -0.16169,0 -0.22784,-0.0267 -0.14699,-0.0593 z M 75.825172,85.999971 c 0.0056,-0.136989 0.03351,-0.164853 0.07104,-0.07105 0.03397,0.08489 0.02979,0.186312 -0.0093,0.225386 -0.03908,0.03907 -0.06687,-0.03038 -0.06176,-0.15434 z m 0,-1.999074 c 0.0056,-0.136989 0.03351,-0.164853 0.07104,-0.07105 0.03397,0.08489 0.02979,0.186312 -0.0093,0.225386 -0.03908,0.03907 -0.06687,-0.03038 -0.06176,-0.15434 z m 21.83354,-22.351875 c 0.08085,-0.03262 0.213137,-0.03262 0.293982,0 0.08085,0.03262 0.0147,0.05931 -0.146991,0.05931 -0.16169,0 -0.227836,-0.02669 -0.146991,-0.05931 z m 3.292588,0 c 0.0808,-0.03262 0.21314,-0.03262 0.29399,0 0.0808,0.03262 0.0147,0.05931 -0.14699,0.05931 -0.16169,0 -0.22784,-0.02669 -0.147,-0.05931 z"
         id="path2326" /><path
         style="fill:#a7a9ac;fill-opacity:1;stroke-width:0.0216075"
         d="m 65.729094,48.715753 c -0.09507,-0.02721 -0.454836,-0.129158 -0.799473,-0.226553 -0.344638,-0.09739 -0.952348,-0.269283 -1.350463,-0.38197 -0.398117,-0.11269 -0.981517,-0.277781 -1.296446,-0.366872 -0.314927,-0.08909 -0.757339,-0.214244 -0.983137,-0.278119 -1.110792,-0.314232 -1.774799,-0.502178 -2.247171,-0.636061 -0.285218,-0.08084 -0.801962,-0.227034 -1.14832,-0.324876 l -0.629743,-0.177897 -0.045,-0.18678 c -0.02475,-0.10273 -0.10745,-0.429862 -0.183785,-0.726965 -0.07633,-0.297101 -0.227922,-0.890223 -0.336869,-1.318052 C 56.59974,43.663782 56.45839,43.109553 56.394575,42.859987 55.508361,39.3942 55.067644,37.634671 55.08048,37.613562 c 0.0087,-0.01418 0.147414,-0.152179 0.308423,-0.306662 0.161009,-0.154483 0.730295,-0.708229 1.265078,-1.230548 0.534783,-0.522319 1.10846,-1.081734 1.274837,-1.243147 0.267608,-0.25962 2.422817,-2.359499 3.245999,-3.162662 0.238181,-0.23239 0.316018,-0.29643 0.345717,-0.284435 0.02108,0.0086 0.174457,0.05411 0.340833,0.101313 0.492493,0.139743 1.567344,0.443931 2.020294,0.571751 0.231739,0.0654 0.586642,0.165773 0.78867,0.223059 0.20203,0.05729 0.484006,0.136163 0.626615,0.175281 0.142608,0.03912 0.262456,0.07334 0.266326,0.07606 0.0039,0.0027 -0.151679,0.158966 -0.345661,0.347221 -0.193985,0.188256 -0.605768,0.590997 -0.915075,0.894982 -0.309309,0.303985 -0.587195,0.56896 -0.617528,0.588835 -0.05999,0.0393 -0.0076,0.05192 -1.211817,-0.291963 l -0.317295,-0.09061 -0.492186,0.474013 c -0.270701,0.260706 -0.92037,0.892681 -1.443708,1.404387 -0.523338,0.511707 -1.141129,1.114025 -1.372868,1.338486 -1.085557,1.05146 -1.192528,1.161811 -1.182627,1.219997 0.0051,0.03011 0.143332,0.579818 0.307129,1.221558 0.554638,2.173016 0.94942,3.721976 1.114873,4.374293 0.05861,0.231076 0.118668,0.428061 0.133462,0.437744 0.02904,0.01901 0.03641,0.02122 0.664318,0.198263 0.23174,0.06534 0.78597,0.222101 1.231622,0.348351 0.445654,0.126252 0.926959,0.26236 1.069568,0.302463 0.27386,0.07701 1.28834,0.36406 2.332551,0.66 0.344063,0.09751 0.651284,0.178512 0.682715,0.180004 0.06438,0.003 0.357689,-0.273105 2.084452,-1.962585 0.534986,-0.523438 1.30313,-1.272573 1.706986,-1.664748 0.403855,-0.392174 0.737183,-0.72394 0.740729,-0.737257 0.0061,-0.0227 -0.281448,-1.171976 -0.349382,-1.396688 l -0.0311,-0.102849 0.489467,-0.480551 c 0.269207,-0.264304 0.615893,-0.601938 0.770414,-0.750299 0.154522,-0.148361 0.368788,-0.355129 0.476149,-0.459484 l 0.195201,-0.189737 0.134543,0.53511 c 0.074,0.29431 0.19801,0.783055 0.275573,1.086099 0.07756,0.303044 0.247527,0.969093 0.377693,1.480108 0.130165,0.511015 0.242514,0.950089 0.249666,0.975718 0.01071,0.03859 -0.04019,0.09802 -0.296441,0.345718 -0.170194,0.164516 -0.747533,0.726946 -1.282977,1.249845 -0.880054,0.859437 -1.565008,1.526879 -4.013543,3.910942 -0.427192,0.415944 -0.787853,0.762566 -0.801471,0.770271 -0.01362,0.0077 -0.102546,-0.0082 -0.197617,-0.03546 z m -2.727935,-4.066442 c 0.02079,-0.0054 0.05482,-0.0054 0.07563,0 0.02079,0.0054 0.0038,0.0099 -0.03781,0.0099 -0.0416,0 -0.05861,-0.0044 -0.03781,-0.0099 z m 0.324112,0 c 0.02079,-0.0054 0.05482,-0.0054 0.07563,0 0.02079,0.0054 0.0038,0.0099 -0.03782,0.0099 -0.0416,0 -0.05861,-0.0044 -0.03781,-0.0099 z M 63.099742,42.53192 c 0.0156,-0.0063 0.03424,-0.0055 0.04141,0.0017 0.0071,0.0071 -0.0056,0.01229 -0.02836,0.01134 -0.02517,-0.001 -0.0303,-0.0062 -0.01305,-0.01305 z m -4.18608,-1.70483 c 10e-4,-0.02518 0.0062,-0.0303 0.01305,-0.01305 0.0063,0.0156 0.0055,0.03424 -0.0017,0.04141 -0.0071,0.0071 -0.01229,-0.0056 -0.01134,-0.02836 z m -0.01991,-0.354722 c 0,-0.02971 0.0049,-0.04187 0.0109,-0.02701 0.006,0.01485 0.006,0.03916 0,0.05402 -0.006,0.01485 -0.0109,0.0027 -0.0109,-0.02701 z m 8.60055,-0.01082 c 3.68e-4,-0.03565 0.0053,-0.04763 0.01072,-0.02659 0.0055,0.02102 0.0051,0.05019 -7.35e-4,0.06482 -0.006,0.01462 -0.01039,-0.0026 -0.01,-0.03822 z m -8.60055,-0.20527 c 0,-0.02971 0.0049,-0.04187 0.0109,-0.02701 0.006,0.01485 0.006,0.03916 0,0.05402 -0.006,0.01485 -0.0109,0.0027 -0.0109,-0.02701 z m 8.60055,-0.01082 c 3.68e-4,-0.03565 0.0053,-0.04762 0.01072,-0.02659 0.0055,0.02102 0.0051,0.05019 -7.35e-4,0.06482 -0.006,0.01462 -0.01039,-0.0026 -0.01,-0.03823 z m -0.02412,-0.304304 c 0.0011,-0.02517 0.0062,-0.0303 0.01304,-0.01305 0.0063,0.0156 0.0055,0.03424 -0.0016,0.04141 -0.0071,0.0071 -0.0123,-0.0056 -0.01135,-0.02836 z m 4.129796,-2.31511 c -0.04965,-0.199324 -0.167211,-0.663832 -0.261238,-1.032237 -0.526421,-2.062528 -0.616657,-2.417661 -0.664318,-2.614498 -0.02877,-0.118841 -0.06718,-0.26147 -0.08536,-0.316955 -0.03776,-0.115328 0.0299,-0.08723 -0.711364,-0.295342 -0.213912,-0.06005 -0.748696,-0.211172 -1.188407,-0.335814 -0.439712,-0.124644 -1.198131,-0.339475 -1.685379,-0.477404 -0.487247,-0.137928 -0.936951,-0.265248 -0.999342,-0.282934 -0.06239,-0.01769 -0.113439,-0.0356 -0.113439,-0.03981 0,-0.0042 0.447136,-0.441343 0.993635,-0.971406 0.901446,-0.874331 0.998175,-0.961882 1.042558,-0.943626 0.02691,0.01107 0.394102,0.117322 0.815985,0.23612 1.221259,0.343893 2.218686,0.625504 2.452441,0.692416 0.118841,0.03402 0.468882,0.132725 0.777866,0.219349 0.308988,0.08662 0.564109,0.158802 0.566939,0.160392 0.0063,0.0036 0.179713,0.669736 0.416226,1.598755 0.197437,0.775533 0.336003,1.319224 0.56053,2.199341 0.110983,0.435043 0.147495,0.61099 0.132574,0.638868 -0.01654,0.03089 -1.465813,1.45887 -1.861165,1.83381 l -0.09847,0.09339 z M 62.689187,36.09288 c 0.0156,-0.0063 0.03424,-0.0055 0.04141,0.0017 0.0071,0.0071 -0.0056,0.01229 -0.02836,0.01134 -0.02518,-10e-4 -0.0303,-0.0062 -0.01305,-0.01305 z m 0.323012,-0.02213 c 0.02688,-0.0052 0.06577,-0.005 0.08643,4.41e-4 0.02066,0.0054 -0.0013,0.0096 -0.04887,0.0094 -0.04754,-2.38e-4 -0.06443,-0.0047 -0.03756,-0.0098 z m 0.367326,0 c 0.02688,-0.0052 0.06577,-0.005 0.08643,4.41e-4 0.02066,0.0054 -0.0013,0.0096 -0.04887,0.0094 -0.04754,-2.38e-4 -0.06444,-0.0047 -0.03756,-0.0098 z"
         id="path2324" /><path
         style="fill:#919396;fill-opacity:1;stroke-width:0.0216075"
         d="M 62.865846,44.64159 C 62.191582,44.59434 61.421327,44.335325 60.878231,43.973207 60.621182,43.801814 60.579288,43.770114 60.370457,43.588971 59.666881,42.978684 59.19463,42.173417 58.9989,41.250235 c -0.07542,-0.355737 -0.09477,-0.549663 -0.09273,-0.929119 0.006,-1.106542 0.460891,-2.184436 1.258648,-2.982193 0.601254,-0.601254 1.338987,-1.00278 2.161514,-1.176447 0.529368,-0.111768 1.219514,-0.111945 1.759715,-4.58e-4 0.233816,0.04826 0.673626,0.186104 0.786466,0.246494 0.09864,0.05279 -0.01146,0.15308 2.192806,-1.997031 0.45079,-0.439711 0.830445,-0.795677 0.843676,-0.791034 0.01323,0.0047 0.422715,0.105966 0.909961,0.225163 0.487249,0.119198 0.887395,0.217495 0.889218,0.218437 0.01007,0.0052 0.378204,1.652783 0.379528,1.698304 0.0013,0.0423 -0.06034,0.114543 -0.276236,0.324112 -0.252005,0.244629 -2.144759,2.091697 -2.501824,2.441434 l -0.148046,0.14501 0.09864,0.289317 c 0.145932,0.428028 0.1979,0.704625 0.237041,1.261651 0.02041,0.290536 -0.05716,0.924079 -0.15743,1.285641 -0.189052,0.681724 -0.598461,1.376885 -1.113483,1.890648 -0.408635,0.407637 -0.875544,0.714371 -1.448329,0.951476 -0.568984,0.235532 -1.238953,0.337118 -1.912187,0.289941 z m 0.653924,-2.126926 c 0.976279,-0.147158 1.7339,-0.936457 1.835979,-1.912749 0.111204,-1.063562 -0.528827,-2.010895 -1.571321,-2.325767 -0.178546,-0.05392 -0.225422,-0.05885 -0.572597,-0.06007 -0.347762,-0.0012 -0.395065,0.0034 -0.589011,0.05745 -0.749134,0.208852 -1.322802,0.791615 -1.522042,1.546171 -0.04744,0.179663 -0.05562,0.257714 -0.0571,0.544632 -0.0018,0.353236 0.02848,0.529582 0.141042,0.821081 0.171413,0.443885 0.600063,0.905066 1.054774,1.134823 0.373331,0.188638 0.844244,0.260153 1.280272,0.194429 z"
         id="path2322" /></g></g></svg>
