<?xml version="1.0" encoding="UTF-8" standalone="no"?>
<!-- Created with Inkscape (http://www.inkscape.org/) -->

<svg
   width="101.07794mm"
   height="100.35015mm"
   viewBox="0 0 101.07794 100.35015"
   version="1.1"
   id="svg5"
   xml:space="preserve"
   inkscape:version="1.2.2 (b0a84865, 2022-12-01)"
   sodipodi:docname="syllab.svg"
   xmlns:inkscape="http://www.inkscape.org/namespaces/inkscape"
   xmlns:sodipodi="http://sodipodi.sourceforge.net/DTD/sodipodi-0.dtd"
   xmlns="http://www.w3.org/2000/svg"
   xmlns:svg="http://www.w3.org/2000/svg"><sodipodi:namedview
     id="namedview7"
     pagecolor="#ffffff"
     bordercolor="#000000"
     borderopacity="0.25"
     inkscape:showpageshadow="2"
     inkscape:pageopacity="0.0"
     inkscape:pagecheckerboard="0"
     inkscape:deskcolor="#d1d1d1"
     inkscape:document-units="mm"
     showgrid="false"
     inkscape:zoom="0.72515432"
     inkscape:cx="195.13088"
     inkscape:cy="52.402639"
     inkscape:window-width="1390"
     inkscape:window-height="964"
     inkscape:window-x="0"
     inkscape:window-y="25"
     inkscape:window-maximized="0"
     inkscape:current-layer="layer1" /><defs
     id="defs2" /><g
     inkscape:label="Layer 1"
     inkscape:groupmode="layer"
     id="layer1"
     transform="translate(-46.323451,-134.66535)"><g
       id="g2320"
       transform="translate(-8.7567568,104.35135)"><path
         style="fill:#d0d0d0;fill-opacity:1;stroke-width:0.117593"
         d="m 97.658712,108.33328 c 0.08085,-0.0326 0.213137,-0.0326 0.293982,0 0.08085,0.0326 0.0147,0.0593 -0.146991,0.0593 -0.16169,0 -0.227836,-0.0267 -0.146991,-0.0593 z m 2.939818,0 c 0.0808,-0.0326 0.21313,-0.0326 0.29398,0 0.0808,0.0326 0.0147,0.0593 -0.14699,0.0593 -0.16169,0 -0.22784,-0.0267 -0.14699,-0.0593 z M 75.825172,85.999971 c 0.0056,-0.136989 0.03351,-0.164853 0.07104,-0.07105 0.03397,0.08489 0.02979,0.186312 -0.0093,0.225386 -0.03908,0.03907 -0.06687,-0.03038 -0.06176,-0.15434 z m 0,-1.999074 c 0.0056,-0.136989 0.03351,-0.164853 0.07104,-0.07105 0.03397,0.08489 0.02979,0.186312 -0.0093,0.225386 -0.03908,0.03907 -0.06687,-0.03038 -0.06176,-0.15434 z m 21.83354,-22.351875 c 0.08085,-0.03262 0.213137,-0.03262 0.293982,0 0.08085,0.03262 0.0147,0.05931 -0.146991,0.05931 -0.16169,0 -0.227836,-0.02669 -0.146991,-0.05931 z m 3.292588,0 c 0.0808,-0.03262 0.21314,-0.03262 0.29399,0 0.0808,0.03262 0.0147,0.05931 -0.14699,0.05931 -0.16169,0 -0.22784,-0.02669 -0.147,-0.05931 z"
         id="path2326" /><path
         style="fill:#a7a9ac;fill-opacity:1;stroke-width:0.117593"
         d="m 113.03394,130.46063 c -0.5174,-0.14807 -2.47532,-0.70291 -4.35092,-1.23296 -1.8756,-0.53005 -5.1829,-1.4655 -7.34954,-2.07877 -2.166643,-0.61328 -5.341643,-1.51175 -7.055555,-1.9966 -1.713912,-0.48485 -4.12162,-1.16597 -5.350463,-1.51359 -6.045193,-1.71012 -9.658877,-2.73297 -12.22963,-3.46159 -1.552222,-0.43995 -4.364465,-1.23557 -6.24943,-1.76805 l -3.427208,-0.96816 -0.244899,-1.0165 c -0.134696,-0.55907 -0.584782,-2.33941 -1.000195,-3.95631 -0.415411,-1.6169 -1.240406,-4.84481 -1.833322,-7.17315 -0.592916,-2.32833 -1.36218,-5.344579 -1.709474,-6.702773 -4.822984,-18.861624 -7.221469,-28.437393 -7.151613,-28.552272 0.04693,-0.07718 0.80226,-0.828191 1.678512,-1.668924 0.876251,-0.840733 3.974435,-3.854354 6.884851,-6.696934 2.910417,-2.84258 6.0325,-5.887052 6.937963,-6.765494 1.456381,-1.412918 13.185535,-12.840944 17.66548,-17.211948 1.296243,-1.26472 1.719851,-1.613238 1.881481,-1.547962 0.114728,0.04633 0.949429,0.294452 1.854892,0.551376 2.680261,0.760518 8.52985,2.415978 10.99491,3.111609 1.26118,0.355901 3.19264,0.902173 4.29213,1.213937 1.09949,0.311765 2.63407,0.741029 3.41018,0.95392 0.77611,0.212889 1.42835,0.399168 1.44941,0.41395 0.0211,0.01478 -0.82547,0.865131 -1.88117,1.889663 -1.05571,1.024532 -3.29673,3.216346 -4.98005,4.8707 -1.68333,1.654354 -3.19565,3.096412 -3.36073,3.204574 -0.32648,0.213918 -0.0415,0.282575 -6.594992,-1.588925 l -1.726794,-0.493127 -2.678588,2.579689 c -1.473222,1.418829 -5.008874,4.858182 -7.857002,7.643009 -2.848129,2.784825 -6.210291,6.062784 -7.471471,7.284353 -5.907851,5.722291 -6.490012,6.322847 -6.436133,6.639505 0.02789,0.163903 0.78005,3.155506 1.671471,6.648006 3.01847,11.826065 5.166968,20.255868 6.067398,23.805928 0.318968,1.25757 0.645818,2.32961 0.726333,2.38231 0.158072,0.10347 0.198189,0.11545 3.615375,1.07899 1.261181,0.35561 4.277431,1.20873 6.702778,1.89581 2.425347,0.68709 5.044722,1.42782 5.820833,1.64607 1.490414,0.41912 7.011452,1.9813 12.694292,3.59188 1.87247,0.53067 3.54444,0.9715 3.71549,0.97962 0.35038,0.0166 1.94663,-1.4863 11.34408,-10.68085 2.91152,-2.84867 7.09194,-6.925639 9.28982,-9.059944 2.19787,-2.134306 4.01192,-3.939852 4.03122,-4.012324 0.0329,-0.123526 -1.53171,-6.378168 -1.90142,-7.601107 l -0.16922,-0.559727 2.66379,-2.615273 c 1.46509,-1.4384 3.35184,-3.275885 4.19278,-4.0833 0.84094,-0.807416 2.00703,-1.932696 2.59131,-2.500621 l 1.06233,-1.032592 0.73222,2.912194 c 0.40273,1.601708 1.07761,4.26157 1.49973,5.910806 0.42213,1.649236 1.3471,5.274027 2.05549,8.055092 0.70839,2.781065 1.31982,5.170603 1.35874,5.310083 0.0586,0.210006 -0.21874,0.533443 -1.6133,1.881481 -0.92623,0.895335 -4.06825,3.956212 -6.98226,6.801952 -4.78946,4.67725 -8.51714,8.30963 -21.84264,21.28426 -2.32488,2.26366 -4.28768,4.15006 -4.36179,4.19199 -0.0741,0.0419 -0.55807,-0.0449 -1.07548,-0.19298 z M 98.187879,108.3301 c 0.113183,-0.0296 0.298391,-0.0296 0.411574,0 0.113183,0.0296 0.02058,0.0538 -0.205787,0.0538 -0.226366,0 -0.31897,-0.0242 -0.205787,-0.0538 z m 1.763889,0 c 0.113182,-0.0296 0.298392,-0.0296 0.411572,0 0.11318,0.0296 0.0206,0.0538 -0.20579,0.0538 -0.226361,0 -0.318965,-0.0242 -0.205782,-0.0538 z M 98.724395,96.806756 c 0.08489,-0.03397 0.186311,-0.02979 0.225386,0.0093 0.03907,0.03907 -0.03038,0.06687 -0.15434,0.06176 -0.136989,-0.0056 -0.164853,-0.03351 -0.07105,-0.07104 z M 75.942764,87.528675 c 0.0056,-0.13699 0.03351,-0.164853 0.07104,-0.07105 0.03397,0.08489 0.02979,0.186311 -0.0093,0.225386 -0.03908,0.03907 -0.06687,-0.03038 -0.06176,-0.15434 z m -0.108309,-1.930479 c 0,-0.16169 0.02669,-0.227835 0.05931,-0.146991 0.03262,0.08084 0.03262,0.213137 0,0.293982 -0.03262,0.08084 -0.05931,0.0147 -0.05931,-0.146991 z m 46.806205,-0.0588 c 0.002,-0.194028 0.0288,-0.259167 0.0586,-0.144753 0.0298,0.114414 0.0279,0.273164 -0.004,0.352778 -0.0322,0.07961 -0.0566,-0.014 -0.0542,-0.208025 z M 75.834455,84.42227 c 0,-0.16169 0.02669,-0.227835 0.05931,-0.14699 0.03262,0.08084 0.03262,0.213136 0,0.293981 -0.03262,0.08084 -0.05931,0.0147 -0.05931,-0.146991 z m 46.806205,-0.0588 c 0.002,-0.194028 0.0288,-0.259167 0.0586,-0.144753 0.0298,0.114414 0.0279,0.273164 -0.004,0.352778 -0.0322,0.07961 -0.0566,-0.014 -0.0542,-0.208025 z m -0.13123,-1.656095 c 0.006,-0.13699 0.0335,-0.164853 0.071,-0.07105 0.034,0.08489 0.0298,0.186311 -0.009,0.225386 -0.0391,0.03908 -0.0669,-0.03038 -0.0618,-0.15434 z m 22.47532,-12.599371 c -0.27022,-1.084772 -0.91,-3.612728 -1.42172,-5.617681 -2.86491,-11.224755 -3.35599,-13.157469 -3.61537,-14.228703 -0.1566,-0.64676 -0.36564,-1.422985 -0.46453,-1.724945 -0.20555,-0.627647 0.16271,-0.474754 -3.87141,-1.607319 -1.16416,-0.326836 -4.07458,-1.149249 -6.46759,-1.827585 -2.39301,-0.678335 -6.52051,-1.847497 -9.17222,-2.598138 -2.65172,-0.750639 -5.09911,-1.443546 -5.43866,-1.539793 -0.33955,-0.09625 -0.61736,-0.193744 -0.61736,-0.21666 0,-0.02292 2.43342,-2.401893 5.4076,-5.286616 4.90587,-4.758313 5.4323,-5.234789 5.67384,-5.135434 0.14643,0.06023 2.14479,0.638492 4.44078,1.28502 6.64638,1.871548 12.07461,3.404141 13.34676,3.768289 0.64676,0.185133 2.55176,0.72232 4.23333,1.193751 1.68158,0.47143 3.07001,0.864232 3.08541,0.87289 0.0341,0.01919 0.97804,3.644861 2.2652,8.700799 1.0745,4.220637 1.82861,7.179521 3.05054,11.969332 0.60399,2.3676 0.8027,3.325146 0.7215,3.476862 -0.09,0.168107 -7.9773,7.939512 -10.1289,9.980028 l -0.53588,0.508214 z M 96.490136,61.764165 c 0.08489,-0.03397 0.186311,-0.02979 0.225386,0.0093 0.03907,0.03907 -0.03038,0.06687 -0.15434,0.06176 -0.13699,-0.0056 -0.164853,-0.03351 -0.07105,-0.07105 z m 1.75791,-0.120433 c 0.146275,-0.02813 0.357942,-0.02706 0.470371,0.0024 0.112429,0.02943 -0.0073,0.05245 -0.265955,0.05114 -0.258703,-0.0013 -0.35069,-0.02539 -0.204416,-0.05351 z m 1.999074,0 c 0.14628,-0.02813 0.35794,-0.02706 0.47037,0.0024 0.11243,0.02943 -0.007,0.05245 -0.26595,0.05114 -0.25871,-0.0013 -0.35069,-0.02539 -0.20442,-0.05351 z"
         id="path2324" /><path
         style="fill:#919396;fill-opacity:1;stroke-width:0.117593"
         d="m 97.451472,108.28808 c -3.669501,-0.25714 -7.861412,-1.66677 -10.817065,-3.6375 -1.398921,-0.93276 -1.62692,-1.10528 -2.763426,-2.0911 -3.829025,-3.321326 -6.39912,-7.703778 -7.464328,-12.727951 -0.410465,-1.936008 -0.515801,-2.991394 -0.504677,-5.056481 0.03244,-6.022061 2.508277,-11.888215 6.849857,-16.229795 3.272165,-3.272164 7.287084,-5.457361 11.763468,-6.402493 2.88094,-0.608275 6.636879,-0.609237 9.576779,-0.0025 1.27248,0.262636 3.66603,1.012822 4.28013,1.341479 0.53684,0.287309 -0.0624,0.833096 11.93377,-10.86831 2.4533,-2.393009 4.51947,-4.330256 4.59148,-4.304992 0.072,0.02527 2.30051,0.57669 4.95222,1.225391 2.65172,0.648702 4.82941,1.183655 4.83933,1.188788 0.0545,0.0282 2.05828,8.994829 2.06548,9.242568 0.007,0.230175 -0.32842,0.623363 -1.50334,1.763889 -1.37147,1.331333 -11.67228,11.383501 -13.61551,13.28686 l -0.8057,0.789176 0.53682,1.57453 c 0.7942,2.329423 1.07702,3.834734 1.29003,6.866196 0.1111,1.581165 -0.3111,5.029056 -0.85677,6.996759 -1.02886,3.710102 -3.25696,7.493337 -6.05983,10.289356 -2.22389,2.21845 -4.76492,3.88777 -7.88215,5.17815 -3.09654,1.28182 -6.74267,1.83468 -10.406568,1.57793 z m 3.558808,-11.57523 c 5.31314,-0.800869 9.43629,-5.096423 9.99183,-10.409631 0.6052,-5.788154 -2.878,-10.943758 -8.5515,-12.657366 -0.97169,-0.293488 -1.2268,-0.320253 -3.116203,-0.326935 -1.892604,-0.0067 -2.150039,0.01842 -3.205536,0.31268 -4.076963,1.136618 -7.199001,4.308147 -8.283311,8.414619 -0.258178,0.977766 -0.302711,1.402541 -0.310734,2.964016 -0.0099,1.92239 0.15498,2.882112 0.767593,4.468519 0.932864,2.415721 3.265678,4.925578 5.740321,6.17597 2.031758,1.026612 4.594575,1.415814 6.96754,1.058128 z"
         id="path2322" /></g></g></svg>
