<svg xmlns="http://www.w3.org/2000/svg" width="70" height="80" fill="none"><mask id="a" width="61" height="61" x="4" y="0" maskUnits="userSpaceOnUse" style="mask-type:luminance"><path fill="#fff" d="M60.755.909H7.877a3.583 3.583 0 0 0-3.583 3.583V57.37a3.583 3.583 0 0 0 3.583 3.584h52.878a3.583 3.583 0 0 0 3.583-3.584V4.492A3.583 3.583 0 0 0 60.755.91Z"/></mask><g mask="url(#a)"><path fill="#A7A9AC" d="M60.755.909H7.877a3.583 3.583 0 0 0-3.583 3.583V57.37a3.583 3.583 0 0 0 3.583 3.584h52.878a3.583 3.583 0 0 0 3.583-3.584V4.492A3.583 3.583 0 0 0 60.755.91Z"/><path fill="#fff" fill-rule="evenodd" d="M62.549 36.084c1.652-.591 3.716-1.31 5.043-1.362-2.115-.27-4.577.082-6.752-.081.72-.664 1.726-1.344 2.869-1.563-.792-.278-1.858-.15-2.882-.09-1.031.06-2.196.386-2.846-.286 1.67-.647 2.936-.57 4.375-.801-.36-.775-1.426-.27-1.96-.728 1.095-.586 2.054-1.25 3.377-1.708-2.967.278-6.657 1.867-8.524.15.343-.621 1.194-.963 1.687-1.499-.107.022-.21.035-.218-.12.32-.18.659-.35.839-.612-.527.09-1.216.471-1.64.381 1.558-1.832 3.695-3.348 5.339-5.133-1.439.27-2.53 1.49-3.862 1.944-.6.205-1.755.518-2.299.017.745-.522 1.927-.034 2.624-.48-.847-.15-1.768-.162-2.59-.36 1.058-2.311 3.305-4.062 4.898-6.019.355-.432.899-1.019.822-1.618-.488.497-1.563.565-2.248.83-1.682.66-2.252 2.009-3.703 2.818-.197-2.35 1.614-3.973 1.593-5.985-1.499 1.84-3.074 3.639-5.365 5.047-.548-.043-1.066-.141-1.798.15.36-1.28.57-2.642.561-4.123 1.134-1.092 2.522-2.038 3.827-3.035-1.63.578-3.382 1.468-4.897 1.87 0-.406.32-1.01.192-1.254-1.108 1.01-2.543 2.218-3.763 2.929.454-1.751 1.978-2.912 1.67-5.086.235-.296.325-.677.325-1.11.124-.17.407-.252.411-.487-.137.03-.29.098-.304-.095.347-1.121.368-2.8-.081-4.122-1.152 2.842-3.25 5.163-5.519 7.393-.158-.304-.012-.436-.11-.706-.647.18-.665 1.049-1.277 1.01-.03-.706.42-1.532.227-2.093-.15.826-1.1 1.203-1.7 1.777.129-1.383 1.01-2.732 1.413-3.725-1.772 2.093-3.536 4.195-4.62 6.674-.401-.526-.594-1.425-1.134-1.7-.787-2.221-.021-3.968.304-5.338-1.13 2-2.119 4.076-2.453 6.512-.175-.339-.428-.407-.56-.668-1.863-3.584-.373-7.188.03-9.496-1.854 3.24-4.436 6.084-5.258 9.898-.634-.06-1.396.107-1.837-.3-1.828-2.572-1.862-6.387-1.977-9.106-.313.065-.364.274-.634.369-.296 2.958-.064 6.212-.077 9.328-.42-2.042-1.186-3.459-2.197-4.435-.423 1.486.596 3.763.668 5.519-1.61-1.443-2.778-3.687-4.773-4.432.638 1.619 1.19 3.742 1.241 5.262-.757-2.085-2.02-3.25-3.052-4.833.073 1.019.193 2.063.128 3.005-.907-.946-1.712-2.076-2.256-3.682.013.223.052.458-.218.522-.326-.402-.617-.873-.99-1.19-.008.625.801 1.11.904 1.858.06.437-.39 1.953-.42 2.702-.038.839.133 2.615-.505 2.723-.693.12-.522-.827-.766-1.07.051.222.069.419-.021.56-.715-1.164-1.422-2.35-2.064-3.643-.56-1.593.154.822.184.959.159.749.356 1.7.48 2.624.175 1.323.398 2.766.214 3.622-1.584.33-1.426-1.794-2.11-3.168-.459.368-.065 1.203-.352 1.665-1.524-2.029-3.412-3.403-4.234-6.704-.094 2.62-.938 4.82-.762 7.59-.81-.44-1.537-2.311-1.94-3.219-.03-.068-.192-.813-.184-.317 1.567 3.301-.077 4.82.416 7.527-1.503-1.297-2.5-3.498-3.853-5.065l.072.257c.865 1.413 1.709 3.545 2.043 5.493-1.293-.09-2.454.188-3.044-.968-.985-1.926-.133-4.247-.244-5.643-.775 2.74-1.443 5.545-.578 9.197-1.066-.488-1.717-1.721-2.706-2.355.39 2.594 1.97 4.093 3.005 5.95-1.288-.641-2.016-1.802-3.082-2.705-1.503-1.276-3.43-1.986-4.88-3.198.684 3.55 3.167 3.84 4.537 6.156-2.132-1.618-4.979-1.948-7.29-3.245-.197.022-.638-.638-.608-.192 1.528 1.763 3.219 3.236 4.871 4.769-.479-.077-.95-.176-1.387-.338 1.298 1.708 3.387 1.982 4.667 3.724-3.63.707-5.972-.929-8.845-1.597 1.665 2.12 4.949 1.315 6.43 3.768-1.824.193-3.968.278-5.57.496.386.125.763.257 1.13.411-.192.155-.479-.14-.509.146 1.875.36 3.434 1.293 4.92 2.359-2.47 1.147-6.174 2.35-8.627 2.667.899.527 1.913.013 2.94-.017 1.2-.034 2.484.364 3.636.15-.762.65-1.717 1.194-2.732 1.708 1.08-.008 2.124.039 3.224-.008-2.338.864-4.714 1.113-6.503 1.412.71.505 1.682.501 2.581.638.917.146 1.893.261 2.787.394-.663.398-1.438.732-2.174 1.087 2.894-.402 6.336-1.798 8.134-.222-.475.907-1.284 1.627-2.196 2.29.526-.094 1.215-.47 1.64-.38-1.478 1.806-3.361 3.386-4.975 5.115 2.055-.552 3.506-2.573 5.75-2.115.222.574.076.947.03 1.375-.523.346-.557.95-.874 1.447-.968 1.528-2.556 2.855-3.566 4.251-.334.458-.81 1.019-.741 1.597.424-.462 1.293-.492 1.91-.732 1.733-.677 2.23-2.034 3.677-2.903.193 2.325-1.404 4.042-1.396 6.024 1.764-2.29 3.54-4.577 6.726-6.084-.047.381-.15.728-.24 1.083-2.701 2.44-5.304 4.937-8.558 7.073 2.864-1.045 5.527-2.175 8.323-3.412.068.42-.017 1.13.334 1.472.6-.547.466-1.502 1.066-2.059-.116 1.058-.45 2.372-.441 3.258a28.067 28.067 0 0 1 3.254-2.778c-1.918 2.303-3.913 4.56-6.298 6.606 1.905-.758 3.49-1.696 5.039-2.65C.274 69.537-.741 71.45.08 73.767c1.465-1.91 2.295-4.17 4.222-5.822-.107 1.014-1.113 1.909-1.259 2.667 1.237-1.225 2.393-2.877 3.472-3.948-.03.626-.334 1.486-.167 1.983.402-1.088 1.713-2.06 2.984-2.428.15.394.176.72.21 1.045-.398 2.115-.84 4.59-.291 6.995.783-2.406 1.528-5.214 3.497-6.721.459 2.804-.286 4.945-1.104 7.042.71-.727.929-1.73 1.807-2.363.18.98.51 2.428.954 3.318.72-3.583 1.601-7.462 3.091-10.382.6 2.41 1.494 4.286 2.35 6.234.733-1.644-.924-4.611-.903-6.65.814.172 1.289 1.268 1.597 2.03.938 2.303.66 5.236.792 7.235.291-.03.381-.17.57-.256.518-1.717.282-3.85.462-5.754.09.145.347.65.402.436-.843-1.031-.188-2.598-.505-3.998.878.556 1.764 1.935 1.828 3.16.163-.412.03-.986.253-1.362.24 1.421 1.1 1.717 1.541 2.782.86-1.357-1.194-4.332-.573-5.822.933.171 1.344 1.276 1.96 2.016.356-1.327-.535-3.347-.582-4.897 1.995 1.78 3.053 5.257 4.94 7.235-.235-1.13-.265-2.15-.26-3.147.877.613 1.134 2.347 1.673 3.57.022-.346.12-.65.287-.911.467.625.93 1.25 1.439 1.798-.313-1.075-.985-1.494-1.173-2.796.278-.509.29-1.314.346-2.311.052-.904-.064-2.6.968-2.398.368.291.146 1.023.454 1.25.013-.23-.193-.582.081-.668.707 1.22 1.451 2.38 2.09 3.73-.519-2.48-.827-4.843-.938-7.099 1.464-.41 1.199 2.312 2 3.108.239-1.314-.31-5.373 1.669-4.444.141 1.512.051 3.485 1.177 4.727.09-2.907-.124-5.981 1.456-8.066 2.641.83 4.058 3.87 5.788 6.349-.458-1.173-1.747-3.896-2.166-5.917-.206-1.001-.364-2.817.578-3.112 1.241-.39 1.99 2.115 2.996 2.085a18.294 18.294 0 0 1-1.6-2.672c1.057.176 1.54 1.28 2.303 1.918.792.664 1.678 1.165 2.449 1.781-.382-.655-.908-1.956-.784-2.723 1.096.476 1.781 1.696 2.791 2.33-.38-2.625-1.969-4.093-3.005-5.951 1.897 1.121 3.232 2.996 5.129 4.05 1.1.612 2.17 1.057 3.117 1.866-.24-1.464-1.028-2.628-1.55-3.146.6.295 1.228.539 1.755.967-.428-1.22-1.618-1.798-2.41-2.62a393.085 393.085 0 0 0-3.01-3.095c1.755.107 3.819.342 5.244.608-1.288-1.417-3.416-2.013-4.542-3.297 1.383.103 2.689.938 3.956 1.255.458.115 1.045.385 1.169.218-1.208-1.229-2.92-1.533-4.543-2.008 1.512-.056 3.297.073 4.474.184-.899-.75-2.363-1.16-2.731-2.436 1.618.484 4.187-.069 5.925-.231-2.123-.565-3.879-1.781-5.771-2.761 1.002-.84 2.646-.938 4.093-1.456l-.004.013ZM28.423 39.91c1.117-.462 2.419.111 2.903 1.285.488 1.172-.026 2.5-1.143 2.962-1.118.462-2.42-.111-2.903-1.284-.484-1.173.026-2.5 1.143-2.963Zm-8.1 1.768c1.73-.719 3.746.176 4.495 1.991.754 1.815-.038 3.874-1.772 4.59-1.73.719-3.746-.176-4.5-1.996-.753-1.815.043-3.874 1.773-4.589l.004.004Zm10.283 8.164c-1.147-.137-3.065 1.29-4.135 2.038.38-.642 2.376-2.299 3.489-2.436.252-.03.715-.042.65.398h-.004Zm16.402-8.275c-.313-.116-.433-.552-.775-.925-.48.471-1.277 1.16-2.393 2.068-.035-.098-.069-.175-.103-.257a12.287 12.287 0 0 1-3.202 1.49 8.92 8.92 0 0 1-.536.137c-.355.188-.766.368-1.117.535-4.41 2.102-10.142 3.554-14.933 5.831-2.033.963-3.147 2.642-4.765 1.918-2.235 1.113-3.707 2.761-5.022 4.042-.869-.24-1.708.424-2.192-.767-1.113.835-.882 1.208-.813 2.518-.668.48-1.19-.557-1.52-.416-.522.227.133.998-.218 1.533-.93-.933-.189-2.8.916-1.926.321-1.29.21-1.752 2-2.44.654.44.92.843 1.844.624 1.375-.925 4.063-4.362 6.016-3.502 5.06-3.609 11.833-5.296 17.403-8.121l.192-.63c.184-.599.398-1.19.604-1.76.475-1.314.925-2.55 1.049-3.917l.06-.663.663-.009c2.055-.03 3.58 1.212 4.551 3.66.514-.273.8-.333 1.216-.877.433.321 2.256 1.152 1.075 1.854Z" clip-rule="evenodd"/><path fill="#fff" fill-rule="evenodd" d="M19.92 45.763c1.375-.394.758-2.522-.612-2.128-1.37.394-.758 2.522.612 2.128ZM27.986 42.77c.8-.23.445-1.472-.355-1.241-.8.231-.441 1.473.355 1.242ZM40.175 37.667c-.189 2.094-1.088 3.9-1.683 5.831 1.751.086 4.273-1.1 5.681-2.281-.847-2.398-2.183-3.575-3.998-3.55Z" clip-rule="evenodd"/></g><path fill="#A7A9AC" d="M5.711 74.995c-.261-.39-.522-.788-.783-1.195a94.556 94.556 0 0 1-1.37-2.17c-.154-.283-.27-.505-.339-.66L.107 66.078a.972.972 0 0 1-.107-.21c.081-.154.197-.23.338-.23h5.994c.154 0 .646.778 1.477 2.337.83 1.558 1.374 2.342 1.635 2.342.167 0 .317-.116.446-.339l2.226-3.895c.034-.06.12-.146.257-.266.137-.12.235-.175.295-.175h5.784c.047 0 .158.034.338.106v.129a5.216 5.216 0 0 0-.23.445l-4.663 7.33a1.271 1.271 0 0 1-.231.214l-1.601 2.491v3.63H7.227c-.167 0-.334-.038-.501-.106-.227-.086-.338-.197-.338-.338v-3.327c-.086-.24-.309-.638-.677-1.212v-.008ZM19.852 79.747v-.835a24.561 24.561 0 0 1-.017-.834v-2.543c0-2.535.026-4.645.073-6.315.047-1.674.107-2.796.175-3.365a.653.653 0 0 1 .159-.146c.26-.128 1.365-.192 3.31-.192h2.508c1.259 0 2.727.012 4.414.034 3.296.047 5.094.077 5.39.09.248.013.398.081.445.214.081.227.124.642.124 1.246 0 .817-.043 1.477-.124 1.973l-.107.124a92.022 92.022 0 0 1-4.624.125h-3.737c-1.28 0-1.94.017-1.974.051-.085.098-.124.274-.124.535 0 .544.069.848.214.908.236.107.574.158 1.015.158 3.318 0 5.77.034 7.346.107l.214.21v.321c0 1.216-.034 2.106-.107 2.676-.025.222-.137.334-.338.334h-8.006c-.295 0-.445.325-.445.972 0 .445.368.676 1.105.702.166.013 1.652.017 4.46.017.63 0 1.572.017 2.83.047 1.26.03 2.201.043 2.83.043.155.081.232.23.232.445v2.577c0 .086-.039.197-.116.338-.077.146-.15.219-.223.219h-16.67l-.232-.231v-.005ZM38.377 65.743a90.599 90.599 0 0 1 2.204-.107h9.98c.69 0 2 .035 3.93.107l.231.231v3.378h-5a1.285 1.285 0 0 0-.339.287c0-.192-.034 1.143-.107 4.003-.06 2.714-.102 4.757-.124 6.122l-.107.214h-5.107c-.223 0-.338-.115-.338-.338v-9.556c0-.436-.112-.655-.339-.655-.26 0-.74.005-1.442.017-.703.013-1.225.018-1.584.018a15.9 15.9 0 0 1-1.422-.052c-.437-.025-.655-.133-.655-.32v-3.113l.214-.231.005-.005ZM56.225 72.799v6.76c.039.077.107.184.214.321.972.077 2.077.12 3.31.12h1.922l.231-.201c.069-2.971.107-5.13.107-6.482v-2.21c-1.978.074-3.712.07-5.758.108-.017.805-.026 1.117-.026 1.588V72.8ZM61.773 65.76c-3.014-.081-4.4-.124-4.161-.124h-1.049a.738.738 0 0 0-.231.338 146.631 146.631 0 0 1-.06 3.55c1.94.12 3.827.154 5.737.034V66.08c-.06-.154-.137-.26-.231-.32h-.005ZM65.665 75.667c-.603.077-1.066.65-1.074 1.31-.013 1.194.997 1.657 2.055 1.665 1.006.013 2.029-.424 2.042-1.618.008-.814-.544-1.276-1.34-1.387l.017-1.289c1.507.154 2.457 1.207 2.44 2.689-.021 1.87-1.43 2.954-3.177 2.937-1.793-.022-3.18-1.14-3.159-3.01.017-1.332.81-2.44 2.21-2.586l-.018 1.284.004.005ZM69.073 69.091c.595.475.818 1.083.81 1.67-.022 1.87-1.43 2.958-3.177 2.937-1.794-.022-3.181-1.139-3.16-3.01.017-1.237.792-2.397 2.166-2.526l-.012 1.272c-.673.145-1.024.638-1.032 1.267-.013 1.194.997 1.657 2.055 1.67 1.006.012 2.03-.424 2.042-1.623.008-.86-.45-1.37-1.289-1.456l-.017 1.336-.989-.013.03-2.543 3.271.039-.008.847-.69.129v.004ZM63.734 66.972l.017-1.331 6.05.068-.017 1.332-6.05-.069Z"/></svg>