<svg xmlns="http://www.w3.org/2000/svg" width="29" height="23" fill="none"><path fill="#F15D2F" d="M28.249 2.693c-1.041.457-2.15.76-3.307.907A5.708 5.708 0 0 0 27.466.427a11.472 11.472 0 0 1-3.64 1.39 5.738 5.738 0 0 0-9.93 3.925c0 .455.039.892.133 1.309C9.258 6.818 5.035 4.53 2.2 1.046a5.78 5.78 0 0 0-.786 2.902 5.749 5.749 0 0 0 2.55 4.77 5.669 5.669 0 0 1-2.594-.707v.064c0 2.789 1.99 5.106 4.599 5.64a5.731 5.731 0 0 1-1.505.189c-.367 0-.738-.021-1.087-.098.744 2.273 2.855 3.944 5.364 3.999a11.534 11.534 0 0 1-7.117 2.448c-.471 0-.922-.021-1.374-.079a16.16 16.16 0 0 0 8.806 2.576c10.563 0 16.338-8.75 16.338-16.334 0-.254-.009-.5-.021-.743a11.45 11.45 0 0 0 2.877-2.98Z"/></svg>