<svg width="19" height="22" viewBox="0 0 19 22" fill="none" xmlns="http://www.w3.org/2000/svg">
<path d="M15.0996 11.6879C15.1301 15.0172 17.9768 16.1251 18.0084 16.1393C17.9843 16.2174 17.5535 17.7181 16.5086 19.2683C15.6052 20.6085 14.6677 21.9438 13.1908 21.9714C11.7397 21.9985 11.273 21.0979 9.61394 21.0979C7.95534 21.0979 7.43689 21.9437 6.06319 21.9985C4.63764 22.0533 3.55209 20.5493 2.64127 19.214C0.780121 16.4827 -0.642183 11.4959 1.26761 8.12967C2.21636 6.45801 3.91184 5.39945 5.75213 5.3723C7.15199 5.3452 8.47329 6.3283 9.32904 6.3283C10.1842 6.3283 11.7899 5.14603 13.4779 5.31966C14.1845 5.34952 16.1681 5.60942 17.4418 7.50192C17.3391 7.56651 15.075 8.9045 15.0996 11.6879V11.6879ZM12.3723 3.51263C13.1291 2.58268 13.6385 1.2881 13.4995 0C12.4086 0.0445073 11.0895 0.737937 10.307 1.66738C9.60569 2.49044 8.99154 3.8078 9.15725 5.07041C10.3732 5.16591 11.6154 4.44317 12.3723 3.51263" fill="#F15D2F"/>
</svg>
