<?xml version="1.0" encoding="UTF-8" standalone="no"?>
<svg
   xmlns:dc="http://purl.org/dc/elements/1.1/"
   xmlns:cc="http://creativecommons.org/ns#"
   xmlns:rdf="http://www.w3.org/1999/02/22-rdf-syntax-ns#"
   xmlns:svg="http://www.w3.org/2000/svg"
   xmlns="http://www.w3.org/2000/svg"
   id="svg854"
   aria-hidden="true"
   version="1.1"
   viewBox="0 0 16.036436 15.662195"
   width="25.056931"
   height="24.472179">
  <path
     style="fill-rule:evenodd;fill:#ffffff;fill-opacity:1"
     id="path852"
     d="M 8.0364446,0 C 5.5835888,0 0.03078772,0.01227888 0.03078772,0.01227888 c 0,0 -0.07290218,6.02214622 0.0056569,7.98772112 0.08977215,2.246131 -0.0056569,7.649275 -0.0056569,7.649275 H 5.5664446 c 0.4,0.07 0.49,-0.22927 0.49,-0.43927 0,-0.19 -0.01,-0.82 -0.01,-1.49 -2.01,0.369995 -2.53,-0.490005 -2.69,-0.940005 -0.09,-0.23 -0.48,-0.94 -0.82,-1.13 -0.28,-0.15 -0.68,-0.52 -0.01,-0.53 0.63,-0.01 1.08,0.58 1.23,0.82 0.72,1.21 1.87,0.87 2.33,0.66 0.07,-0.52 0.28,-0.87 0.51,-1.07 -1.78,-0.2 -3.64,-0.89 -3.64,-3.95 0,-0.87 0.31,-1.59 0.82,-2.15 -0.08,-0.2 -0.36,-1.02 0.08,-2.12 0,0 0.67,-0.21 2.2,0.82 0.64,-0.18 1.32,-0.27 2,-0.27 0.68,0 1.36,0.09 2.0000004,0.27 1.53,-1.04 2.2,-0.82 2.2,-0.82 0.44,1.1 0.16,1.92 0.08,2.12 0.51,0.56 0.82,1.27 0.82,2.15 0,3.07 -1.87,3.75 -3.6500004,3.95 0.29,0.25 0.5400004,0.73 0.5400004,1.48 0,1.07 -0.01,1.93 -0.01,2.2 0,0.21 0.19,0.519275 0.59,0.439275 h 5.408291 c 0,0 0.0012,-5.591679 0.0017,-7.649275 0,-2.1694494 -0.0017,-7.998291 -0.0017,-7.998291 0,0 -5.74774,-0.001709 -7.9982914,-0.001709 z"
     class="fill" />
</svg>
