<svg width="53" height="53" viewBox="0 0 53 53" fill="none" xmlns="http://www.w3.org/2000/svg">
<path d="M14.0781 21.7383C11.5095 21.7383 9.41992 23.8278 9.41992 26.3965V39.0254C9.41992 41.594 11.5095 43.6836 14.0781 43.6836C16.6468 43.6836 18.7363 41.594 18.7363 39.0254V26.3965C18.7363 23.8278 16.6468 21.7383 14.0781 21.7383Z" fill="#F15D2F"/>
<path d="M6.31445 26.3966C6.31445 25.9486 6.37356 25.516 6.44675 25.0887C4.57539 25.6936 3.20898 27.4318 3.20898 29.502V35.92C3.20898 37.9902 4.57539 39.7284 6.44675 40.3333C6.37356 39.9061 6.31445 39.4734 6.31445 39.0255V26.3966Z" fill="#F15D2F"/>
<path d="M38.9219 21.7383C36.3532 21.7383 34.2637 23.8278 34.2637 26.3965V39.0254C34.2637 41.594 36.3532 43.6836 38.9219 43.6836C39.3887 43.6836 39.8309 43.5937 40.2564 43.4654C39.6784 45.3814 37.9183 46.7891 35.8164 46.7891H30.8722C30.229 44.9856 28.5217 43.6836 26.5 43.6836C23.9314 43.6836 21.8418 45.7732 21.8418 48.3418C21.8418 50.9104 23.9314 53 26.5 53C28.5217 53 30.229 51.698 30.8722 49.8945H35.8164C40.0971 49.8945 43.5801 46.4115 43.5801 42.1309V39.0254V26.3965C43.5801 23.8278 41.4905 21.7383 38.9219 21.7383Z" fill="#F15D2F"/>
<path d="M46.5532 25.0887C46.6264 25.516 46.6855 25.9486 46.6855 26.3966V39.0255C46.6855 39.4734 46.6264 39.9061 46.5532 40.3333C48.4246 39.7284 49.791 37.9902 49.791 35.92V29.502C49.791 27.4318 48.4246 25.6936 46.5532 25.0887Z" fill="#F15D2F"/>
<path d="M26.5 0C13.6566 0 3.20898 10.4476 3.20898 23.291V23.3307C4.1341 22.6303 5.20446 22.1178 6.38557 21.8883C7.11132 11.4127 15.8435 3.10547 26.5 3.10547C37.1565 3.10547 45.8887 11.4127 46.6144 21.8882C47.7954 22.1177 48.8658 22.6303 49.791 23.3306V23.291C49.791 10.4476 39.3434 0 26.5 0Z" fill="#F15D2F"/>
</svg>
