<svg width="57" height="57" viewBox="0 0 57 57" fill="none" xmlns="http://www.w3.org/2000/svg">
<path fill-rule="evenodd" clip-rule="evenodd" d="M35.625 13.0625V27.3125H49.875V51.0625H7.125V17.8125H21.375V13.0625L28.5 5.9375L35.625 13.0625ZM11.875 46.3125H16.625V41.5625H11.875V46.3125ZM16.625 36.8125H11.875V32.0625H16.625V36.8125ZM11.875 27.3125H16.625V22.5625H11.875V27.3125ZM26.125 46.3125V41.5625H30.875V46.3125H26.125ZM26.125 32.0625V36.8125H30.875V32.0625H26.125ZM26.125 27.3125V22.5625H30.875V27.3125H26.125ZM26.125 13.0625V17.8125H30.875V13.0625H26.125ZM45.125 46.3125H40.375V41.5625H45.125V46.3125ZM40.375 36.8125H45.125V32.0625H40.375V36.8125Z" fill="#F15D2F"/>
</svg>
