<?xml version="1.0" encoding="UTF-8" standalone="no"?>
<svg
   width="150"
   height="58.605"
   fill="none"
   version="1.1"
   id="svg1"
   sodipodi:docname="logo-trans.svg"
   inkscape:version="1.3.2 (091e20e, 2023-11-25)"
   viewBox="0 0 150 58.604999"
   xmlns:inkscape="http://www.inkscape.org/namespaces/inkscape"
   xmlns:sodipodi="http://sodipodi.sourceforge.net/DTD/sodipodi-0.dtd"
   xmlns="http://www.w3.org/2000/svg"
   xmlns:svg="http://www.w3.org/2000/svg">
  <defs
     id="defs1" />
  <sodipodi:namedview
     id="namedview1"
     pagecolor="#000000"
     bordercolor="#000000"
     borderopacity="0.25"
     inkscape:showpageshadow="2"
     inkscape:pageopacity="0.0"
     inkscape:pagecheckerboard="0"
     inkscape:deskcolor="#d1d1d1"
     inkscape:zoom="1.9386702"
     inkscape:cx="62.929736"
     inkscape:cy="7.9951713"
     inkscape:window-width="1616"
     inkscape:window-height="750"
     inkscape:window-x="37"
     inkscape:window-y="61"
     inkscape:window-maximized="0"
     inkscape:current-layer="svg1" />
  <g
     id="g1674-7-0-8-7-0"
     transform="matrix(0.29675871,0,0,-0.29675871,34.397108,41.448141)"
     clip-path="url(#clipPath6106-50-0-8-0-6-8)"
     style="fill:#f05c2e;fill-opacity:1;stroke-width:2.19307" />
  <g
     id="g1682-5-3-6-1-9"
     transform="matrix(0.29675871,0,0,-0.29675871,54.992846,15.883318)"
     clip-path="url(#clipPath6094-5-6-2-7-7-76)"
     style="fill:#f05c2e;fill-opacity:1;stroke-width:2.19307" />
  <g
     id="g1690-2-3-4-5-90"
     transform="matrix(0.29675871,0,0,-0.29675871,84.585637,15.883318)"
     clip-path="url(#clipPath6082-0-9-4-9-1-0)"
     style="fill:#f05c2e;fill-opacity:1;stroke-width:2.19307" />
  <g
     id="g1698-3-4-8-1-32"
     transform="matrix(0.29675871,0,0,-0.29675871,132.42684,32.462589)"
     clip-path="url(#clipPath6070-6-9-5-9-8-9)"
     style="fill:#f15c2e;fill-opacity:1;stroke-width:2.19307">
    <path
       id="path1700-0-1-0-9-68"
       style="fill:#f15c2e;fill-opacity:1;fill-rule:nonzero;stroke:none;stroke-width:2.19307"
       d="m 0,0 v 6.366 c 0,17.193 -8.923,25.551 -27.28,25.551 -18.61,0 -27.278,-8.119 -27.278,-25.551 V 0 Z m -24.017,-56.34 c -14.736,0 -25.305,3.034 -32.313,9.277 -7.412,6.602 -11.015,16.862 -11.015,31.364 V 3.104 c 0,12.758 2.825,22.247 8.638,29.01 6.635,7.718 17.273,11.631 31.619,11.631 25.466,0 39.49,-13.615 39.49,-38.339 0,-5.251 -0.365,-9.317 -0.583,-11.273 -0.46,-4.365 -1.989,-5.769 -6.289,-5.769 h -60.088 v -5.406 c 0,-10.147 2.258,-16.837 7.105,-21.053 4.733,-4.117 12.119,-6.034 23.243,-6.034 11.788,0 22.762,2.607 27.397,4.151 0.96,0.338 1.765,0.502 2.46,0.502 3.495,0 3.495,-3.91 3.495,-5.195 v -1.151 c 0,-4.245 -1.562,-4.976 -5.095,-6.223 -4.123,-1.484 -15.306,-4.295 -28.064,-4.295 m -102.432,87.87345 c -11.343,0 -18.71,-2.28 -23.185,-7.177 -4.025,-4.405 -5.82,-10.959 -5.82,-21.2519998 V -15.69855 c 0,-10.294 1.795,-16.849 5.82,-21.254 4.475,-4.896 11.842,-7.177 23.185,-7.177 11.343,0 18.71,2.281 23.185,7.177 4.024997,4.405 5.820997,10.96 5.820997,21.254 V 3.1044502 c 0,10.2929998 -1.796,16.8469998 -5.820997,21.2519998 -4.475,4.897 -11.842,7.177 -23.185,7.177 m 0,-87.874 c -14.896,0 -25.5,3.579 -32.42,10.941 -6.307,6.71 -9.373,16.425 -9.373,29.701 V 2.9114502 c 0,13.2169998 2.926,22.9089998 8.944,29.6299998 6.751,7.539 17.182,11.204 31.889,11.204 14.323,0 24.182,-3.899 29.965997,-11.89 v 44.541 c 0,4.366 1.547,5.914 5.914,5.914 h 1.151 c 4.366,0 5.914,-1.548 5.914,-5.914 v -92.095 c 0,-12.997 -3.261,-22.993 -9.693,-29.71 -6.946997,-7.254 -17.811997,-10.932 -32.291997,-10.932 m -99.72004,87.874 c -11.116,0 -18.677,-2.348 -23.115,-7.179 -4.019,-4.374 -5.891,-11.127 -5.891,-21.2499998 V -15.69855 c 0,-10.124 1.872,-16.876 5.891,-21.251 4.438,-4.831 11.999,-7.18 23.115,-7.18 11.343,0 18.71,2.281 23.185,7.177 4.025,4.405 5.821,10.96 5.821,21.254 V 3.1044502 c 0,10.2929998 -1.796,16.8469998 -5.821,21.2519998 -4.475,4.897 -11.842,7.177 -23.185,7.177 m 0,-87.874 c -15.077,0 -25.755,3.629 -32.644,11.094 -6.156,6.671 -9.149,16.336 -9.149,29.548 V 3.1044502 c 0,27.3469998 13.671,40.6409998 41.793,40.6409998 15.164,0 25.896,-3.628 32.81,-11.092 6.174,-6.665 9.175,-16.331 9.175,-29.5489998 V -15.69855 c 0,-27.348 -13.733,-40.642 -41.985,-40.642 m -69.40231,1.727167 c -4.365,0 -5.913,1.547 -5.913,5.914 v 84.804 c 0,4.367 1.548,5.914 5.913,5.914 h 0.96 c 4.365,0 5.913,-1.547 5.913,-5.914 v -84.804 c 0,-4.367 -1.548,-5.914 -5.913,-5.914 z m -45.43936,38.379371 c 0,-17.287999 -4.77902,-28.003028 -28.571,-28.003028 -23.792,0 -28.571,10.715029 -28.571,28.003028 V 2.3330059 c 0,17.2879821 4.779,28.0019831 28.571,28.0019831 23.79198,0 28.571,-10.714001 28.571,-28.0019831 z m 23.87101,58.78 h -10.90202 v -5.091002 -0.533001 -0.532015 -5.771 l -5.04999,-0.03078 c -0.19222,-0.0087 -0.38619,-0.01684 -0.59003,-0.01684 h -2.219 c -4.04595,0 -5.10997,1.726 -5.10997,5.771 v 0.531637 0.533001 5.108 h 5.10997 0.079 l 7.76999,0.0482 v 35.556001 c 0,4.363 -1.54703,5.909001 -5.91099,5.909001 h -1.13703 c -4.36395,0 -5.91098,-1.546001 -5.91098,-5.909001 v -35.573 h -28.56902 c -0.24623,0 -0.47795,-0.005 -0.64398,-0.01278 l -0.30605,0.003 c -14.54401,0 -24.86101,-3.627002 -31.54201,-11.086998 -5.955,-6.651004 -8.85,-16.236044 -8.85,-29.3060251 V -16.233605 c 0,-13.127997 3.034,-22.73701 9.275,-29.37601 6.847,-7.285014 17.336,-10.826995 32.06501,-10.826995 14.31897,0 25.06501,3.640009 31.93799,10.817993 6.36501,6.646028 9.592,16.531995 9.592,29.385012 v 46.773026 h 10.91202 c 4.65601,0 5.56597,2.040999 5.56597,5.565999 v 0.874998 c 0,3.525001 -0.90996,5.566 -5.56597,5.566" />
  </g>
</svg>
