<?xml version="1.0" encoding="UTF-8" standalone="no"?>
<svg
   xmlns:dc="http://purl.org/dc/elements/1.1/"
   xmlns:cc="http://creativecommons.org/ns#"
   xmlns:rdf="http://www.w3.org/1999/02/22-rdf-syntax-ns#"
   xmlns:svg="http://www.w3.org/2000/svg"
   xmlns="http://www.w3.org/2000/svg"
   xmlns:sodipodi="http://sodipodi.sourceforge.net/DTD/sodipodi-0.dtd"
   xmlns:inkscape="http://www.inkscape.org/namespaces/inkscape"
   viewBox="0 0 516.28412 180.088"
   height="180.088"
   width="516.28412"
   xml:space="preserve"
   id="svg2"
   version="1.1"
   sodipodi:docname="logo-trans.svg"
   inkscape:version="0.92.3 (2405546, 2018-03-11)"
   inkscape:export-filename="/home/dominicletz/projects/diode/website/images/logo-trans.png"
   inkscape:export-xdpi="363.64001"
   inkscape:export-ydpi="363.64001"><sodipodi:namedview
     pagecolor="#ffffff"
     bordercolor="#666666"
     borderopacity="1"
     objecttolerance="10"
     gridtolerance="10"
     guidetolerance="10"
     inkscape:pageopacity="0"
     inkscape:pageshadow="2"
     inkscape:window-width="1291"
     inkscape:window-height="555"
     id="namedview24"
     showgrid="false"
     inkscape:zoom="0.94533219"
     inkscape:cx="149.28098"
     inkscape:cy="72.639521"
     inkscape:window-x="0"
     inkscape:window-y="319"
     inkscape:window-maximized="0"
     inkscape:current-layer="g10" /><metadata
     id="metadata8"><rdf:RDF><cc:Work
         rdf:about=""><dc:format>image/svg+xml</dc:format><dc:type
           rdf:resource="http://purl.org/dc/dcmitype/StillImage" /><dc:title></dc:title></cc:Work></rdf:RDF></metadata><defs
     id="defs6"><clipPath
       id="clipPath18"
       clipPathUnits="userSpaceOnUse"><path
         id="path16"
         d="M 0,792 H 1224 V 0 H 0 Z" /></clipPath></defs><g
     transform="matrix(1.3333333,0,0,-1.3333333,-341.93852,827.98385)"
     id="g10"><path
       style="fill:#f15c2e;fill-opacity:1;fill-rule:nonzero;stroke:none;stroke-width:1.33333325"
       d="M 66.501953,0 C 29.840621,0 0,29.837767 0,66.509766 v 47.068354 c 0,36.67201 29.840621,66.50977 66.501953,66.50977 C 103.16462,180.08789 133,150.25013 133,113.57812 V 66.509766 C 133,29.837767 103.16462,0 66.501953,0 Z m 8.832031,31.542969 H 98.763672 V 54.970703 78.400391 101.82812 H 75.369141 75.333984 57.632812 V 78.400391 H 75.333984 V 54.970703 Z M 28.544922,78.400391 h 23.427734 v 23.429689 23.42773 h 23.361328 v -17.36133 h 23.429688 v 17.36133 23.42969 H 75.369141 75.333984 51.972656 51.941406 28.544922 v -23.42969 -23.42773 z"
       transform="matrix(0.75000002,0,0,-0.75000002,256.4539,620.9879)"
       id="path90"
       inkscape:connector-curvature="0" /><path
       inkscape:connector-curvature="0"
       d="m 430.9099,543.5333 v 15.948 c 0,17.706 -5.276,24.038 -25.445,24.038 h -9.264 c -4.456,0 -6.333,-1.875 -6.333,-6.332 v -51.36 c 0,-4.456 1.877,-6.333 6.333,-6.333 h 9.264 c 20.169,0 25.445,5.98 25.445,24.039 m -47.491,33.89 c 0,8.559 3.636,12.195 12.195,12.195 h 9.851 c 23.335,0 32.013,-7.153 32.013,-30.137 v -15.948 c 0,-22.162 -8.678,-30.137 -32.013,-30.137 h -9.851 c -8.559,0 -12.195,3.636 -12.195,12.196 z"
       style="fill:#f15c2e;fill-opacity:1;fill-rule:nonzero;stroke:none"
       id="path138" /><path
       inkscape:connector-curvature="0"
       d="m 453.4265,568.0411 c 0,2.229 0.586,2.814 2.814,2.814 h 0.586 c 2.229,0 2.815,-0.585 2.815,-2.814 v -51.83 c 0,-2.229 -0.586,-2.815 -2.815,-2.815 h -0.586 c -2.228,0 -2.814,0.586 -2.814,2.815 z"
       style="fill:#f15c2e;fill-opacity:1;fill-rule:nonzero;stroke:none"
       id="path142" /><path
       inkscape:connector-curvature="0"
       d="m 517.1854,547.8721 c 0,11.844 -3.87,18.176 -18.528,18.176 -14.54,0 -18.528,-6.332 -18.528,-18.176 v -11.491 c 0,-11.844 3.988,-18.177 18.528,-18.177 14.658,0 18.528,6.333 18.528,18.177 z m -43.271,-11.491 v 11.491 c 0,14.541 6.333,24.039 24.743,24.039 18.761,0 24.86,-9.381 24.86,-24.039 v -11.491 c 0,-14.541 -6.332,-24.039 -24.86,-24.039 -18.645,0 -24.743,9.381 -24.743,24.039"
       style="fill:#f15c2e;fill-opacity:1;fill-rule:nonzero;stroke:none"
       id="path146" /><path
       inkscape:connector-curvature="0"
       d="m 541.076,536.3809 c 0,-11.844 3.87,-18.177 18.528,-18.177 14.658,0 18.528,6.333 18.528,18.177 v 11.491 c 0,11.844 -3.87,18.176 -18.528,18.176 -14.658,0 -18.528,-6.332 -18.528,-18.176 z m 43.388,0 c 0,-14.894 -6.919,-24.039 -24.86,-24.039 -18.294,0 -24.743,9.145 -24.743,24.039 v 11.374 c 0,14.658 5.981,24.156 24.156,24.156 10.554,0 16.3,-3.517 19.115,-9.381 v 30.137 c 0,2.228 0.587,2.815 2.814,2.815 h 0.703 c 2.229,0 2.815,-0.587 2.815,-2.815 z"
       style="fill:#f15c2e;fill-opacity:1;fill-rule:nonzero;stroke:none"
       id="path150" /><path
       inkscape:connector-curvature="0"
       d="m 602.742,545.1749 h 34.944 v 4.691 c 0,11.961 -6.919,16.416 -17.472,16.416 -10.906,0 -17.472,-4.455 -17.472,-16.416 z m 40.572,-2.697 c -0.234,-2.228 -0.82,-2.814 -3.048,-2.814 h -37.524 v -4.104 c 0,-12.781 5.863,-17.356 19.348,-17.356 7.387,0 14.189,1.643 17.004,2.58 1.993,0.704 2.58,0 2.58,-2.11 v -0.704 c 0,-2.11 -0.587,-2.345 -2.58,-3.049 -2.932,-1.055 -9.733,-2.579 -16.886,-2.579 -17.004,0 -25.681,6.566 -25.681,24.039 v 11.491 c 0,13.837 5.628,24.039 23.804,24.039 14.541,0 23.336,-7.387 23.336,-22.632 0,-3.283 -0.235,-5.746 -0.353,-6.801"
       style="fill:#f15c2e;fill-opacity:1;fill-rule:nonzero;stroke:none"
       id="path154" /></g></svg>