<svg width="72" height="72" viewBox="0 0 72 72" fill="none" xmlns="http://www.w3.org/2000/svg">
<path fill-rule="evenodd" clip-rule="evenodd" d="M44.7751 27C44.5951 23.25 42.6151 20.7 37.2751 20.7C36.0751 20.7 34.9651 20.85 34.0051 21.09L29.4751 16.56C30.5251 16.11 31.6051 15.72 32.7751 15.48V9H41.7751V15.57C48.0451 17.1 51.1951 21.84 51.4051 27H44.7751ZM11.9551 15.99L16.1851 11.76L60.0451 55.62L55.8151 59.85L49.1551 53.19C47.2651 54.9 44.6551 56.01 41.7751 56.55V63H32.7751V56.49C27.0151 55.26 22.0951 51.57 21.7351 45H28.3351C28.6651 48.54 31.0951 51.3 37.2751 51.3C41.3851 51.3 43.5151 50.04 44.5351 48.57L34.0051 38.04C26.9551 35.97 22.2751 32.55 22.2751 26.31L11.9551 15.99Z" fill="#F15D2F"/>
</svg>
