<svg width="57" height="57" viewBox="0 0 57 57" fill="none" xmlns="http://www.w3.org/2000/svg">
<path fill-rule="evenodd" clip-rule="evenodd" d="M42.75 7.125V11.875H38V7.125H19V11.875H14.25V7.125H9.5V49.875H14.25V45.125H19V49.875H38V45.125H42.75V49.875H47.5V7.125H42.75ZM19 40.375H14.25V35.625H19V40.375ZM14.25 30.875H19V26.125H14.25V30.875ZM19 21.375H14.25V16.625H19V21.375ZM38 40.375H42.75V35.625H38V40.375ZM42.75 30.875H38V26.125H42.75V30.875ZM38 21.375H42.75V16.625H38V21.375Z" fill="#F15C2E"/>
</svg>
