<svg width="53" height="53" viewBox="0 0 53 53" fill="none" xmlns="http://www.w3.org/2000/svg">
<g clip-path="url(#clip0)">
<path d="M26.4993 16.4028C20.9309 16.4028 16.4009 20.9328 16.4009 26.5008C16.4009 32.0692 20.9309 36.5992 26.4993 36.5992C32.0673 36.5992 36.5973 32.0692 36.5973 26.5008C36.5973 20.9328 32.0673 16.4028 26.4993 16.4028ZM32.4947 24.5991L25.2604 31.8335C24.9567 32.1371 24.5584 32.2892 24.1605 32.2892C23.7626 32.2892 23.3647 32.1375 23.0611 31.8335L20.2965 29.0689C19.6891 28.4619 19.6891 27.4773 20.2965 26.87C20.9034 26.2626 21.888 26.2626 22.4954 26.87L24.1605 28.5351L30.2958 22.4002C30.9028 21.7929 31.8874 21.7929 32.4947 22.4002C33.1021 23.0071 33.1021 23.9918 32.4947 24.5991Z" fill="#F15D2F"/>
<path d="M49.0133 14.3801L49.0117 14.3389C48.9886 13.8298 48.9733 13.2912 48.964 12.692C48.9207 9.76967 46.5977 7.35243 43.675 7.18907C37.5813 6.849 32.8673 4.86199 28.8395 0.936095L28.8052 0.903342C27.4914 -0.301236 25.5096 -0.301236 24.1955 0.903342L24.1611 0.936095C20.1333 4.86199 15.4193 6.849 9.32567 7.18947C6.40339 7.35243 4.07995 9.76967 4.03669 12.6924C4.02779 13.2876 4.01202 13.8262 3.98897 14.3389L3.98655 14.4347C3.86807 20.6485 3.72088 28.3818 6.30796 35.401C7.73048 39.261 9.8849 42.6164 12.7109 45.3745C15.9296 48.5155 20.1455 51.0092 25.2412 52.7859C25.4069 52.8438 25.5792 52.8907 25.7547 52.9259C26.0022 52.9752 26.2512 52.9998 26.5003 52.9998C26.7494 52.9998 26.9989 52.9752 27.246 52.9259C27.4214 52.8907 27.5949 52.8434 27.7615 52.7851C32.8511 51.0052 37.0625 48.5103 40.2784 45.3696C43.1032 42.6107 45.2576 39.2546 46.6814 35.3938C49.2781 28.3535 49.1314 20.6056 49.0133 14.3801ZM26.4995 39.709C19.2162 39.709 13.2912 33.784 13.2912 26.5007C13.2912 19.2175 19.2162 13.2924 26.4995 13.2924C33.7824 13.2924 39.7078 19.2175 39.7078 26.5007C39.7078 33.784 33.7824 39.709 26.4995 39.709Z" fill="#F15D2F"/>
</g>
<defs>
<clipPath id="clip0">
<rect width="53" height="53" fill="white"/>
</clipPath>
</defs>
</svg>
