<svg width="55" height="55" viewBox="0 0 55 55" fill="none" xmlns="http://www.w3.org/2000/svg">
<path fill-rule="evenodd" clip-rule="evenodd" d="M50.4165 9.16991V8.34491C50.4165 5.34283 48.2623 2.61574 45.2832 2.31783C41.8457 1.97408 38.9582 4.65533 38.9582 8.02408V9.16991H36.6665V22.9199H52.7082V9.16991H50.4165ZM38.729 42.147C41.7082 38.8928 43.5415 34.5616 43.5415 29.7949C43.5415 29.0158 43.4498 28.2596 43.3582 27.5033L43.3582 27.5032H48.0103C48.079 28.2595 48.1248 29.0157 48.1248 29.7949C48.1248 42.4449 37.8582 52.7116 25.2082 52.7116C12.5582 52.7116 2.2915 42.4449 2.2915 29.7949C2.2915 17.1449 12.5582 6.87824 25.2082 6.87824C27.6144 6.87824 29.9061 7.24491 32.0832 7.93241V18.3366H22.9165V25.2116H16.0415V29.7949H32.0832V38.9616H38.729V42.147ZM6.87484 29.7949C6.87484 39.1449 13.8644 46.8449 22.9165 47.9678V43.5449H18.3332V36.6699L7.35609 25.6928C7.05817 27.022 6.87484 28.3741 6.87484 29.7949ZM41.2498 9.16991H48.1248V8.02408C48.1248 6.12199 46.5894 4.58658 44.6873 4.58658C42.7853 4.58658 41.2498 6.12199 41.2498 8.02408V9.16991Z" fill="#F15D2F"/>
</svg>
