<svg width="90" height="17" viewBox="0 0 90 17" fill="none" xmlns="http://www.w3.org/2000/svg">
<path d="M8.96001 1.3246C12.4303 0.859928 15.9073 0.422252 19.3842 0C19.3864 2.66655 19.3842 5.33117 19.3864 7.99772C15.9117 8.00929 12.4369 8.05556 8.96001 8.0652C8.95781 5.81705 8.95781 3.57082 8.96001 1.3246ZM0.146484 2.40047C2.75969 2.04763 5.38414 1.74299 8.00837 1.45571C8.01057 3.66723 8.01057 5.87682 8.01278 8.08834C5.39075 8.08641 2.76851 8.12112 0.146484 8.11533V2.40047ZM41.6626 2.77259C42.35 2.3889 43.2292 3.18906 42.8282 3.79063C42.6343 4.23216 41.9248 4.3999 41.5238 4.07598C41.0214 3.77713 41.0919 2.98276 41.6626 2.77259ZM59.6664 2.69354C60.1071 2.69161 60.5478 2.69161 60.9884 2.69161V13.4889H59.671C59.6732 13.0975 59.6644 12.7059 59.6336 12.3147C58.6795 13.8146 56.128 14.1464 54.6694 13.0339C53.6274 12.2492 53.3099 10.9728 53.365 9.81764C53.376 8.64536 53.8167 7.39982 54.8831 6.63437C56.269 5.63562 58.7258 5.69346 59.6754 7.16074C59.6576 5.67051 59.673 4.18203 59.6664 2.69354ZM56.8196 6.96233C55.762 7.10887 55.0459 7.95337 54.8478 8.8268C54.5876 9.87953 54.6339 11.0979 55.3921 11.9927C56.2117 12.945 58.0207 12.9664 58.8977 12.066C59.4948 11.5223 59.6642 10.7433 59.6688 10.0145C59.6752 9.24519 59.7504 8.37755 59.1665 7.7355C58.6507 7.09344 57.6878 6.80423 56.8196 6.96233ZM25.254 3.26811C25.7498 3.27004 26.2455 3.27004 26.7435 3.27583C27.5171 5.72064 28.2795 8.16932 29.0548 10.6159C29.2218 11.1301 29.3426 11.6549 29.4162 12.1855C30.2226 9.18349 31.3243 6.24508 32.2497 3.26811C32.6794 3.27004 33.1091 3.27004 33.5389 3.27197C34.2198 5.39094 34.8563 7.51955 35.5306 9.64045C35.7798 10.485 36.1015 11.3179 36.2028 12.1911C36.9322 9.19294 37.9719 6.25453 38.7982 3.27583C39.2873 3.27004 39.7765 3.27004 40.2656 3.27004C39.1992 6.68083 38.0887 10.082 37.0093 13.4889H35.4204C34.6382 11.0424 33.8628 8.59331 33.0718 6.15061C32.9394 5.75535 32.8843 5.34659 32.8427 4.93784C32.781 5.29068 32.7237 5.64738 32.6199 5.99251C31.8201 8.4836 31.0092 10.9706 30.2315 13.4658C29.7029 13.4908 29.1738 13.4928 28.645 13.4889C27.5103 10.0839 26.3843 6.67505 25.254 3.26811ZM46.2104 7.34217C46.9661 6.1641 48.7288 5.62231 50.15 6.16796C51.2803 6.55358 51.7012 7.69867 51.7365 8.67448C51.7979 10.2785 51.7475 11.8846 51.7629 13.4889C51.3222 13.4889 50.8815 13.4889 50.4409 13.487C50.4208 11.9464 50.4871 10.402 50.4098 8.8615C50.3745 8.09798 50.0044 7.18021 49.0549 6.98547C47.669 6.61913 46.2853 7.71236 46.241 8.91163C46.2013 10.4368 46.2388 11.9638 46.2256 13.4889H44.9035C44.906 11.046 44.906 8.60507 44.9035 6.16218H46.228C46.2258 6.55551 46.2236 6.94884 46.2104 7.34217ZM66.1311 5.98094C67.31 5.89032 68.6163 6.05228 69.5023 6.79845C70.5026 7.60632 70.8001 8.8615 70.745 10.0087C70.7296 11.0402 70.2933 12.0872 69.4296 12.8064C67.6272 14.2409 64.2803 13.9266 63.1365 11.9542C62.2378 10.3018 62.4182 8.01507 64.0597 6.75988C64.6483 6.32414 65.393 6.12554 66.1311 5.98094ZM65.8932 7.02982C63.9518 7.55233 63.6235 9.77156 64.2294 11.2311C64.7119 12.5268 66.5936 13.1014 67.9443 12.496C68.8587 12.1277 69.2751 11.2253 69.3633 10.3982C69.4622 9.43222 69.3743 8.33726 68.5943 7.58318C67.9335 6.93148 66.8142 6.79073 65.8932 7.02982ZM86.1797 5.97708C87.006 5.92695 87.8477 5.99636 88.6257 6.26244C88.8414 6.62106 88.6741 7.09152 88.7248 7.49449C87.7972 6.9874 86.519 6.66348 85.5123 7.18021C84.8226 7.50798 84.7896 8.47762 85.4616 8.83837C86.4245 9.38402 87.6474 9.52669 88.5023 10.2285C89.4453 11.0229 89.2162 12.5499 88.1123 13.1457C86.7704 13.8938 85.0033 13.8206 83.5976 13.2498C83.5976 12.8179 83.5954 12.3862 83.5865 11.9542C84.5869 12.6213 85.9926 12.9915 87.1891 12.5172C87.8875 12.2106 87.9228 11.2716 87.3081 10.8764C86.3452 10.2555 85.0256 10.1572 84.1704 9.38209C83.3268 8.63785 83.4786 7.2689 84.4196 6.63842C84.9062 6.24701 85.565 6.1294 86.1797 5.97708ZM41.3784 6.1641C41.819 6.16218 42.2597 6.16218 42.7004 6.16218V13.4889H41.3784C41.3784 11.046 41.3806 8.60507 41.3784 6.1641ZM71.2959 6.16218H72.6752C73.2216 7.9071 73.7507 9.65588 74.3079 11.3989C74.4203 11.7265 74.4621 12.066 74.5018 12.4053C75.1253 10.3039 75.9141 8.24066 76.6214 6.16025L77.8269 6.16603C78.4328 8.24837 79.1864 10.2999 79.6885 12.4034C80.2066 10.3112 80.9423 8.26572 81.5176 6.18531C81.9604 6.16603 82.4033 6.16025 82.8482 6.15639C82.0087 8.59948 81.2045 11.0499 80.3608 13.4889H78.9901C78.3952 11.503 77.624 9.55562 77.1414 7.54847C76.5664 9.55369 75.7687 11.5049 75.1121 13.4889H73.7879C72.9594 11.046 72.1133 8.60873 71.2959 6.16218ZM0.146484 8.81137C2.76653 8.80366 5.38612 8.84029 8.00594 8.83644C8.00594 11.0537 8.01256 13.271 8.00837 15.4884C5.39075 15.1488 2.76851 14.8521 0.146484 14.5417V8.81137ZM8.94459 8.90007H19.3842C19.3886 11.5589 19.3842 14.2177 19.3842 16.8785C15.9139 16.4235 12.4369 16.0012 8.96001 15.5888C8.9556 13.3597 8.94899 11.1309 8.94459 8.90007Z" fill="#fff"/>
</svg>
