<?xml version="1.0" encoding="UTF-8" standalone="no"?>
<svg
   xmlns:dc="http://purl.org/dc/elements/1.1/"
   xmlns:cc="http://creativecommons.org/ns#"
   xmlns:rdf="http://www.w3.org/1999/02/22-rdf-syntax-ns#"
   xmlns:svg="http://www.w3.org/2000/svg"
   xmlns="http://www.w3.org/2000/svg"
   xmlns:sodipodi="http://sodipodi.sourceforge.net/DTD/sodipodi-0.dtd"
   xmlns:inkscape="http://www.inkscape.org/namespaces/inkscape"
   version="1.1"
   viewBox="0 -64 512 512"
   id="svg6"
   sodipodi:docname="telegram.svg"
   width="512"
   height="512"
   inkscape:version="0.92.3 (2405546, 2018-03-11)"
   inkscape:export-filename="/home/dominicletz/projects/exosite2/website/images/newsletter/telegram.png"
   inkscape:export-xdpi="9"
   inkscape:export-ydpi="9">
  <metadata
     id="metadata12">
    <rdf:RDF>
      <cc:Work
         rdf:about="">
        <dc:format>image/svg+xml</dc:format>
        <dc:type
           rdf:resource="http://purl.org/dc/dcmitype/StillImage" />
        <dc:title />
      </cc:Work>
    </rdf:RDF>
  </metadata>
  <defs
     id="defs10" />
  <sodipodi:namedview
     pagecolor="#ffffff"
     bordercolor="#666666"
     borderopacity="1"
     objecttolerance="10"
     gridtolerance="10"
     guidetolerance="10"
     inkscape:pageopacity="0"
     inkscape:pageshadow="2"
     inkscape:window-width="756"
     inkscape:window-height="480"
     id="namedview8"
     showgrid="false"
     fit-margin-top="0"
     fit-margin-left="0"
     fit-margin-right="0"
     fit-margin-bottom="0"
     inkscape:zoom="0.4609375"
     inkscape:cx="-122.57627"
     inkscape:cy="320"
     inkscape:window-x="45"
     inkscape:window-y="27"
     inkscape:window-maximized="0"
     inkscape:current-layer="svg6" />
  <g
     transform="matrix(1,0,0,-1,0,384)"
     id="g4"
     style="fill:#5e5e5e;fill-opacity:1">
    <path
       d="m 355.291,279.589 c 4.31934,2.67871 8.74121,-3.2666 4.93359,-6.63184 l -159.033,-140.633 c -1.58594,-1.40234 -2.59473,-3.34277 -2.83008,-5.44531 l -6.12305,-54.4297 c -0.2002,-1.77539 -2.68555,-2.01074 -3.21484,-0.304688 l -25.1914,81.173798 c -1.15332,3.7168 0.35059,7.74316 3.65723,9.79297 z M 0,448 H 512 V -64 H 0 Z M 426.786,314.961 c 2.86328,13.6904 -10.6035,25.0957 -23.6357,20.0176 L 60.7693,201.5566 c -11.0898,-4.32227 -10.417,-20.2354 0.998047,-23.6064 l 87.002003,-25.6914 32.4697,-103.028 c 3.3916,-10.7617 17.0293,-14.0244 24.9238,-5.96387 l 44.9834,45.9287 88.2578,-64.7852 c 10.8018,-7.92773 26.1826,-2.03809 28.9268,11.0762 z"
       id="path2"
       inkscape:connector-curvature="0"
       style="fill:#5e5e5e;fill-opacity:1" />
  </g>
</svg>
