<?xml version="1.0" encoding="UTF-8" standalone="no"?>
<svg
   xmlns:dc="http://purl.org/dc/elements/1.1/"
   xmlns:cc="http://creativecommons.org/ns#"
   xmlns:rdf="http://www.w3.org/1999/02/22-rdf-syntax-ns#"
   xmlns:svg="http://www.w3.org/2000/svg"
   xmlns="http://www.w3.org/2000/svg"
   xmlns:sodipodi="http://sodipodi.sourceforge.net/DTD/sodipodi-0.dtd"
   xmlns:inkscape="http://www.inkscape.org/namespaces/inkscape"
   version="1.1"
   viewBox="0 -64 512 512"
   id="svg6"
   sodipodi:docname="twitter.svg"
   width="512"
   height="512"
   inkscape:version="0.92.3 (2405546, 2018-03-11)">
  <metadata
     id="metadata12">
    <rdf:RDF>
      <cc:Work
         rdf:about="">
        <dc:format>image/svg+xml</dc:format>
        <dc:type
           rdf:resource="http://purl.org/dc/dcmitype/StillImage" />
        <dc:title></dc:title>
      </cc:Work>
    </rdf:RDF>
  </metadata>
  <defs
     id="defs10" />
  <sodipodi:namedview
     pagecolor="#ffffff"
     bordercolor="#666666"
     borderopacity="1"
     objecttolerance="10"
     gridtolerance="10"
     guidetolerance="10"
     inkscape:pageopacity="0"
     inkscape:pageshadow="2"
     inkscape:window-width="756"
     inkscape:window-height="480"
     id="namedview8"
     showgrid="false"
     fit-margin-top="0"
     fit-margin-left="0"
     fit-margin-right="0"
     fit-margin-bottom="0"
     inkscape:zoom="0.4609375"
     inkscape:cx="256"
     inkscape:cy="320"
     inkscape:window-x="407"
     inkscape:window-y="236"
     inkscape:window-maximized="0"
     inkscape:current-layer="svg6" />
  <g
     transform="matrix(1,0,0,-1,0,384)"
     id="g4"
     style="fill:#5e5e5e;fill-opacity:1">
    <path
       d="M 0,448 H 512 V -64 H 0 Z M 405.877,263.813 c 4.40332,3.46582 31.6338,25.291 38.3066,39.3193 0,0 -22.1133,-9.18945 -43.7568,-11.3545 -0.042,0 -0.0947,-0.0107 -0.1377,-0.0107 0,0 0.043,0.0215 0.11719,0.0742 1.99414,1.33301 29.875,20.3105 33.6484,42.9248 0,0 -15.6406,-8.34863 -37.541,-15.6523 -3.625,-1.2041 -7.41992,-2.38867 -11.333,-3.48633 -14.1162,15.0664 -34.1816,24.4697 -56.4541,24.4697 -42.7227,0 -77.3408,-34.6084 -77.3408,-77.2979 0,-6.02441 0.69239,-11.8877 2.00391,-17.5176 -5.96973,0.24609 -96.8848,5.3418 -158.733997,80.2412 0,0 -36.9639,-50.4629 22.028297,-102.354 0,0 -17.933597,0.71484 -33.404297,9.95898 0,0 -5.68262,-61.1357 61.124997,-76.7656 0,0 -13.1455,-4.97949 -34.1182,-1.42969 0,0 11.7285,-49.3965 71.083,-54.0127 0,0 -46.9238,-42.389603 -113.536997,-32.455103 v 0 l -0.02246,0.0039 c 0.0068,-9.77e-4 0.01465,-0.0029 0.02246,-0.0039 34.074197,-21.6104 74.493197,-34.1172 117.822997,-34.1172 121.728,0 220.402,98.686503 220.402,220.402003 0,3.03906 -0.0635,6.05664 -0.18066,9.0625 z"
       id="path2"
       inkscape:connector-curvature="0"
       style="fill:#5e5e5e;fill-opacity:1" />
  </g>
</svg>
