<?xml version="1.0" encoding="UTF-8" standalone="no"?>
<svg
   xmlns:dc="http://purl.org/dc/elements/1.1/"
   xmlns:cc="http://creativecommons.org/ns#"
   xmlns:rdf="http://www.w3.org/1999/02/22-rdf-syntax-ns#"
   xmlns:svg="http://www.w3.org/2000/svg"
   xmlns="http://www.w3.org/2000/svg"
   xmlns:sodipodi="http://sodipodi.sourceforge.net/DTD/sodipodi-0.dtd"
   xmlns:inkscape="http://www.inkscape.org/namespaces/inkscape"
   version="1.1"
   viewBox="0 -64 512 512"
   id="svg6"
   sodipodi:docname="youtube.svg"
   width="512"
   height="512"
   inkscape:version="0.92.3 (2405546, 2018-03-11)"
   inkscape:export-filename="/home/dominicletz/projects/exosite2/website/images/newsletter/youtube.png"
   inkscape:export-xdpi="9"
   inkscape:export-ydpi="9">
  <metadata
     id="metadata12">
    <rdf:RDF>
      <cc:Work
         rdf:about="">
        <dc:format>image/svg+xml</dc:format>
        <dc:type
           rdf:resource="http://purl.org/dc/dcmitype/StillImage" />
        <dc:title></dc:title>
      </cc:Work>
    </rdf:RDF>
  </metadata>
  <defs
     id="defs10" />
  <sodipodi:namedview
     pagecolor="#ffffff"
     bordercolor="#666666"
     borderopacity="1"
     objecttolerance="10"
     gridtolerance="10"
     guidetolerance="10"
     inkscape:pageopacity="0"
     inkscape:pageshadow="2"
     inkscape:window-width="754"
     inkscape:window-height="480"
     id="namedview8"
     showgrid="false"
     fit-margin-top="0"
     fit-margin-left="0"
     fit-margin-right="0"
     fit-margin-bottom="0"
     inkscape:zoom="0.4609375"
     inkscape:cx="256"
     inkscape:cy="320"
     inkscape:window-x="694"
     inkscape:window-y="268"
     inkscape:window-maximized="0"
     inkscape:current-layer="svg6" />
  <g
     transform="matrix(1,0,0,-1,0,384)"
     id="g4"
     style="fill:#5e5e5e;fill-opacity:1">
    <path
       d="m 225.143,69.2734 v 75.1377 l 18.335,0.0449 v -52.296898 -48.5674 h -18.3242 v 11.0996 c -0.66309,-0.708008 -1.0332,-1.08984 -1.38184,-1.4834 -3.94336,-4.44824 -8.41504,-8.15625 -14.1221,-10.1221 -2.78613,-0.955078 -5.65137,-1.28125 -8.58301,-0.775391 -4,0.663086 -6.68457,2.96582 -8.30273,6.60645 -1.50488,3.3584 -1.8877,6.9541 -1.89844,10.5713 -0.0449,13.3691 -0.0225,84.125999 -0.0225,84.810499 h 18.2783 c 0.0342,-0.61719 0.10156,-51.409199 0.1123,-76.181599 0,-1.34863 0.0117,-2.73047 0.28125,-4.04492 0.67383,-3.3252 3.22461,-4.75195 6.42676,-3.58398 3.68457,1.34863 6.49316,3.8877 8.85254,6.93164 0.34864,0.438477 0.34864,1.22461 0.34863,1.853579 z m 86.63,67.1506 c 2.28027,-4.86621 2.9209,-10.0557 2.9209,-15.3359 0.0332,-19.0869 0.0332,-38.1748 0.0107,-57.2627 -0.0107,-3.57324 -0.38183,-7.10059 -1.5166,-10.5273 -2.44922,-7.37012 -7.8418,-11.1221 -15.5938,-11.0439 -6.30273,0.05664 -11.4141,2.5625 -15.627,7.13477 -0.47265,0.504883 -1.77539,1.88672 -1.77539,1.88672 v -7.66211 h -18.3574 v 136.559 h 18.3574 v -44.9502 c 0,0 1.0332,2.06738 1.97754,3.13477 2.8418,3.17871 6.30273,5.63965 10.5713,6.71777 7.04395,1.76367 15.167,-0.41602 19.0322,-8.65039 z M 295.797,66.1045 c 0.0225,18.0557 0.0566,36.0986 -0.0332,54.1396 -0.0117,1.91016 -0.57325,3.89844 -1.28125,5.68555 -0.94336,2.34766 -2.96582,3.5166 -5.50488,3.76367 -2.97656,0.29199 -5.3584,-0.91016 -7.51562,-2.82031 -0.86524,-0.75293 -1.25879,-1.87598 -1.25879,-1.87598 l 0.0449,-60.6338 v -1.49414 c 0,0 0.51758,-0.696289 0.5957,-0.786133 1.75293,-1.89941 3.79785,-3.4043 6.41504,-3.94336 4.31445,-0.887695 7.3584,0.90918 8.20117,4.90918 0.21387,1 0.33692,2.0332 0.33691,3.05572 z M 245.763,255.448 c -4.28027,0 -7.76367,3.4834 -7.7627,7.7627 v 54.7695 c 0,4.2793 3.4834,7.7627 7.7627,7.7627 4.2793,0 7.76172,-3.48145 7.76172,-7.7627 v -54.7695 c 0,-4.28125 -3.48145,-7.7627 -7.76172,-7.7627 z M 190.888,180.159 V 160.6346 H 169.4183 V 43.6016 H 148.724 v 116.988 h -21.4248 v 19.5693 z M 364.217,79.4072 h 18.8848 c 0,0 0.28125,-15.29 -2.11133,-22.2666 -3.17969,-9.31348 -9.75195,-14.4814 -19.3916,-15.8975 -5.97656,-0.875977 -11.8975,-0.75293 -17.5039,1.78613 -7.67285,3.46094 -12.0205,9.71875 -13.8857,17.6836 -0.86523,3.70801 -1.29199,7.59473 -1.33691,11.4033 -0.14551,14.9531 -0.0781,29.918 -0.0449,44.8711 0.0117,7.81934 1.87598,15.0322 7.23535,21.0205 6.11133,6.8418 13.9307,9.39258 22.8623,8.81934 2.68555,-0.16895 5.42676,-0.60645 7.97656,-1.44922 8.68457,-2.85352 13.3242,-9.3584 15.1445,-17.9873 0.69629,-3.3252 0.95508,-6.77441 1.01074,-10.1787 0.14648,-7.97656 -0.0557,-25.5586 -0.0557,-25.5586 h -35.1533 v -25.1992 c 0,-4.52734 3.66211,-8.19043 8.19043,-8.19043 4.51562,0 8.17871,3.66309 8.17871,8.19043 z m -16.369,42.0168 v -14.1445 h 16.3691 v 14.1445 c 0,4.5166 -3.66309,8.19043 -8.17871,8.19043 -4.52832,0 -8.19043,-3.67383 -8.19039,-8.19043 z M 0,448 H 512 V -64 H 0 Z M 288.434,341.281 v -86.6855 c 0.0195,-2.53027 0.46973,-5.1416 1.21582,-7.56543 2.24023,-7.27539 8.22363,-9.49512 15.249,-8.12305 4.57617,0.89551 8.48828,3.16406 11.9414,6.20605 1.94824,1.7168 3.7207,3.62793 5.79785,5.67383 l -0.0225,-10.8916 h 18.7861 l 0.005,101.386 h -18.7803 v -75.1807 c 0,-0.63965 0.0625,-1.45312 -0.28125,-1.88867 -2.41992,-3.05176 -5.27441,-5.6416 -9.01465,-6.93555 -3.06836,-1.06348 -5.42383,0.43555 -5.98926,3.62207 -0.17969,1.00488 -0.26172,2.04004 -0.26172,3.06445 v 77.3184 z m -42.671,2.538 c -14.8584,0 -26.9014,-12.043 -26.9004,-26.9004 v -52.6445 c 0,-14.8564 12.043,-26.9004 26.9004,-26.9004 v 0 c 14.8564,0 26.9004,12.0439 26.9004,26.9004 v 52.6445 c 0,14.8574 -12.0439,26.9004 -26.9004,26.9004 z m -72.364,33.324 h -21.3779 c 0,0 16.4248,-54.4736 23.7705,-78.7676 0.26367,-0.87793 0.38477,-1.83203 0.38477,-2.75195 l -0.008,-55.7061 h 19.7139 l -0.009,55.7061 c 0,0.91992 0.12012,1.875 0.38477,2.75195 7.3457,24.2939 23.7705,78.7676 23.7705,78.7676 h -21.3789 c 0,0 -8.54395,-36.2891 -12.6221,-53.4795 h -0.007 c -4.07812,17.1904 -12.6221,53.4795 -12.6221,53.4795 z M 408.47,53.8135 v 112.078 c 0,24.9072 -19.9072,45.2637 -44.8154,45.792 -71.7559,1.53906 -143.545,1.53906 -215.312,0 -24.8965,-0.52832 -44.8037,-20.8848 -44.8037,-45.792 V 53.8135 c 0,-24.918 19.9072,-45.2754 44.8037,-45.8037 71.7676,-1.53906 143.557,-1.53906 215.312,0 24.9082,0.52832 44.8154,20.8857 44.8154,45.8037 z"
       id="path2"
       inkscape:connector-curvature="0"
       style="fill:#5e5e5e;fill-opacity:1" />
  </g>
</svg>
