<svg xmlns="http://www.w3.org/2000/svg" width="558" height="558" fill="none"><g fill="#000" clip-path="url(#a)"><path d="M538.383 0H139.5v17.438h398.883c1.199 0 2.179.98 2.179 2.18V69.75H17.437V19.617c0-1.199.981-2.18 2.18-2.18h102.445V0H19.617C8.827 0 0 8.828 0 19.617v433.758h17.438V87.187h523.124v95.907H558V19.617C558 8.827 549.172 0 538.383 0ZM540.562 538.383c0 1.199-.98 2.179-2.179 2.179H19.617c-1.199 0-2.18-.98-2.18-2.179v-67.571H0v67.571C0 549.172 8.828 558 19.617 558h518.766c10.789 0 19.617-8.828 19.617-19.617V200.531h-17.438v337.852Z"/><path d="M52.313 34.875H34.874v17.438h17.438V34.874ZM87.188 34.875H69.75v17.438h17.438V34.874ZM122.062 34.875h-17.437v17.438h17.437V34.874ZM523.125 34.875h-17.437v17.438h17.437V34.874ZM192.139 240.964l-13.405-11.225c-17.873 21.252-28.336 47.081-30.297 74.763l17.437 1.199c1.744-23.976 10.789-46.318 26.265-64.737ZM192.139 386.786c-15.476-18.419-24.521-40.761-26.265-64.737l-17.437 1.199c1.961 27.682 12.424 53.511 30.297 74.763l13.405-11.225ZM270.935 426.892c-23.977-1.635-46.319-10.79-64.737-26.265l-11.225 13.405c21.252 17.873 47.081 28.336 74.763 30.297l1.199-17.437ZM287.064 426.892l1.199 17.437c27.682-1.961 53.512-12.424 74.764-30.297l-11.226-13.405c-18.418 15.475-40.76 24.521-64.737 26.265ZM409.455 323.248l-17.438-1.199c-1.744 23.976-10.789 46.318-26.265 64.737l13.405 11.225c17.873-21.252 28.336-47.081 30.298-74.763ZM409.455 304.502c-1.962-27.682-12.425-53.511-30.298-74.763l-13.405 11.225c15.476 18.419 24.521 40.761 26.265 64.737l17.438-1.199ZM363.027 213.718c-21.252-17.873-47.082-28.336-74.764-30.297l-1.199 17.437c23.977 1.744 46.319 10.79 64.737 26.265l11.226-13.405ZM270.935 200.858l-1.199-17.437c-27.682 1.961-53.511 12.424-74.763 30.297l11.225 13.405c18.418-15.475 40.76-24.521 64.737-26.265ZM209.25 279v69.75c0 2.834 1.307 5.449 3.705 7.084l61.031 43.594c1.526 1.09 3.27 1.634 5.014 1.634 1.743 0 3.596-.544 5.013-1.634l61.031-43.594c2.289-1.635 3.706-4.25 3.706-7.084v-26.156h-17.438v21.688L279 381.663l-52.313-37.381v-60.814L279 246.087l52.312 37.381v21.688h17.438V279c0-2.834-1.308-5.449-3.706-7.084l-61.031-43.594a8.675 8.675 0 0 0-10.136 0l-61.031 43.594c-2.289 1.635-3.705 4.25-3.705 7.084h.109Z"/><path d="M89.367 261.562c-10.79 0-19.617 8.828-19.617 19.618v65.39c0 10.79 8.828 19.617 19.617 19.617h23.214a165.209 165.209 0 0 0 11.77 28.336l-16.456 16.457c-7.629 7.629-7.629 20.053 0 27.791l46.209 46.209c3.705 3.706 8.61 5.777 13.841 5.777s10.135-2.071 13.841-5.777l16.457-16.456a165.209 165.209 0 0 0 28.336 11.77v23.214c0 10.789 8.827 19.617 19.617 19.617h65.39c10.79 0 19.618-8.828 19.618-19.617v-23.214a165.232 165.232 0 0 0 28.335-11.77l16.457 16.456c3.706 3.706 8.61 5.777 13.841 5.777s10.136-2.071 13.841-5.777l46.209-46.209c7.629-7.629 7.629-20.053 0-27.791l-16.456-16.457a165.209 165.209 0 0 0 11.77-28.336h23.214c10.789 0 19.617-8.827 19.617-19.617v-65.39c0-10.79-8.828-19.618-19.617-19.618h-23.214a165.232 165.232 0 0 0-11.77-28.335l16.456-16.457c7.629-7.629 7.629-20.053 0-27.791l-46.209-46.209c-3.705-3.706-8.61-5.777-13.841-5.777s-10.135 2.071-13.841 5.777l-16.457 16.456a165.232 165.232 0 0 0-28.335-11.77v-23.214c0-10.789-8.828-19.617-19.618-19.617h-65.39c-10.79 0-19.617 8.828-19.617 19.617v23.214a165.209 165.209 0 0 0-28.336 11.77l-16.457-16.456c-3.706-3.706-8.61-5.777-13.841-5.777s-10.136 2.071-13.841 5.777l-46.209 46.209c-7.629 7.629-7.629 20.053 0 27.791l16.456 16.457a165.232 165.232 0 0 0-11.77 28.335H89.367Zm38.145 11.008c3.487-12.751 8.609-25.066 15.149-36.619 1.961-3.378 1.416-7.738-1.417-10.462l-21.034-21.034c-.872-.872-.872-2.18 0-3.052l46.209-46.209s1.09-.654 1.526-.654c.436 0 .981.109 1.526.654l21.034 21.034c2.833 2.833 7.084 3.378 10.462 1.417 11.553-6.54 23.759-11.662 36.619-15.149 3.814-.981 6.43-4.469 6.43-8.392v-29.753c0-1.199.981-2.18 2.18-2.18h65.39c1.199 0 2.18.981 2.18 2.18v29.753c0 3.923 2.616 7.411 6.43 8.392 12.751 3.487 25.067 8.609 36.619 15.149 3.378 1.961 7.738 1.416 10.462-1.417l21.034-21.034s1.09-.654 1.526-.654c.436 0 .981.109 1.526.654l46.209 46.209c.872.872.872 2.18 0 3.052l-21.034 21.034c-2.833 2.833-3.378 7.084-1.417 10.462 6.54 11.553 11.662 23.759 15.149 36.619.981 3.814 4.469 6.43 8.392 6.43h29.753c1.199 0 2.18.981 2.18 2.18v65.39c0 1.199-.981 2.18-2.18 2.18h-29.753c-3.923 0-7.411 2.616-8.392 6.43-3.487 12.751-8.609 25.066-15.149 36.619-1.961 3.378-1.416 7.738 1.417 10.462l21.034 21.034c.872.872.872 2.18 0 3.052l-46.209 46.209s-1.09.654-1.526.654c-.436 0-.981-.109-1.526-.654l-21.034-21.034c-2.833-2.833-7.084-3.378-10.462-1.417-11.552 6.54-23.759 11.662-36.619 15.149-3.814.981-6.43 4.469-6.43 8.392v29.753c0 1.199-.981 2.18-2.18 2.18h-65.39a2.186 2.186 0 0 1-2.18-2.18v-29.753c0-3.923-2.616-7.411-6.43-8.392-12.751-3.487-25.066-8.609-36.619-15.149a8.744 8.744 0 0 0-4.359-1.198c-2.289 0-4.469.872-6.212 2.506l-21.034 21.034s-1.09.654-1.526.654c-.436 0-.981-.109-1.526-.654l-46.209-46.209c-.872-.872-.872-2.18 0-3.052l21.034-21.034c2.833-2.833 3.378-7.084 1.417-10.462-6.54-11.553-11.662-23.759-15.149-36.619-.981-3.814-4.469-6.43-8.392-6.43H89.258a2.186 2.186 0 0 1-2.18-2.18v-65.39c0-1.199.981-2.18 2.18-2.18h29.753c3.923 0 7.411-2.616 8.392-6.43l.109.109Z"/></g><defs><clipPath id="a"><path fill="#fff" d="M0 0h558v558H0z"/></clipPath></defs></svg>