<svg xmlns="http://www.w3.org/2000/svg" width="461" height="461" fill="none"><g fill="#000" clip-path="url(#a)"><path d="M230.635 381.781c37.734 0 73.937-13.953 101.854-39.429 24.135-21.966 40.346-50.862 46.559-82.46l12.248 11.883 9.996-10.353-22.334-21.605a7.352 7.352 0 0 0-7.474-1.62c-2.612.99-4.413 3.331-4.683 6.031-3.332 33.578-19.002 64.636-44.038 87.501a136.702 136.702 0 0 1-92.128 35.649c-73.036 0-133.104-57.074-136.706-129.991l-14.409.72c3.963 80.569 70.334 143.674 151.115 143.674ZM381.66 222.983c-3.962-80.569-70.334-143.674-151.115-143.674-37.734 0-73.936 13.953-101.854 39.429-24.135 21.966-40.345 50.863-46.56 82.46l-12.247-11.883-9.996 10.353 22.334 21.605a7.353 7.353 0 0 0 7.474 1.62c2.612-.99 4.413-3.331 4.683-6.031 3.332-33.578 19.002-64.636 44.038-87.501a136.704 136.704 0 0 1 92.128-35.649c73.036 0 133.104 57.074 136.706 129.991l14.409-.72Z"/><path d="M147.783 161.048c-14.769 17.555-23.415 38.89-25.036 61.755l14.409.99c1.351-19.804 8.916-38.259 21.704-53.472l-11.077-9.273ZM122.837 238.197c1.621 22.865 10.267 44.2 25.036 61.755l11.077-9.273c-12.788-15.213-20.263-33.668-21.704-53.472l-14.409.99ZM222.89 338.301l.991-14.404c-19.813-1.35-38.274-8.912-53.494-21.695l-9.276 10.983c17.561 14.763 38.905 23.405 61.779 25.026v.09ZM300.069 313.275l-9.276-10.983c-15.22 12.783-33.681 20.255-53.494 21.695l.991 14.404c22.874-1.621 44.218-10.263 61.779-25.026v-.09ZM302.32 290.679l10.987 9.273c14.769-17.555 23.415-38.89 25.036-61.755l-14.409-.99c-1.441 19.804-8.916 38.259-21.704 53.472h.09ZM313.397 161.048l-10.987 9.273c12.788 15.213 20.263 33.668 21.704 53.472l14.409-.99c-1.621-22.865-10.267-44.2-25.036-61.755h-.09ZM238.29 122.789l-.991 14.404c19.813 1.44 38.274 8.912 53.494 21.695l9.276-11.073c-17.561-14.763-38.905-23.405-61.779-25.026ZM161.111 147.725l9.276 11.073c15.22-12.783 33.681-20.255 53.494-21.695l-.991-14.404c-22.874 1.621-44.218 10.263-61.779 25.026ZM262.425 263.763l8.376 11.703 14.409-10.263c1.891-1.35 2.971-3.511 2.971-5.851v-57.614c0-2.34-1.08-4.501-2.971-5.851l-50.432-36.009a7.17 7.17 0 0 0-8.375 0l-50.432 36.009c-1.891 1.35-2.972 3.511-2.972 5.851v57.614c0 2.34 1.081 4.501 2.972 5.851l50.432 36.009c1.26.9 2.701 1.35 4.232 1.35 1.531 0 2.972-.45 4.143-1.35l21.613-15.394-8.375-11.703-17.471 12.423-43.227-30.877v-50.232l43.227-30.877 43.227 30.877v50.232l-11.437 8.102h.09ZM237.84 100.914h-14.409v14.404h14.409v-14.404ZM237.84 345.772h-14.409v14.404h14.409v-14.404ZM115.363 223.343h-14.409v14.404h14.409v-14.404ZM360.317 223.343h-14.409v14.404h14.409v-14.404Z"/><path d="M436.865 295.361H381.93v14.403h49.892c-11.167 28.267-28.278 54.103-50.702 75.798-3.783 3.691-7.745 7.202-11.708 10.623h-64.75c1.981-3.691 3.962-7.382 5.853-11.163l-12.878-6.392c-2.972 6.032-6.214 11.883-9.546 17.645H173.269c-3.332-5.762-6.574-11.613-9.546-17.645l-12.878 6.392c1.891 3.781 3.872 7.472 5.854 11.163H91.858c-4.863-4.051-9.546-8.372-14.049-12.873-21.343-21.336-37.644-46.272-48.36-73.548H79.43v-14.403H24.225c-6.484-20.705-9.816-42.491-9.816-64.816 0-24.846 4.143-49.152 12.248-72.017h59.887v-14.404H32.33c6.394-14.493 14.32-28.446 23.955-41.409l-11.617-8.553C15.49 133.863 0 181.034 0 230.456c0 61.575 23.955 119.459 67.543 162.939 6.033 6.031 12.427 11.703 19.001 17.014h.09c40.706 32.678 90.958 50.412 144.001 50.412 53.043 0 103.205-17.734 143.911-50.412h.18c5.673-4.681 11.167-9.542 16.48-14.674 43.137-41.86 67.993-97.943 69.884-157.987l-14.409-.45a218.196 218.196 0 0 1-9.726 57.883l-.09.181ZM165.074 410.588c6.934 11.163 14.499 21.785 22.694 31.778-27.467-5.492-53.494-16.294-76.818-31.778h54.124Zm44.578 35.018c-2.612-2.88-5.223-5.851-7.835-8.822a268.276 268.276 0 0 1-19.632-26.196h96.811a300.73 300.73 0 0 1-19.633 26.196c-2.521 2.971-5.133 5.942-7.835 8.822-6.934.631-13.959.991-20.983.991-7.024 0-14.049-.36-20.893-.991Zm63.76-3.24c8.195-9.993 15.76-20.615 22.694-31.778h54.034c-23.324 15.484-49.261 26.286-76.728 31.778ZM91.677 64.906h64.931c-1.981 3.69-3.962 7.381-5.853 11.162l12.878 6.392c2.972-6.032 6.214-11.883 9.546-17.644h114.822c3.332 5.76 6.574 11.612 9.546 17.644l12.878-6.392c-1.891-3.78-3.872-7.472-5.854-11.162h64.841c3.963 3.33 7.925 6.841 11.708 10.532 20.532 19.895 36.563 43.21 47.73 68.686h-54.124v14.404h59.797c7.295 20.705 11.437 42.58 12.158 65.085l14.409-.45c-1.891-59.954-26.747-116.127-69.884-157.988a251.146 251.146 0 0 0-16.48-14.583h-.091C333.84 17.734 283.408 0 230.545 0s-103.475 18.004-144 50.502C74.926 59.864 64.21 70.307 54.393 81.829l10.987 9.273c8.105-9.543 16.93-18.365 26.387-26.287l-.09.09Zm204.429-14.404c-6.934-11.163-14.589-21.785-22.784-31.868 27.467 5.492 53.493 16.294 76.818 31.868h-54.034Zm-44.668-35.018a184.817 184.817 0 0 1 7.835 8.912 268.416 268.416 0 0 1 19.632 26.196h-96.811a300.704 300.704 0 0 1 19.633-26.196c2.521-3.06 5.223-6.032 7.835-8.912 6.934-.63 13.868-.99 20.893-.99 7.024 0 14.049.36 20.893.99h.09Zm-63.76 3.24c-8.195 9.993-15.76 20.615-22.694 31.778H110.95c23.234-15.484 49.351-26.286 76.818-31.778h-.09Z"/></g><defs><clipPath id="a"><path fill="#fff" d="M0 0h461v461H0z"/></clipPath></defs></svg>