<svg xmlns="http://www.w3.org/2000/svg" width="462" height="496" fill="none"><g fill="#000" clip-path="url(#a)"><path d="m416.763 239.733 21.312 5.511c2.063-7.853 3.85-15.706 5.225-23.697v-.276l18.563-113.667c.825-4.96-1.925-9.92-6.463-11.849L235.4.965a10.55 10.55 0 0 0-8.662 0L6.6 95.892C1.925 97.96-.687 102.782.138 107.742l18.287 112.702v.276c17.738 93.964 72.05 177.596 152.9 235.324l53.35 38.027c1.925 1.378 4.125 2.067 6.325 2.067s4.4-.689 6.325-2.067l50.875-35.822c68.338-48.085 117.838-113.942 143-190.271l-20.9-6.889c-23.65 71.782-70.262 133.782-134.75 179.111l-44.412 31.276-47.025-33.48C107.8 383.711 56.787 305.04 40.013 216.724L23.1 112.702 231 23.009l207.763 89.693-17.188 104.987a317.157 317.157 0 0 1-4.95 22.044h.138Z"/><path d="M231 99.2c-30.525 0-60.362 10.747-84.012 30.311l14.025 16.947c19.662-16.258 44.55-25.214 69.987-25.214 25.438 0 50.325 8.956 69.988 25.214l14.025-16.947C291.363 109.947 261.525 99.2 231 99.2ZM129.25 147.284C109.725 170.982 99 200.88 99 231.467c0 30.586 10.725 60.484 30.25 84.182l16.913-14.053C129.938 281.893 121 256.956 121 231.467c0-25.489 8.938-50.427 25.163-70.129l-16.913-14.054ZM146.988 333.422c23.65 19.565 53.487 30.311 84.012 30.311s60.363-10.746 84.013-30.311l-14.025-16.946c-19.663 16.257-44.55 25.213-69.988 25.213-25.437 0-50.325-8.956-69.987-25.213l-14.025 16.946ZM332.75 315.649c19.525-23.698 30.25-53.596 30.25-84.182 0-30.587-10.725-60.485-30.25-84.183l-16.912 14.054C332.063 181.04 341 205.978 341 231.467c0 25.489-8.937 50.426-25.162 70.129l16.912 14.053ZM225.362 307.107c1.788 1.102 3.713 1.515 5.638 1.515 1.925 0 3.85-.551 5.637-1.515l55-33.067c3.3-1.929 5.363-5.511 5.363-9.507V198.4c0-3.858-2.063-7.44-5.363-9.507l-55-33.066c-3.437-2.067-7.837-2.067-11.275 0l-54.999 33.066c-3.3 1.929-5.363 5.511-5.363 9.507v66.133c0 3.858 2.063 7.44 5.363 9.507l54.999 33.067ZM187 204.738l44-26.454 44 26.454v53.595l-44 26.454-44-26.454v-53.595Z"/></g><defs><clipPath id="a"><path fill="#fff" d="M0 0h462v496H0z"/></clipPath></defs></svg>