<svg xmlns="http://www.w3.org/2000/svg" width="542" height="542" fill="none"><path fill="#231F20" d="M271 0C121.569 0 0 121.569 0 271c0 115.019 72.052 213.428 173.343 252.729.189.094.377.156.565.219A269.477 269.477 0 0 0 271 542c149.431 0 271-121.569 271-271C542 121.569 420.431 0 271 0ZM167.138 496.933C99.255 465.624 47.825 404.635 29.523 330.672l45.161-21.155a11.002 11.002 0 0 0 5.36-5.359l16.234-34.631 41.808 48.922c.219.282.501.564.783.846l47.387 44.911-46.791 38.517c-2.32 1.912-3.761 4.639-4.012 7.585a11.161 11.161 0 0 0 2.57 8.211l29.711 35.07-.596 43.344ZM271 519.748a247.79 247.79 0 0 1-81.736-13.852l.784-56.162a11.212 11.212 0 0 0-2.633-7.334l-25.103-29.648 47.794-39.363a11.26 11.26 0 0 0 4.043-8.211 11.214 11.214 0 0 0-3.479-8.462l-56.068-53.185-52.621-61.584c-2.444-2.883-6.205-4.324-9.934-3.792a11.1 11.1 0 0 0-8.588 6.3l-21.844 46.603-36.574 17.143A251.08 251.08 0 0 1 22.25 271C22.252 133.823 133.856 22.252 271 22.252c17.989 0 35.509 1.974 52.432 5.61l-26.514 6.863c-3.29.846-6.017 3.197-7.396 6.3a11.24 11.24 0 0 0 .376 9.715l7.334 13.664-35.665 13.759a11.197 11.197 0 0 0-7.115 10.28c-.031 4.544 2.696 8.68 6.927 10.404l50.896 20.81 44.692 23.192 43.563 19.682.438 6.738-16.955 3.134-22.847-3.667-47.042-23.505c-3.949-1.974-8.712-1.441-12.097 1.379l-37.608 31.372-41.934 31.685a11.139 11.139 0 0 0-3.949 11.972l15.326 52.84-14.574 28.833a11.1 11.1 0 0 0 1.599 12.411l27.109 30.619c2.476 2.79 6.143 4.168 9.841 3.636l53.247-7.209 11.847 34.663c.313.94.752 1.849 1.348 2.695 4.262 6.205 8.148 15.012 7.803 17.707-2.319 10.499 2.351 40.241 4.482 52.558a11.082 11.082 0 0 0 3.949 6.707l24.978 20.403a11.025 11.025 0 0 0 7.02 2.507c3.009 0 6.018-1.222 8.212-3.573l26.984-29.366c.971-1.034 1.723-2.288 2.225-3.604l32.155-85.81c.972-2.57.94-5.422-.063-7.992l-14.385-36.449 17.018-53.748 30.525-8.086V271c0 3.291 1.473 6.425 3.981 8.525l37.357 31.34C497.371 429.143 394.606 519.748 271 519.748Zm226.434-253.919v-28.896a11.12 11.12 0 0 0-4.325-8.807 11.217 11.217 0 0 0-9.653-1.943l-50.395 13.351a11.117 11.117 0 0 0-7.772 7.397l-20.058 63.307a11.086 11.086 0 0 0 .25 7.459l14.292 36.167-29.93 79.761-18.397 20.027-13.633-11.126c-2.696-16.611-4.858-35.54-4.012-39.897 2.727-12.191-6.268-27.642-10.311-33.784l-14.322-41.934c-1.693-5.014-6.801-8.18-12.004-7.427l-56.444 7.678-18.177-20.559 13.163-26.013a11.191 11.191 0 0 0 .752-8.117l-14.416-49.674 36.198-27.392 32.437-27.047 42.09 21.061c1.003.502 2.1.846 3.197 1.034l26.42 4.231c1.253.188 2.538.188 3.792-.062l28.52-5.266a11.133 11.133 0 0 0 9.057-11.627l-1.41-23.254a11.09 11.09 0 0 0-6.519-9.434l-49.142-22.189-45.067-23.38-25.95-10.624 21.311-8.211c2.978-1.16 5.328-3.51 6.425-6.52 1.097-2.976.878-6.299-.627-9.12l-6.581-12.284 47.731-12.38C455.187 77.223 519.748 166.668 519.748 271c0 4.45-.125 8.869-.344 13.257l-21.97-18.428Z"/></svg>