<svg width="294" height="294" viewBox="0 0 294 294" fill="none" xmlns="http://www.w3.org/2000/svg">
<path d="M147 78.4C109.113 78.4 78.4 109.113 78.4 147C78.4 184.887 109.113 215.6 147 215.6C184.87 215.56 215.56 184.87 215.6 147C215.6 109.113 184.887 78.4 147 78.4ZM197.989 117.84C202.266 125.271 204.848 133.555 205.55 142.1H181.182C180.964 134.951 180.161 127.832 178.781 120.814C185.641 120.065 192.109 119.065 197.989 117.84ZM191.845 109.059C187.013 109.932 181.829 110.662 176.371 111.23C174.438 104.439 171.516 97.9706 167.698 92.0318C177.062 95.5653 185.372 101.426 191.845 109.059ZM122.613 142.1C122.835 135.251 123.642 128.433 125.024 121.721C132.114 122.235 139.498 122.5 147 122.5C154.502 122.5 161.886 122.235 168.977 121.721C170.358 128.433 171.165 135.251 171.387 142.1H122.613ZM171.387 151.9C171.164 158.749 170.358 165.567 168.977 172.279C161.886 171.765 154.502 171.5 147 171.5C139.498 171.5 132.114 171.765 125.024 172.279C123.642 165.567 122.835 158.749 122.613 151.9H171.387ZM147 88.2C154.066 88.2 161.602 97.2062 166.429 112.063C160.142 112.47 153.635 112.7 147 112.7C140.365 112.7 133.858 112.47 127.572 112.063C132.398 97.2062 139.934 88.2 147 88.2ZM126.302 92.0318C122.484 97.9706 119.562 104.439 117.629 111.23C112.171 110.662 106.987 109.932 102.155 109.059C108.628 101.426 116.939 95.5653 126.302 92.0318ZM96.0106 117.84C101.891 119.065 108.349 120.065 115.219 120.814C113.839 127.832 113.036 134.951 112.818 142.1H88.4499C89.1525 133.555 91.7348 125.271 96.0106 117.84ZM96.0106 176.16C91.7341 168.729 89.1525 160.445 88.4499 151.9H112.818C113.036 159.049 113.839 166.168 115.219 173.186C108.359 173.935 101.891 174.935 96.0106 176.16ZM102.155 184.941C106.987 184.069 112.171 183.338 117.629 182.77C119.562 189.561 122.484 196.029 126.302 201.968C116.939 198.434 108.628 192.574 102.155 184.941ZM147 205.8C139.934 205.8 132.398 196.794 127.572 181.937C133.858 181.53 140.365 181.3 147 181.3C153.635 181.3 160.142 181.53 166.429 181.937C161.602 196.794 154.066 205.8 147 205.8ZM167.698 201.968C171.516 196.029 174.438 189.561 176.371 182.77C181.829 183.338 187.013 184.069 191.845 184.941C185.372 192.574 177.062 198.434 167.698 201.968ZM197.989 176.16C192.109 174.935 185.651 173.935 178.781 173.186C180.161 166.168 180.964 159.049 181.182 151.9H205.55C204.848 160.445 202.265 168.729 197.989 176.16Z" fill="#2C3E50" fill-opacity="0.1"/>
<path d="M53.9 0H4.9C2.19397 0 0 2.19397 0 4.9V44.1C0 46.806 2.19397 49 4.9 49H24.5V58.8H4.9V68.6H53.9V58.8H34.3V49H53.9C56.606 49 58.8 46.806 58.8 44.1V4.9C58.8 2.19397 56.606 0 53.9 0ZM49 39.2H9.8V9.8H49V39.2Z" fill="#2C3E50" fill-opacity="0.1"/>
<path d="M289.1 0H240.1C237.394 0 235.2 2.19397 235.2 4.9V44.1C235.2 46.806 237.394 49 240.1 49H259.7V58.8H240.1V68.6H289.1V58.8H269.5V49H289.1C291.806 49 294 46.806 294 44.1V4.9C294 2.19397 291.806 0 289.1 0ZM284.2 39.2H245V9.8H284.2V39.2Z" fill="#2C3E50" fill-opacity="0.1"/>
<path d="M53.9 274.4C56.606 274.4 58.8 272.206 58.8 269.5V230.3C58.8 227.594 56.606 225.4 53.9 225.4H4.9C2.19397 225.4 0 227.594 0 230.3V269.5C0 272.206 2.19397 274.4 4.9 274.4H24.5V284.2H0V294H58.8V284.2H34.3V274.4H53.9ZM9.8 264.6V235.2H49V264.6H9.8Z" fill="#2C3E50" fill-opacity="0.1"/>
<path d="M289.1 274.4C291.806 274.4 294 272.206 294 269.5V230.3C294 227.594 291.806 225.4 289.1 225.4H240.1C237.394 225.4 235.2 227.594 235.2 230.3V269.5C235.2 272.206 237.394 274.4 240.1 274.4H259.7V284.2H235.2V294H294V284.2H269.5V274.4H289.1ZM245 264.6V235.2H284.2V264.6H245Z" fill="#2C3E50" fill-opacity="0.1"/>
<path d="M77.6895 70.7413L84.868 68.3452L81.7516 59.0548L67.0516 63.9548C65.5859 64.4356 64.4356 65.5853 63.9548 67.0516L59.0548 81.7516L68.3648 84.8484L70.7609 77.6699L84.7553 91.6643L91.6839 84.7357L77.6895 70.7413Z" fill="#2C3E50" fill-opacity="0.1"/>
<path d="M230.065 67.0712C229.585 65.5932 228.426 64.4344 226.948 63.9548L212.248 59.0548L209.152 68.3648L216.33 70.7609L202.336 84.7553L209.264 91.6839L223.259 77.6895L225.655 84.868L234.965 81.7712L230.065 67.0712Z" fill="#2C3E50" fill-opacity="0.1"/>
<path d="M91.6447 209.245L84.7357 202.336L70.7413 216.33L68.3452 209.152L59.0352 212.248L63.9352 226.948C64.416 228.414 65.5657 229.564 67.032 230.045L81.732 234.945L84.8288 225.635L77.6503 223.239L91.6447 209.245Z" fill="#2C3E50" fill-opacity="0.1"/>
<path d="M225.635 209.152L223.239 216.33L209.245 202.336L202.316 209.264L216.311 223.259L209.132 225.655L212.248 234.945L226.948 230.045C228.414 229.564 229.564 228.415 230.045 226.948L234.945 212.248L225.635 209.152Z" fill="#2C3E50" fill-opacity="0.1"/>
<path d="M151.9 19.6H142.1V58.8H151.9V19.6Z" fill="#2C3E50" fill-opacity="0.1"/>
<path d="M151.9 0H142.1V9.8H151.9V0Z" fill="#2C3E50" fill-opacity="0.1"/>
<path d="M172.932 55.335L163.133 65.1334L170.063 72.063L179.861 62.2646L172.932 55.335Z" fill="#2C3E50" fill-opacity="0.1"/>
<path d="M121.067 55.3346L114.138 62.2642L123.936 72.0626L130.866 65.133L121.067 55.3346Z" fill="#2C3E50" fill-opacity="0.1"/>
<path d="M151.9 235.2H142.1V274.4H151.9V235.2Z" fill="#2C3E50" fill-opacity="0.1"/>
<path d="M151.9 284.2H142.1V294H151.9V284.2Z" fill="#2C3E50" fill-opacity="0.1"/>
<path d="M170.065 221.937L163.136 228.867L172.934 238.665L179.864 231.736L170.065 221.937Z" fill="#2C3E50" fill-opacity="0.1"/>
<path d="M123.936 221.933L116.587 229.281L123.517 236.211L130.865 228.862L123.936 221.933Z" fill="#2C3E50" fill-opacity="0.1"/>
<path d="M274.4 142.1H235.2V151.9H274.4V142.1Z" fill="#2C3E50" fill-opacity="0.1"/>
<path d="M294 142.1H284.2V151.9H294V142.1Z" fill="#2C3E50" fill-opacity="0.1"/>
<path d="M231.734 114.135L221.936 123.934L228.865 130.863L238.664 121.065L231.734 114.135Z" fill="#2C3E50" fill-opacity="0.1"/>
<path d="M228.865 163.11L221.935 170.04L231.734 179.838L238.663 172.908L228.865 163.11Z" fill="#2C3E50" fill-opacity="0.1"/>
<path d="M58.8 142.1H19.6V151.9H58.8V142.1Z" fill="#2C3E50" fill-opacity="0.1"/>
<path d="M9.8 142.1H0V151.9H9.8V142.1Z" fill="#2C3E50" fill-opacity="0.1"/>
<path d="M62.2673 114.137L55.3377 121.066L65.1361 130.865L72.0657 123.935L62.2673 114.137Z" fill="#2C3E50" fill-opacity="0.1"/>
<path d="M65.1316 163.137L55.3331 172.935L62.2627 179.865L72.0611 170.066L65.1316 163.137Z" fill="#2C3E50" fill-opacity="0.1"/>
</svg>
