<svg
   xmlns:dc="http://purl.org/dc/elements/1.1/"
   xmlns:cc="http://creativecommons.org/ns#"
   xmlns:rdf="http://www.w3.org/1999/02/22-rdf-syntax-ns#"
   xmlns:svg="http://www.w3.org/2000/svg"
   xmlns="http://www.w3.org/2000/svg"
   viewBox="0 0 411.79998 411.80132"
   xml:space="preserve"
   id="svg2"
   version="1.1"><metadata
     id="metadata8"><rdf:RDF><cc:Work
         rdf:about=""><dc:format>image/svg+xml</dc:format><dc:type
           rdf:resource="http://purl.org/dc/dcmitype/StillImage" /><dc:title></dc:title></cc:Work></rdf:RDF></metadata><defs
     id="defs6"><clipPath
       id="clipPath18"
       clipPathUnits="userSpaceOnUse"><path
         id="path16"
         d="M 0,869.862 H 1355.291 V 0 H 0 Z" /></clipPath></defs><g
     transform="matrix(1.3333333,0,0,-1.3333333,-700.48238,896.08678)"
     id="g10"><g
       id="g12"><g
         clip-path="url(#clipPath18)"
         id="g14"><g
           transform="translate(834.2118,517.6401)"
           id="g40"><path
             id="path42"
             style="fill:#bdc3c7;fill-opacity:0;fill-rule:nonzero;stroke:none"
             d="m 0,0 c 0,-85.287 -69.138,-154.426 -154.425,-154.426 -85.286,0 -154.425,69.139 -154.425,154.426 0,85.286 69.139,154.425 154.425,154.425 C -69.138,154.425 0,85.286 0,0" /></g><g
           transform="translate(581.7889,609.7681)"
           id="g62"><path
             id="path64"
             class="stroke"
             d="M 0,0 V -169.714 H 195.996" /></g><g
           transform="translate(745.0721,483.6236)"
           id="g66"><path
             id="path68"
             class="stroke"
             d="m 0,0 -64.854,18.819 -13.373,45.713 -52.342,41.517" /></g><g
           transform="translate(618.8055,587.7515)"
           id="g70"><path
             id="path72"
             class="fill"
             d="m 0,0 c 0,-2.377 -1.927,-4.303 -4.303,-4.303 -2.377,0 -4.302,1.926 -4.302,4.303 0,2.376 1.925,4.303 4.302,4.303 C -1.927,4.303 0,2.376 0,0" /></g><g
           transform="translate(672.037,548.2593)"
           id="g114"><path
             id="path116"
             class="fill"
             d="m 0,0 c 0,-2.377 -1.926,-4.304 -4.303,-4.304 -2.376,0 -4.302,1.927 -4.302,4.304 0,2.376 1.926,4.303 4.302,4.303 C -1.926,4.303 0,2.376 0,0" /></g><g
           transform="translate(684.0897,502.1363)"
           id="g118"><path
             id="path120"
             class="fill"
             d="m 0,0 c 0,-2.377 -1.926,-4.303 -4.303,-4.303 -2.376,0 -4.302,1.926 -4.302,4.303 0,2.376 1.926,4.303 4.302,4.303 C -1.926,4.303 0,2.376 0,0" /></g><g
           transform="translate(749.3749,483.6236)"
           id="g122"><path
             id="path124"
             class="fill"
             d="m 0,0 c 0,-2.376 -1.927,-4.303 -4.303,-4.303 -2.377,0 -4.303,1.927 -4.303,4.303 0,2.377 1.926,4.303 4.303,4.303 C -1.927,4.303 0,2.377 0,0" /></g></g></g></g></svg>