<svg width="294" height="294" viewBox="0 0 294 294" fill="none" xmlns="http://www.w3.org/2000/svg">
<g clip-path="url(#clip0)">
<path d="M156.046 237.773C154.493 239.269 151.9 238.16 151.9 236.004V156.8C151.9 154.094 154.094 151.9 156.8 151.9H190.005C192.87 151.9 195.122 154.348 194.894 157.202C192.363 188.762 177.982 216.623 156.046 237.773ZM137.2 151.9H104.195C101.282 151.9 99.003 154.428 99.3179 157.324C103.007 191.303 122.494 218.83 137.846 235.68C139.35 237.331 142.1 236.255 142.1 234.022V156.8C142.1 154.094 139.906 151.9 137.2 151.9ZM103.97 142.1H137.2C139.906 142.1 142.1 139.906 142.1 137.2V58.3486C142.1 56.1852 139.495 55.0809 137.943 56.5877C115.273 78.6027 101.492 106.444 99.0808 136.809C98.8542 139.66 101.11 142.1 103.97 142.1ZM270.136 0.00183753C251.798 0.20825 240.712 20.5163 250.408 36.0456L213.689 72.7711C201.427 61.74 186.439 53.704 169.864 49.8085C167.494 49.2511 165.828 52.0931 167.5 53.8633C182.536 69.7907 202.051 97.7813 204.77 137.572C204.944 140.128 207.093 142.1 209.655 142.1H241.428C244.324 142.1 246.604 139.599 246.308 136.719C244.062 114.855 234.727 95.0563 220.647 79.6679L257.213 43.1077C272.733 53.6556 293.999 42.5081 294 23.5825C294 10.5387 283.179 -0.145162 270.136 0.00183753ZM151.9 57.9774V137.2C151.9 139.906 154.094 142.1 156.8 142.1H190.006C192.871 142.1 195.123 139.652 194.895 136.798C192.361 105.125 177.907 77.2914 156.059 56.2214C154.5 54.7183 151.9 55.8116 151.9 57.9774ZM257.213 250.892L220.641 214.326C234.726 198.938 244.062 179.145 246.308 157.281C246.604 154.401 244.324 151.9 241.428 151.9H209.654C207.093 151.9 204.943 153.872 204.769 156.428C202.045 196.229 182.518 224.215 167.476 240.143C165.804 241.913 167.47 244.755 169.84 244.198C186.42 240.302 201.427 232.26 213.689 221.229L250.408 257.954C240.682 273.531 251.851 293.835 270.195 293.999C283.215 294.115 294.001 283.437 294 270.417C293.999 251.497 272.739 240.34 257.213 250.892ZM124.607 49.7044C107.555 53.6244 92.1627 61.9237 79.6738 73.3591L43.1075 36.7868C53.6554 21.2672 42.5079 0.00122503 23.5823 2.60006e-08C10.5385 -0.000612474 -0.145989 10.8204 0.00101064 23.8636C0.208036 42.2019 20.5161 53.2875 36.0454 43.5916L72.7709 80.3171C59.0105 95.6106 49.9069 115.159 47.6915 136.722C47.3956 139.601 49.6766 142.1 52.5719 142.1H84.3141C86.8817 142.1 89.026 140.118 89.1988 137.556C91.3646 105.408 105.225 76.587 126.953 53.7653C128.631 52.0013 126.977 49.1531 124.607 49.7044ZM129.262 240.78C112.873 222.407 92.6851 192.868 89.3672 156.328C89.1394 153.815 87.0158 151.9 84.4923 151.9H52.5713C49.6754 151.9 47.395 154.401 47.6909 157.281C49.9369 179.15 59.2726 198.943 73.3589 214.326L36.7865 250.892C21.267 240.344 0.00101064 251.492 -0.000214356 270.418C-0.000826856 283.462 10.8208 294.146 23.864 293.999C42.2023 293.792 53.2867 273.484 43.5914 257.954L80.3169 221.229C93.259 232.879 109.258 241.19 126.94 244.81C129.243 245.282 130.824 242.538 129.262 240.78Z" fill="#2C3E50" fill-opacity="0.1"/>
</g>
<defs>
<clipPath id="clip0">
<rect width="294" height="294" fill="white"/>
</clipPath>
</defs>
</svg>
