<svg width="323" height="323" viewBox="0 0 323 323" fill="none" xmlns="http://www.w3.org/2000/svg">
<path d="M161.5 257.391C157.507 257.391 153.604 258.575 150.284 260.793C146.965 263.011 144.377 266.164 142.849 269.853C141.321 273.541 140.921 277.601 141.7 281.517C142.479 285.432 144.402 289.03 147.225 291.853C150.049 294.676 153.646 296.599 157.562 297.378C161.478 298.157 165.537 297.757 169.225 296.229C172.914 294.701 176.067 292.114 178.285 288.794C180.504 285.474 181.688 281.571 181.688 277.578C181.688 272.224 179.561 267.089 175.775 263.303C171.989 259.518 166.854 257.391 161.5 257.391ZM161.5 287.672C159.504 287.672 157.552 287.08 155.892 285.971C154.232 284.862 152.939 283.285 152.175 281.441C151.411 279.596 151.211 277.567 151.6 275.609C151.99 273.651 152.951 271.852 154.363 270.441C155.774 269.029 157.573 268.068 159.531 267.678C161.489 267.289 163.518 267.489 165.363 268.253C167.207 269.017 168.784 270.31 169.893 271.97C171.002 273.63 171.594 275.582 171.594 277.578C171.594 280.255 170.53 282.823 168.637 284.715C166.744 286.608 164.177 287.672 161.5 287.672Z" fill="#2C3E50" fill-opacity="0.1"/>
<path d="M262.438 191.781C268.427 191.781 274.281 190.005 279.261 186.678C284.241 183.351 288.122 178.621 290.414 173.088C292.706 167.555 293.305 161.466 292.137 155.592C290.969 149.718 288.085 144.323 283.85 140.088C279.615 135.853 274.219 132.969 268.345 131.801C262.471 130.632 256.383 131.232 250.849 133.524C245.316 135.816 240.587 139.697 237.26 144.677C233.932 149.656 232.156 155.511 232.156 161.5C232.164 169.529 235.357 177.226 241.034 182.903C246.711 188.58 254.409 191.773 262.438 191.781ZM262.438 141.312C266.43 141.312 270.333 142.496 273.653 144.715C276.973 146.933 279.56 150.086 281.088 153.775C282.616 157.463 283.016 161.522 282.237 165.438C281.458 169.354 279.535 172.951 276.712 175.775C273.889 178.598 270.292 180.521 266.376 181.3C262.46 182.079 258.401 181.679 254.712 180.151C251.023 178.623 247.87 176.035 245.652 172.716C243.434 169.396 242.25 165.493 242.25 161.5C242.25 156.146 244.377 151.011 248.163 147.225C251.949 143.439 257.083 141.312 262.438 141.312Z" fill="#2C3E50" fill-opacity="0.1"/>
<path d="M262.438 111.031C261.479 111.031 260.57 111.132 259.611 111.183L163.014 54.8091C156.957 42.657 147.931 32.2298 136.773 24.4931C125.615 16.7564 112.685 11.9604 99.1806 10.5492C85.6762 9.13796 72.034 11.1572 59.5174 16.4199C47.0007 21.6826 36.0145 30.0185 27.5759 40.6558C19.1373 51.2931 13.5193 63.8878 11.2422 77.2734C8.96502 90.6591 10.1023 104.403 14.5488 117.232C18.9953 130.062 26.6072 141.561 36.6795 150.667C46.7518 159.772 58.9589 166.189 72.1703 169.323L127.484 268.191C126.614 271.244 126.173 274.403 126.172 277.578C126.164 286.796 129.763 295.651 136.199 302.25C142.635 308.85 151.396 312.67 160.611 312.894C169.827 313.118 178.764 309.728 185.513 303.45C192.262 297.171 196.286 288.501 196.727 279.294L267.383 211.716C280.259 210.424 292.146 204.236 300.59 194.429C309.033 184.623 313.387 171.948 312.752 159.024C312.117 146.099 306.542 133.912 297.178 124.98C287.814 116.049 275.378 111.055 262.438 111.031ZM244.874 114.261C241.089 115.649 237.481 117.478 234.125 119.712L171.19 83.0211C170.731 78.5695 169.904 74.1636 168.717 69.8488L244.874 114.261ZM171.392 94.8308L225.999 126.677C220.987 131.891 217.159 138.126 214.776 144.954C212.393 151.783 211.512 159.046 212.192 166.247C212.873 173.447 215.098 180.417 218.718 186.679C222.338 192.94 227.266 198.348 233.166 202.531L183.555 250.022C178.875 246.244 173.301 243.735 167.369 242.736C161.438 241.737 155.35 242.283 149.69 244.319L108.205 169.676C125.476 165.833 141.009 156.431 152.423 142.911C163.836 129.392 170.5 112.501 171.392 94.8308ZM20.1875 90.8438C20.1875 76.8693 24.3314 63.2086 32.0952 51.5892C39.859 39.9699 50.894 30.9137 63.8048 25.5659C76.7155 20.2181 90.9221 18.8189 104.628 21.5451C118.334 24.2714 130.924 31.0008 140.805 40.8822C150.687 50.7637 157.416 63.3534 160.142 77.0594C162.869 90.7654 161.469 104.972 156.122 117.883C150.774 130.793 141.718 141.828 130.098 149.592C118.479 157.356 104.818 161.5 90.8438 161.5C72.1107 161.48 54.1507 154.029 40.9044 140.783C27.6581 127.537 20.2075 109.577 20.1875 90.8438ZM84.838 171.291C86.8567 171.442 88.825 171.594 90.8438 171.594C93.1149 171.594 95.3355 171.442 97.5561 171.24L140.757 249.063C137.688 251.275 134.995 253.968 132.783 257.037L84.838 171.291ZM161.5 302.812C156.509 302.812 151.63 301.333 147.481 298.56C143.331 295.787 140.096 291.846 138.186 287.235C136.277 282.624 135.777 277.55 136.751 272.655C137.724 267.76 140.128 263.264 143.657 259.735C147.186 256.206 151.682 253.802 156.577 252.829C161.472 251.855 166.546 252.355 171.157 254.265C175.768 256.175 179.709 259.409 182.482 263.559C185.254 267.708 186.734 272.587 186.734 277.578C186.734 284.271 184.076 290.689 179.343 295.422C174.611 300.154 168.193 302.812 161.5 302.812ZM195.163 266.879C194.065 263.497 192.466 260.298 190.419 257.391L242.351 207.78C245.897 209.305 249.605 210.423 253.404 211.111L195.163 266.879ZM262.438 201.875C254.452 201.875 246.646 199.507 240.006 195.071C233.367 190.634 228.192 184.328 225.136 176.951C222.08 169.573 221.28 161.455 222.838 153.623C224.396 145.791 228.242 138.597 233.888 132.951C239.535 127.304 246.729 123.459 254.561 121.901C262.393 120.343 270.511 121.142 277.888 124.198C285.266 127.254 291.572 132.429 296.008 139.069C300.445 145.708 302.812 153.515 302.812 161.5C302.798 172.204 298.539 182.465 290.971 190.033C283.402 197.602 273.141 201.86 262.438 201.875Z" fill="#2C3E50" fill-opacity="0.1"/>
<path d="M90.8438 30.2812C78.8656 30.2813 67.1565 33.8332 57.1971 40.4879C47.2376 47.1426 39.4752 56.6011 34.8913 67.6675C30.3075 78.7338 29.1082 90.9109 31.445 102.659C33.7818 114.407 39.5498 125.198 48.0196 133.668C56.4894 142.138 67.2806 147.906 79.0286 150.243C90.7766 152.579 102.954 151.38 114.02 146.796C125.086 142.212 134.545 134.45 141.2 124.49C147.854 114.531 151.406 102.822 151.406 90.8438C151.393 74.7857 145.008 59.3891 133.653 48.0344C122.298 36.6796 106.902 30.2946 90.8438 30.2812ZM90.8438 141.312C80.862 141.312 71.1044 138.353 62.8048 132.807C54.5053 127.261 48.0366 119.379 44.2167 110.157C40.3969 100.935 39.3974 90.7878 41.3448 80.9978C43.2921 71.2078 48.0988 62.2151 55.157 55.157C62.2152 48.0988 71.2078 43.2921 80.9978 41.3447C90.7878 39.3974 100.935 40.3968 110.157 44.2167C119.379 48.0366 127.261 54.5053 132.807 62.8048C138.353 71.1044 141.313 80.862 141.313 90.8438C141.291 104.222 135.967 117.047 126.507 126.507C117.047 135.967 104.222 141.291 90.8438 141.312Z" fill="#2C3E50" fill-opacity="0.1"/>
<path d="M186.734 60.5625H196.828C196.82 53.8724 194.159 47.4586 189.428 42.728C184.698 37.9973 178.284 35.3361 171.594 35.3281V45.4219C175.609 45.4219 179.46 47.017 182.3 49.8565C185.139 52.6959 186.734 56.547 186.734 60.5625Z" fill="#2C3E50" fill-opacity="0.1"/>
<path d="M206.922 60.5625H217.016C217.001 48.5204 212.211 36.9757 203.696 28.4606C195.181 19.9455 183.636 15.1553 171.594 15.1406V25.2344C180.96 25.2451 189.94 28.9706 196.563 35.5935C203.186 42.2165 206.911 51.1962 206.922 60.5625Z" fill="#2C3E50" fill-opacity="0.1"/>
<path d="M55.5156 171.594H45.4219C45.4299 178.284 48.0911 184.698 52.8217 189.428C57.5523 194.159 63.9661 196.82 70.6562 196.828V186.734C66.6407 186.734 62.7896 185.139 59.9502 182.3C57.1108 179.46 55.5156 175.609 55.5156 171.594Z" fill="#2C3E50" fill-opacity="0.1"/>
<path d="M35.3281 171.594H25.2344C25.2491 183.636 30.0393 195.181 38.5544 203.696C47.0694 212.211 58.6141 217.001 70.6562 217.016V206.922C61.2899 206.911 52.3103 203.186 45.6873 196.563C39.0643 189.94 35.3388 180.96 35.3281 171.594Z" fill="#2C3E50" fill-opacity="0.1"/>
<path d="M115.271 83.0716C114.815 82.3608 114.188 81.7759 113.447 81.3703C112.706 80.9647 111.876 80.7514 111.031 80.75H95.8906V50.4688C95.8853 49.3182 95.4871 48.204 94.7618 47.3107C94.0366 46.4175 93.028 45.7989 91.903 45.5574C90.7781 45.3159 89.6044 45.4661 88.5765 45.983C87.5485 46.4999 86.7281 47.3525 86.2511 48.3995L66.0636 93.8214C65.7184 94.5892 65.5708 95.4311 65.6342 96.2705C65.6975 97.1099 65.9699 97.9201 66.4263 98.6274C66.8828 99.3346 67.5089 99.9165 68.2477 100.32C68.9865 100.723 69.8144 100.936 70.6562 100.938H85.7969V131.219C85.7942 132.375 86.1888 133.497 86.9145 134.398C87.6403 135.298 88.6532 135.922 89.7839 136.165C90.1343 136.223 90.4885 136.257 90.8437 136.266C91.8145 136.264 92.7642 135.982 93.5788 135.453C94.3934 134.925 95.0383 134.173 95.4364 133.288L115.624 87.8661C115.968 87.1006 116.116 86.2612 116.055 85.4241C115.993 84.5869 115.724 83.7783 115.271 83.0716ZM95.8906 107.448V95.8906C95.8906 94.5521 95.3589 93.2684 94.4124 92.3219C93.4659 91.3755 92.1822 90.8438 90.8437 90.8438H78.4284L85.7969 74.2395V85.7969C85.7969 87.1354 86.3286 88.4191 87.275 89.3656C88.2215 90.312 89.5052 90.8438 90.8437 90.8438H103.259L95.8906 107.448Z" fill="#2C3E50" fill-opacity="0.1"/>
</svg>
