<svg
   xmlns:dc="http://purl.org/dc/elements/1.1/"
   xmlns:cc="http://creativecommons.org/ns#"
   xmlns:rdf="http://www.w3.org/1999/02/22-rdf-syntax-ns#"
   xmlns:svg="http://www.w3.org/2000/svg"
   xmlns="http://www.w3.org/2000/svg"
   viewBox="0 0 411.80132 411.80132"
   xml:space="preserve"
   id="svg2"
   version="1.1"><metadata
     id="metadata8"><rdf:RDF><cc:Work
         rdf:about=""><dc:format>image/svg+xml</dc:format><dc:type
           rdf:resource="http://purl.org/dc/dcmitype/StillImage" /><dc:title></dc:title></cc:Work></rdf:RDF></metadata><defs
     id="defs6"><clipPath
       id="clipPath18"
       clipPathUnits="userSpaceOnUse"><path
         id="path16"
         d="M 0,869.862 H 1355.291 V 0 H 0 Z" /></clipPath></defs><g
     transform="matrix(1.3333333,0,0,-1.3333333,-178.3352,896.08678)"
     id="g10"><g
       id="g12"><g
         clip-path="url(#clipPath18)"
         id="g14"><g
           transform="translate(442.6024,517.6401)"
           id="g36"><path
             id="background"
             style="fill:#bdc3c7;fill-opacity:0;fill-rule:nonzero;stroke:none"
             d="m 0,0 c 0,-85.287 -69.139,-154.426 -154.425,-154.426 -85.287,0 -154.426,69.139 -154.426,154.426 0,85.286 69.139,154.425 154.426,154.425 C -69.139,154.425 0,85.286 0,0" /></g><g
           transform="translate(288.1776,417.564)"
           id="g44"><path
             id="path46"
             class="stroke"
             d="M 0,0 C -93.114,36.55 -82.672,171.435 -82.672,171.435 -33.939,169.693 0,200.151 0,200.151 c 0,0 33.938,-30.458 82.671,-28.716 C 82.671,171.435 93.113,36.55 0,0 Z" /></g><path
           id="path48"
           class="stroke"
           d="m 323.955,491.16 h -71.556 v 49.932 h 71.556 z" /><g
           transform="translate(268.5194,541.0913)"
           id="g50"><path
             id="path52"
             class="stroke"
             d="m 0,0 v 16.119 c 0,0 -0.394,18.086 19.658,17.693" /></g><g
           transform="translate(307.8348,541.0913)"
           id="g54"><path
             id="path56"
             class="stroke"
             d="m 0,0 v 16.119 c 0,0 0.394,18.086 -19.657,17.693" /></g><g
           transform="translate(294.4676,522.6128)"
           id="g58"><path
             id="path60"
             class="stroke"
             d="m 0,0 c 0,3.474 -2.816,6.29 -6.29,6.29 -3.475,0 -6.291,-2.816 -6.291,-6.29 0,-2.67 1.666,-4.945 4.012,-5.858 v -10.205 c 0,-1.275 1.025,-2.318 2.279,-2.318 1.253,0 2.278,1.043 2.278,2.318 V -5.858 C -1.665,-4.945 0,-2.67 0,0 Z" /></g><g
           transform="translate(256.702,491.1597)"
           id="g74"><path
             id="path76"
             class="fill"
             d="m 0,0 c 0,-2.376 -1.926,-4.303 -4.303,-4.303 -2.376,0 -4.302,1.927 -4.302,4.303 0,2.377 1.926,4.303 4.302,4.303 C -1.926,4.303 0,2.377 0,0" /></g><g
           transform="translate(328.2577,491.1597)"
           id="g78"><path
             id="path80"
             class="fill"
             d="m 0,0 c 0,-2.376 -1.927,-4.303 -4.303,-4.303 -2.377,0 -4.302,1.927 -4.302,4.303 0,2.377 1.925,4.303 4.302,4.303 C -1.927,4.303 0,2.377 0,0" /></g><g
           transform="translate(292.4803,617.7153)"
           id="g82"><path
             id="path84"
             class="fill"
             d="m 0,0 c 0,-2.376 -1.927,-4.303 -4.303,-4.303 -2.377,0 -4.303,1.927 -4.303,4.303 0,2.377 1.926,4.303 4.303,4.303 C -1.927,4.303 0,2.377 0,0" /></g><g
           transform="translate(292.4803,417.564)"
           id="g86"><path
             id="path88"
             class="fill"
             d="m 0,0 c 0,-2.377 -1.927,-4.303 -4.303,-4.303 -2.377,0 -4.303,1.926 -4.303,4.303 0,2.376 1.926,4.303 4.303,4.303 C -1.927,4.303 0,2.376 0,0" /></g><g
           transform="translate(375.5018,587.7515)"
           id="g90"><path
             id="path92"
             class="fill"
             d="m 0,0 c 0,-2.377 -1.927,-4.303 -4.303,-4.303 -2.377,0 -4.302,1.926 -4.302,4.303 0,2.376 1.925,4.303 4.302,4.303 C -1.927,4.303 0,2.376 0,0" /></g><g
           transform="translate(209.4579,587.7515)"
           id="g94"><path
             id="path96"
             class="fill"
             d="m 0,0 c 0,-2.377 -1.926,-4.303 -4.303,-4.303 -2.376,0 -4.302,1.926 -4.302,4.303 0,2.376 1.926,4.303 4.302,4.303 C -1.926,4.303 0,2.376 0,0" /></g><g
           transform="translate(256.702,541.0913)"
           id="g98"><path
             id="path100"
             class="fill"
             d="m 0,0 c 0,-2.377 -1.926,-4.303 -4.303,-4.303 -2.376,0 -4.302,1.926 -4.302,4.303 0,2.376 1.926,4.303 4.302,4.303 C -1.926,4.303 0,2.376 0,0" /></g><g
           transform="translate(272.8211,541.0913)"
           id="g102"><path
             id="path104"
             class="fill"
             d="m 0,0 c 0,-2.377 -1.926,-4.303 -4.303,-4.303 -2.376,0 -4.302,1.926 -4.302,4.303 0,2.376 1.926,4.303 4.302,4.303 C -1.926,4.303 0,2.376 0,0" /></g><g
           transform="translate(328.2577,541.0913)"
           id="g106"><path
             id="path108"
             class="fill"
             d="m 0,0 c 0,-2.377 -1.927,-4.303 -4.303,-4.303 -2.377,0 -4.302,1.926 -4.302,4.303 0,2.376 1.925,4.303 4.302,4.303 C -1.927,4.303 0,2.376 0,0" /></g><g
           transform="translate(312.1385,541.0913)"
           id="g110"><path
             id="path112"
             class="fill"
             d="m 0,0 c 0,-2.377 -1.927,-4.303 -4.303,-4.303 -2.376,0 -4.302,1.926 -4.302,4.303 0,2.376 1.926,4.303 4.302,4.303 C -1.927,4.303 0,2.376 0,0" /></g></g></g></g></svg>