<svg
   xmlns:dc="http://purl.org/dc/elements/1.1/"
   xmlns:cc="http://creativecommons.org/ns#"
   xmlns:rdf="http://www.w3.org/1999/02/22-rdf-syntax-ns#"
   xmlns:svg="http://www.w3.org/2000/svg"
   xmlns="http://www.w3.org/2000/svg"
   viewBox="0 0 411.79998 411.80132"
   xml:space="preserve"
   id="svg2"
   version="1.1"><metadata
     id="metadata8"><rdf:RDF><cc:Work
         rdf:about=""><dc:format>image/svg+xml</dc:format><dc:type
           rdf:resource="http://purl.org/dc/dcmitype/StillImage" /><dc:title></dc:title></cc:Work></rdf:RDF></metadata><defs
     id="defs6"><clipPath
       id="clipPath18"
       clipPathUnits="userSpaceOnUse"><path
         id="path16"
         d="M 0,869.862 H 1355.291 V 0 H 0 Z" /></clipPath></defs><g
     transform="matrix(1.3333333,0,0,-1.3333333,-1222.6294,896.08678)"
     id="g10"><g
       id="g12"><g
         clip-path="url(#clipPath18)"
         id="g14"><g
           transform="translate(1225.8221,517.6401)"
           id="g20"><path
             id="background"
             style="fill:#bdc3c7;fill-opacity:0;fill-rule:nonzero;stroke:none"
             d="m 0,0 c 0,-85.287 -69.139,-154.426 -154.425,-154.426 -85.287,0 -154.425,69.139 -154.425,154.426 0,85.286 69.138,154.425 154.425,154.425 C -69.139,154.425 0,85.286 0,0" /></g><g
           transform="translate(1043.496,565.3608)"
           id="g24"><path
             id="path26"
             class="stroke"
             d="m 0,0 h -55.104 l -27.551,-47.721 27.551,-47.721 H 0 l 27.552,47.721 z" /></g><g
           transform="translate(1098.5995,565.3608)"
           id="g28"><path
             id="path30"
             class="stroke"
             d="m 0,0 h -55.104 l -27.551,-47.721 27.551,-47.721 H 0 l 27.552,47.721 z" /></g><g
           transform="translate(1153.703,565.3608)"
           id="g32"><path
             id="path34"
             class="stroke"
             d="m 0,0 h -55.104 l -27.551,-47.721 27.551,-47.721 H 0 l 27.552,47.721 z" /></g><g
           transform="translate(992.7538,565.3608)"
           id="g126"><path
             id="path128"
             class="fill"
             d="m 0,0 c 0,-2.377 -1.927,-4.303 -4.304,-4.303 -2.376,0 -4.302,1.926 -4.302,4.303 0,2.376 1.926,4.303 4.302,4.303 C -1.927,4.303 0,2.376 0,0" /></g><g
           transform="translate(1048.1376,565.3608)"
           id="g130"><path
             id="path132"
             class="fill"
             d="m 0,0 c 0,-2.377 -1.926,-4.303 -4.303,-4.303 -2.376,0 -4.302,1.926 -4.302,4.303 0,2.376 1.926,4.303 4.302,4.303 C -1.926,4.303 0,2.376 0,0" /></g><g
           transform="translate(1102.871,565.3608)"
           id="g134"><path
             id="path136"
             class="fill"
             d="m 0,0 c 0,-2.377 -1.927,-4.303 -4.303,-4.303 -2.377,0 -4.303,1.926 -4.303,4.303 0,2.376 1.926,4.303 4.303,4.303 C -1.927,4.303 0,2.376 0,0" /></g><g
           transform="translate(1158.4725,565.3608)"
           id="g138"><path
             id="path140"
             class="fill"
             d="m 0,0 c 0,-2.377 -1.927,-4.303 -4.303,-4.303 -2.377,0 -4.302,1.926 -4.302,4.303 0,2.376 1.925,4.303 4.302,4.303 C -1.927,4.303 0,2.376 0,0" /></g><g
           transform="translate(992.7538,469.9185)"
           id="g142"><path
             id="path144"
             class="fill"
             d="m 0,0 c 0,-2.376 -1.927,-4.303 -4.304,-4.303 -2.376,0 -4.302,1.927 -4.302,4.303 0,2.377 1.926,4.303 4.302,4.303 C -1.927,4.303 0,2.377 0,0" /></g><g
           transform="translate(1048.1376,469.9185)"
           id="g146"><path
             id="path148"
             class="fill"
             d="m 0,0 c 0,-2.376 -1.926,-4.303 -4.303,-4.303 -2.376,0 -4.302,1.927 -4.302,4.303 0,2.377 1.926,4.303 4.302,4.303 C -1.926,4.303 0,2.377 0,0" /></g><g
           transform="translate(1102.871,469.9185)"
           id="g150"><path
             id="path152"
             class="fill"
             d="m 0,0 c 0,-2.376 -1.927,-4.303 -4.303,-4.303 -2.377,0 -4.303,1.927 -4.303,4.303 0,2.377 1.926,4.303 4.303,4.303 C -1.927,4.303 0,2.377 0,0" /></g><g
           transform="translate(1158.4725,469.9185)"
           id="g154"><path
             id="path156"
             class="fill"
             d="m 0,0 c 0,-2.376 -1.927,-4.303 -4.303,-4.303 -2.377,0 -4.302,1.927 -4.302,4.303 0,2.377 1.925,4.303 4.302,4.303 C -1.927,4.303 0,2.377 0,0" /></g><g
           transform="translate(966.5282,517.6401)"
           id="g158"><path
             id="path160"
             class="fill"
             d="m 0,0 c 0,-2.377 -1.927,-4.304 -4.303,-4.304 -2.376,0 -4.302,1.927 -4.302,4.304 0,2.376 1.926,4.303 4.302,4.303 C -1.927,4.303 0,2.376 0,0" /></g><g
           transform="translate(1021.163,517.6401)"
           id="g162"><path
             id="path164"
             class="fill"
             d="m 0,0 c 0,-2.377 -1.927,-4.304 -4.303,-4.304 -2.377,0 -4.302,1.927 -4.302,4.304 0,2.376 1.925,4.303 4.302,4.303 C -1.927,4.303 0,2.376 0,0" /></g><g
           transform="translate(1075.3954,517.6401)"
           id="g166"><path
             id="path168"
             class="fill"
             d="m 0,0 c 0,-2.377 -1.926,-4.304 -4.303,-4.304 -2.376,0 -4.302,1.927 -4.302,4.304 0,2.376 1.926,4.303 4.302,4.303 C -1.926,4.303 0,2.376 0,0" /></g><g
           transform="translate(1130.7255,517.3677)"
           id="g170"><path
             id="path172"
             class="fill"
             d="m 0,0 c 0,-2.376 -1.926,-4.303 -4.303,-4.303 -2.376,0 -4.302,1.927 -4.302,4.303 0,2.377 1.926,4.304 4.302,4.304 C -1.926,4.304 0,2.377 0,0" /></g><g
           transform="translate(1185.5575,517.6401)"
           id="g174"><path
             id="path176"
             class="fill"
             d="m 0,0 c 0,-2.377 -1.926,-4.304 -4.303,-4.304 -2.376,0 -4.302,1.927 -4.302,4.304 0,2.376 1.926,4.303 4.302,4.303 C -1.926,4.303 0,2.376 0,0" /></g></g></g></g></svg>